<svg fill="none" height="1539" viewBox="0 0 2469 1539" width="2469" xmlns="http://www.w3.org/2000/svg" xmlns:xlink="http://www.w3.org/1999/xlink"><linearGradient id="a" gradientUnits="userSpaceOnUse" x1="642.748" x2="642.748" y1=".476562" y2="1466.74"><stop offset="0" stop-color="#a793e3"/><stop offset="1" stop-color="#e4bdff"/></linearGradient><linearGradient id="b" gradientUnits="userSpaceOnUse" x1="1523.13" x2="1523.13" y1="253.867" y2="1421.95"><stop offset="0" stop-color="#ca728a"/><stop offset="1" stop-color="#b5a9ff"/></linearGradient><linearGradient id="c" gradientUnits="userSpaceOnUse" x1="1620" x2="122" y1="1498" y2="224"><stop offset="0" stop-color="#2e34a0"/><stop offset="1" stop-color="#2531ff"/><stop offset="1" stop-color="#010aa0"/></linearGradient><clipPath id="d"><path d="m68 153h1667.9v1042.03h-1667.9z"/></clipPath><clipPath id="e"><path d="m0 0h362.918v413.058h-362.918z" transform="matrix(.87023449 .49263773 -.49263773 .87023449 203.674 733.607)"/></clipPath><path d="m255.514 184c136.816-334 570.066-111.9999 571.695-101.9999 301.321 119.9999 496.771 1003.9999 231.281 971.9999-265.486-32-452.792 348-767.143 410-314.3504 62-172.648-946-35.833-1280z" fill="url(#a)"/><path d="m682 1264c-312-384 124-842 652-990 634.59-177.8766 1249.94 871.04 612.9 1039.89-121.77 32.27-242.2 41.89-332.9 12.11-402-132-620 322-932-62z" fill="url(#b)"/><path d="m2268.24 552.612c-10.33 425.193-661.98 562.768-671.16 558.798-687.597 231.85-114.8-869.706 167.04-715.22s514.44-268.772 504.12 156.422z" fill="#5328f5"/><path d="m550 798c-230.4-328 76-440.667 258-456 348-10 38 330 178 508s542-228 834 94-234 558-834 592-148-328-436-738z" fill="url(#c)"/><g fill="#d28a9e"><g clip-path="url(#d)"><path d="m634.545 231.014c-1.812 1.346-.207 3.002 5.332 1.397l3.262-4.244z"/><path d="m674.042 229.254c6.367-2.796 13.667-7.093 8.8-9.422-3.054 2.226-5.073 3.054-7.092 3.986-1.035.466-2.07.932-3.209 1.657-1.191.673-2.485 1.553-4.09 2.899-5.591 1.553-10.146.931-9.422-.518-.931.621-3.157.88-5.539 1.346-2.329.466-4.762 1.139-6.056 2.536 1.967.259 4.037.259 6.212.156 2.122-.052 4.348-.311 6.626-.725s4.555-.984 6.885-1.708c1.139-.363 2.329-.777 3.52-1.191s2.33-.88 3.52-1.346c2.123.362.207 1.605-.155 2.33z"/><path d="m1149.42 403.451c0-1.19.06-2.381 0-3.571-.05.983-.05 2.226 0 3.571z"/><path d="m1000.02 706.499c1.66-2.071 2.07-3.158 1.92-3.468-1.35 2.019-2.486 3.727-1.92 3.468z"/><path d="m958.092 748.793c.932-.88 1.708-1.656 2.536-2.433-1.138.777-2.174 1.657-2.536 2.433z"/><path d="m1149.42 403.452c0 3.054-.2 6.056-.36 9.111.57.31.73-.88.68-2.692 0-.88-.06-1.967-.11-3.055-.05-1.087-.15-2.277-.21-3.364z"/><path d="m750.658 210.824c-1.967.311-3.572.777-5.021 1.346 1.605-.259 3.158-.517 4.762-.776.052-.207.156-.363.259-.57z"/><path d="m1069.18 283.299c-.77-.518-1.5-1.035-2.27-1.553-.88-.104-1.76-.155-2.7-.104 1.66.57 3.32 1.087 4.97 1.657z"/><path d="m962.803 240.332c2.536.725 4.089-1.916 5.384-2.951-1.709.828-3.78.932-6.057.621-.207.57 0 1.295.673 2.33z"/><path d="m777.993 220.919c-1.087.155-2.174.362-3.313.57.88-.208 2.329-.415 3.313-.57z"/><path d="m1124.84 342.003c-.26.363-.42.932-.37 1.398.31-.207.42-.725.37-1.398z"/><path d="m263.474 657.63c0-.207-.155-.31-.207-.465-.517.517-.621.828.207.465z"/><path d="m144.098 721.201 1.294-1.398c-.207-.517-.466-1.087-.828-1.449z"/><path d="m880.596 825.409c.155-.103.207-.207.362-.31 1.76-2.278.673-1.036-.362.31z"/><path d="m1279 1090.2c-5.75 1.35-1.92-1.45 1.24-3.99 3.16-2.53 5.64-4.76-2.74-2.22.98.15-2.02 2.9-3.63 5.02-1.55 2.12-1.65 3.57 5.13 1.19z"/><path d="m753.766 210.98c1.604-.156 3.261-.363 4.866-.414-2.174 0-3.676.207-4.866.414z"/><path d="m1277.5 1083.99-1.71.52c.72-.21 1.14-.37 1.71-.52z"/><path d="m709.711 1013.12c.725-.16 1.605-.78 2.537-1.45-.259-.1-.932.21-2.537 1.45z"/><path d="m839.854 875.417-3.52 3.054c1.449-1.139 2.588-2.123 3.52-3.054z"/><path d="m671.921 1107.39c-.466 2.74-.984 3.62-.725 7.45.155-.36.259-.67.363-1.14-.311-1.34-.415-3.21.362-6.31z"/><path d="m735.284 1187.52c-.517-.36-1.19-.67-1.812-1.03-1.035-.16-2.277-.47-3.365-.67.829.31 1.709.62 2.537.88z"/><path d="m537.015 666.534c-.363-1.035-.621-1.967-.725-2.795-.155-.828-.207-1.553-.207-2.226-.259 1.242-2.899-.621-4.038-1.139-1.19-.518-.673-.052 4.97 6.16z"/><path d="m750.867 212.481c.517-.777 1.397-1.243 2.95-1.501-1.19.155-2.277.258-3.364.414-.311.466-.363.88.414 1.087z"/><path d="m694.491 1113.24c-.207 2.22-.311 4.4-.259 6.57.052 2.18.155 4.3.414 6.37-.155-1.76-.259-3.78-.31-5.95-.052-2.23-.001-4.61.155-6.99z"/><path d="m1155.59 955.242c-1.2.311-2.44.57-3.68.828 1.45-.103 2.74-.362 3.68-.828z"/><path d="m714.215 1154.86c1.346 2.07 3.261 3.83 5.487 5.38.621.05 1.294.16 1.76 0-2.64-1.65-5.073-3.47-7.247-5.38z"/><path d="m448.078 626.156c1.76.207 3.209.31 4.348.362s2.019.052 2.744-.052c1.346-.207 1.915-.621 2.174-1.242.466-1.191-.466-2.796 1.242-3.676 8.646.932 10.406 2.226 10.716 3.365.311 1.191-.828 2.433 1.709 3.986 1.294.207 2.536.363 3.779.518 1.242.155 2.433.207 3.623.362 1.191.156 2.33.259 3.469.311.569.052 1.139.104 1.708.155.57.052 1.087.156 1.657.207 2.174.311 4.296.518 6.264 1.088.983.258 1.967.517 2.899.828.466.155.931.31 1.397.517.466.208.88.415 1.295.622.258.828 1.501 1.708-.415 1.604 1.398.259 2.899.673 4.504 1.243 1.553.621 3.158 1.398 4.866 2.226.207.103.414.207.622.311.207.103.414.258.621.362.414.259.828.466 1.294.725.828.517 1.708.983 2.588 1.553.829.569 1.709 1.139 2.589 1.708.414.311.88.569 1.294.88s.828.621 1.294.932c.88.621 1.708 1.242 2.588 1.863.829.673 1.657 1.295 2.537 1.968.414.31.828.621 1.243.931.414.311.828.673 1.242.984.828.673 1.656 1.294 2.433 1.915.828.622 1.605 1.295 2.381 1.864.777.621 1.605 1.191 2.382 1.76.776.57 1.553 1.139 2.277 1.605.363.259.777.518 1.139.725.363.259.725.466 1.139.725.414.983.518 1.553.466 1.915-.052-2.899 1.139-4.504 2.433-5.125 1.139 1.242 2.381 2.278 3.52 3.313s2.226 1.967 3.21 2.847c1.864 1.812 3.21 3.469 3.002 5.229-1.242-1.657-2.174-2.33-2.95-2.796-.777-.414-1.502-.621-2.433-1.035.88.776 1.76 1.553 2.64 2.329.88.777 1.76 1.554 2.64 2.382.259 1.812-.052 2.278-.673 2.019s-1.553-1.294-2.64-2.433-2.226-2.485-3.313-3.417c-1.036-.88-1.968-1.398-2.485-.984 4.866 4.66 10.146 9.784 14.857 15.117 4.711 5.28 8.749 10.664 11.078 15.426-.466.932-1.553.104-2.899-1.397-.673-.777-1.397-1.709-2.122-2.692-.725-.984-1.501-1.967-2.174-2.951-1.398-1.864-2.589-3.417-3.106-3.676-.518-.258-.311.777.983 4.09-2.588-4.711-5.332-9.37-8.179-13.874 1.449 6.575.052 4.556-1.398 2.485-.725-1.035-1.553-2.071-1.967-2.071-.207 0-.362.259-.414.881-.052.621.052 1.656.311 3.209 1.449 2.123 2.743 4.038 3.934 5.746 1.191 1.709 2.278 3.262 3.313 4.711 2.019 2.847 3.831 5.177 5.591 7.558 3.52 4.763 6.989 9.629 11.906 19.206 4.09 3.261 1.709-2.847 5.798.466 4.556 6.316 7.093 11.078 8.542 14.961 1.501 3.882 1.915 6.885 2.278 9.629.362 2.743.621 5.228 1.76 8.179s3.21 6.315 7.196 10.768c2.588 2.018 5.073 2.95 7.817 5.28 1.345 1.19 2.795 2.692 4.296 4.866 1.553 2.174 3.262 4.97 5.073 8.749-2.174-.829-4.348-1.657-6.522-2.537 3.002 4.607 5.228 7.403 7.04 9.266 1.916 1.812 3.365 2.692 4.815 3.676 1.449.984 2.795 2.019 4.555 4.038.88.983 1.812 2.329 3.003 3.882 1.19 1.605 2.484 3.521 4.037 5.954-.931-.57-2.174-1.605-3.416-2.848-.621-.621-1.294-1.294-1.916-1.967-.621-.673-1.242-1.346-1.76-1.967-2.174-2.588-3.675-4.555-2.899-3.054.777 1.708 1.502 3.158 2.175 4.297.673 1.138 1.346 2.018 1.967 2.743 1.242 1.398 2.277 2.123 3.365 2.692 1.087.57 2.122.984 3.364 1.76.622.414 1.295.932 2.019 1.605.363.362.777.725 1.139 1.191.414.414.88.88 1.346 1.449l-1.087 4.09c1.967 2.174 4.038 4.296 6.109 6.471 1.035 1.087 2.122 2.122 3.209 3.158 1.087 1.035 2.226 2.07 3.313 3.157 1.139 1.036 2.226 2.071 3.365 3.158.57.518 1.139 1.036 1.709 1.553.569.518 1.19 1.036 1.76 1.502 2.381 2.019 4.762 4.037 7.144 6.056.621.518 1.19 1.036 1.812 1.502l.88.776.931.725c1.243.983 2.485 1.967 3.728 2.951 2.485 1.967 4.969 3.934 7.506 5.901 2.588 1.915 5.125 3.779 7.713 5.746 1.295.932 2.537 1.967 3.831 2.899l3.935 2.796c-1.761 0-5.954-1.812-1.812 2.692 1.708 1.139 3.365 2.329 5.073 3.52.828.569 1.708 1.191 2.536 1.812.881.569 1.761 1.139 2.589 1.708 1.76 1.139 3.468 2.33 5.228 3.52.88.621 1.76 1.191 2.641 1.812.88.621 1.708 1.243 2.64 1.812 3.572 2.33 7.144 4.711 10.716 7.092 3.623 2.33 7.247 4.659 10.871 6.989 14.547 9.214 29.248 17.86 43.122 25.314l12.166 2.019c2.536 1.139 4.244 3.21 1.242 2.64 10.871 5.643 1.346-1.553 7.196-.466 6.471 2.382 7.817 5.022 3.416 4.245 2.589.725 5.539 1.398 8.594 2.226 1.553.414 3.158.828 4.762 1.243.829.207 1.657.466 2.485.673.414.103.828.207 1.243.362.414.104.88.207 1.294.311 3.468.88 7.04 1.76 10.664 2.743.932.259 1.812.466 2.744.725.931.207 1.863.466 2.795.673 1.864.466 3.727.932 5.591 1.398s3.727.983 5.539 1.501c1.864.466 3.676.932 5.539 1.398 3.676.932 7.248 1.967 10.716 2.95 6.937 1.864 13.304 3.987 18.585 5.954l-4.504-.104c4.193 1.243 7.61 1.76 10.561 1.967 1.501.052 2.847.104 4.141 0 1.294-.051 2.588-.207 3.779-.31 2.485-.207 4.866-.363 7.662-.104 2.743.311 5.849.88 9.732 2.278h-3.158c18.533 3.986 38.36 6.264 57.1 7.92 18.74 1.709 36.34 2.796 50.831 5.229 1.4-1.087 4.46-1.45 8.24-1.553 3.77-.155 8.38 0 12.89.052 4.5.051 8.9 0 12.26-.414 1.71-.207 3.16-.518 4.25-.984s1.81-1.087 2.12-1.864c5.39.518 9.06.984 12.01 1.398s5.18.725 7.66 1.035c2.49.311 5.28.57 9.32.725 2.02.052 4.35.104 7.15.104 2.79 0 6.05.052 9.83-.104 4.04-.207 6.99-1.449 10.15-2.795 3.16-1.398 6.47-2.951 11.44-3.779l.57 3.158 3.31-1.191 3.26-1.243 6.53-2.433c2.53.984 5.07 1.968 7.66 2.899l9.21-2.019c-3.73.311-8.07-.414-7.61-1.397 3.57-.829 7.61-1.346 11.65-1.76 4.04-.415 8.02-.57 11.65-.622 7.19-.103 12.68.363 12.99 1.191 5.64-1.294 11.29-2.692 16.88-4.038l16.82-4.245c-.52 1.398-6.16 2.796-10.56 4.4 8.85-3.157 9.78-2.484 10.61-1.708.78.725 1.4 1.553 9.48-1.398-2.38-.31.88-2.07 1.14-2.795 4.29.207 11.18-.569 18.68-1.812 3.78-.621 7.67-1.398 11.5-2.226s7.61-1.708 11.02-2.588l-2.22 2.692c25.26-4.401 52.64-11.803 80.65-17.705-10.25 1.139-8.75-3.106-.62-5.177l3.99 2.589c4.86-3.158-8.86.569 1.5-4.245 10.51-1.864 7.81 2.278 2.07 4.607l12.47-3.831c.94.829-1.91 1.967-2.43 3.417 4.76-3.158 22.62-1.346 29.35-6.471l.93.828c13.98-2.899 24.08-5.28 33.5-7.506s18.22-4.297 29.61-6.575c-.1-2.95 8.9-3.986 15.27-7.558 4.25-.517 8.59-.983 13.1-1.449.57-.052 1.14-.104 1.71-.155l.82-.104.73-.052c.98-.051 1.91-.103 2.9-.103 1.91-.052 3.83.052 5.59.259.41.051.88.103 1.29.155l.31.052.16.052c.1.051.15.051.26.103.36.104.67.259 1.03.414.62.311 1.25.621 1.71 1.087.99.932 1.35 2.33 1.14 3.624.21.932.21 1.605.31 2.071s.31.724.62.88c.26.155.62.259.93.466.16.103.26.258.37.517.05.104.1.207.1.415-.05.258-.1.517-.21.88-.67-.208-1.76.517-3.05 1.656-.36.259-.67.57-1.04.88-.36.363-.77.673-1.19 1.035-.77.725-1.55 1.45-2.22 2.071-2.85 2.64-4.66 4.193-2.13-.362-7.45 9.318-12.58 15.064-18.22 21.38-5.64 6.315-11.8 13.304-22.52 24.331 3.21-1.398 6.32-3.572 5.49-1.605-3.83 4.141-10.25 7.61-10.51 6.108l.93-1.19c-5.79 6.419-13.04 12.32-20.81 17.86-1.96 1.397-3.93 2.743-5.95 4.089s-4.04 2.64-6.11 3.935c-2.02 1.294-4.09 2.536-6.21 3.779-2.07 1.242-4.14 2.484-6.21 3.675-8.29 4.866-16.41 9.422-23.76 14.033-3.68 2.27-7.2 4.55-10.36 6.88-3.21 2.33-6.06 4.76-8.64 7.15l1.19-1.04-11.39 8.8-2.85 2.23c-.93.72-1.91 1.45-2.9 2.17l-5.8 4.3c-11.59 6.36 5.8-5.75-3.46-2.18-6.06 4.97-11.86 8.75-17.35 12.12-5.48 3.41-10.76 6.05-15.94 8.64-2.59 1.3-5.13 2.59-7.66 3.83-2.54 1.24-5.13 2.49-7.66 3.83-2.54 1.35-5.13 2.7-7.72 4.25-1.29.77-2.59 1.55-3.93 2.33-1.35.77-2.64 1.6-3.99 2.48-2.64.21-5.59.88-8.8 1.87-1.6.46-3.26 1.08-4.97 1.7-1.71.63-3.52 1.3-5.33 2.08-3.68 1.5-7.51 3.2-11.44 5.07-3.99 1.81-8.08 3.73-12.22 5.69-2.07.99-4.14 1.97-6.21 2.95-2.12.94-4.19 1.92-6.26 2.85-4.2 1.86-8.34 3.68-12.38 5.38-4.09 1.61-8.02 3.06-11.8 4.25s-7.35 2.23-10.66 2.74l2.07 1.19c-5.8 4.09-8.18 1.92-13.05 3.32 1.14 1.08 7.56-1.04 3.88 1.39-13.46 5.65-27.43 10.57-41.67 15.02l-2.69.83-2.69.77c-1.81.52-3.63 1.04-5.39 1.56-3.62 1.03-7.24 2.01-10.87 3.05-3.62.93-7.3 1.86-10.97 2.8-1.81.46-3.68.93-5.49 1.39-1.81.47-3.67.93-5.54 1.35-29.45 6.88-59.43 12.01-88.832 16.46-2.692.42-4.866.93-6.678 1.5-1.812.52-3.261 1.09-4.503 1.71-2.434 1.19-3.987 2.54-5.695 3.78s-3.675 2.38-6.885 3.26c-3.261.83-7.817 1.24-14.805 1.19l7.247-4.5c-2.692.62-5.384 1.24-8.076 1.86-1.346.31-2.692.57-4.089.88l-2.019.42-2.071.36c-5.487.98-10.975 1.81-16.514 2.64-5.539.72-11.13 1.34-16.669 1.97l-4.193.46-4.193.36c-2.796.21-5.591.47-8.387.68-22.363 1.7-44.572 2.58-66.107 4.66 2.537-.83 2.64-1.87 6.833-1.97-2.277-.57-5.539-.78-9.111-.83-3.572-.1-7.506.05-11.13.36-7.299.62-13.459 1.56-13.563 2.59-6.73-.36-1.553-1.86-5.643-2.95-2.277-.41-4.866-.41-7.506-.26-2.64.1-5.384.36-7.972.62-5.229.47-9.888.83-12.269-.46-.828-.42 2.588-.73 4.297-.83-1.502.26-4.038.31-6.678.21-2.692-.11-5.695-.26-8.335-.42-2.64-.15-4.866-.26-6.16-.1-1.294.15-1.605.57-.363 1.4-7.609-1.56-14.805-2.44-21.431-3.84-6.575-1.34-12.58-3.31-17.239-6.47-1.967-.1-4.245-.93-6.471-2.22-2.226-1.3-4.348-3-6.212-4.76-.466-.42-.88-.88-1.346-1.3-.207-.21-.466-.41-.621-.62-.207-.21-.414-.41-.621-.62-.415-.42-.829-.78-1.191-1.14s-.725-.73-1.087-1.04c-1.398-1.24-2.64-2.01-3.883-1.81.518-.26.777-.77.777-1.5 0-.36-.052-.72-.156-1.19-.103-.47-.207-.93-.414-1.5-.673-2.12-1.863-4.87-2.95-8.02-1.088-3.11-2.071-6.63-2.848-10-.724-3.36-1.294-6.57-1.76-8.8.673 1.5 1.087-.41 1.605-2.22s1.242-3.57 2.019-1.76c.362-4.92 1.035-9.79 1.346-13.31.103-.88.103-1.65.103-2.33 0-.67-.051-1.24-.103-1.7-.207-.88-.621-1.3-1.294-.99 1.346-2.22 2.536-4.45 3.572-6.68 1.087-2.22 2.019-4.5 2.899-6.78s1.76-4.55 2.536-6.83c.88-2.28 1.709-4.56 2.537-6.73.776-2.23 1.708-4.3 2.588-6.32.466-.98.88-1.96 1.346-2.9.259-.46.466-.93.725-1.34.259-.47.518-.88.776-1.3 2.123-3.36 4.453-6.1 7.559-7.66.983-1.86 1.915-3.72 2.899-5.59 1.035-1.81 2.019-3.67 3.054-5.49.518-.93.983-1.81 1.553-2.69.518-.88 1.087-1.76 1.605-2.69 1.087-1.76 2.122-3.57 3.209-5.28 1.087-1.76 2.226-3.47 3.313-5.18.57-.88 1.087-1.7 1.657-2.58.569-.83 1.139-1.71 1.708-2.54 1.139-1.71 2.278-3.37 3.417-5.02 1.191-1.66 2.329-3.32 3.52-4.97 9.422-13.152 19.465-25.421 29.663-37.327.673.984-.466 3.106-2.433 5.746s-4.763 5.85-7.455 9.008c-5.435 6.315-10.405 12.476-8.127 13.563 8.749-11.803 15.582-21.38 22.726-30.698s14.754-18.326 25.418-28.628c5.798-5.073-1.553 4.556-2.796 6.989 19.31-22.882 40.534-41.207 57.411-61.966.258.362-1.398 2.744-3.055 4.918 3.572-3.831 9.06-8.231 7.144-9.318l-3.158 4.038c-8.075 3.83 10.043-19.413 9.526-21.225-1.916 10.612 19.516-17.756 15.116-2.226 2.122-2.744 4.452-6.575 2.899-6.989 3.882-3.365 5.591-3.986 3.158.88 12.32-14.288 6.056-11.078 17.963-23.295.673.776-1.398 3.52-1.76 5.643 2.278-3.779 4.607-7.61 7.61-11.7 3.054-4.089 6.833-8.438 12.165-13.356-.155 1.035 1.605.414-1.398 3.52 8.438-9.059 14.754-17.704 21.432-26.349 3.313-4.349 6.73-8.646 10.561-13.149 1.915-2.226 3.934-4.452 6.056-6.73 2.123-2.278 4.401-4.608 6.885-6.989-2.07 8.956 7.3-5.85 11.131-4.4 2.95-3.934 5.953-7.817 8.904-11.751-1.761 1.087-3.521 2.122-5.281 3.158 4.297-4.763 7.714-9.836 11.182-14.547 3.366-4.763 6.726-9.267 10.766-13.046l-4.97 8.283c5.08-6.212 9.99-12.579 14.96-18.895l-9.88 9.525c6.78-11.233-4.61-2.07 7.09-14.495-.93 1.45 1.08-.983 4.09-4.296 1.5-1.657 3.26-3.521 5.02-5.177 1.76-1.657 3.47-3.21 4.97-4.193 0 0-.05.051 0 .051 1.5-2.847 3-5.798 4.97-8.8 1.97-3.054 4.29-6.264 7.61-9.732 2.48-1.191 2.17 4.193 3.83 3.416.67-3.468 5.02-9.628 9.42-15.944 1.14-1.553 2.23-3.21 3.26-4.763 1.04-1.605 2.02-3.158 2.9-4.607 1.76-3.003 3.16-5.643 3.57-7.817-.88 2.64.68 3.934 1.56 3.468l.88-5.849c4.09-4.4 4.97-4.866 5.69-3.158 1.35-1.812 2.23-3.106 2.8-4.09.56-.983.77-1.604.77-1.967 0-.776-.77-.569-1.5-.466-1.4.259-2.43.259 4.4-7.92-.78 1.501 0 1.035-1.6 4.141 1.6-2.122 3.15-4.297 4.66-6.419 1.5-2.174 2.89-4.348 4.29-6.574 1.4-2.175 2.75-4.401 4.04-6.575l.98-1.657.94-1.656c.62-1.087 1.24-2.226 1.91-3.313 2.54-4.4 5.02-8.697 7.51-12.994 1.24-2.122 2.53-4.245 3.83-6.367.67-1.036 1.29-2.071 2.02-3.106.67-1.036 1.34-2.071 2.02-3.106 1.55-.777 1.86-.207 1.5 1.035-.37 1.242-1.3 3.158-2.33 4.97-2.02 3.675-4.04 7.247-.93 5.228 3.57-6.16 6.78-12.683 9.99-19.206 3.21-6.574 6.21-13.304 9.11-20.085 5.8-13.512 11.13-27.023 16.46-39.758-.78 1.553-1.5 3.106-2.28 4.659-1.81-2.795.68-7.247 3.78-12.942 3.16-5.642 6.83-12.631 7.46-19.775-.52 3.417 1.7 5.177 1.39 4.141 1.5-4.555 2.8-9.214 3.83-14.184 1.04-4.918 1.76-10.146 2.33-15.634 1.04-11.026 1.3-23.45-.1-37.945l1.55 3.572c.52-5.695.26-13.253-.72-20.863-.99-7.61-2.59-15.219-4.04-21.328-.57-.776-1.14-1.812-1.66-2.795-.51-.984-1.03-1.968-1.45-2.744-.88-1.501-1.5-1.967-1.81.362-.52-4.762-1.5-9.421-2.95-13.873-.36-1.139-.72-2.226-1.14-3.314-.41-1.087-.83-2.174-1.24-3.209-.93-2.123-1.86-4.193-2.95-6.212-4.19-8.128-9.53-15.375-15.17-22.053-2.85-3.313-5.74-6.523-8.69-9.629-1.45-1.553-2.96-3.054-4.46-4.607-1.5-1.502-2.95-3.055-4.45-4.556-5.9-6.005-11.59-12.062-16.98-18.636 3.11 2.536 8.03 5.332 5.64 3.209-3.72-3.002-7.55-5.849-11.44-8.593-3.88-2.744-7.87-5.332-11.9-7.817.46 3.261 2.27 3.261 5.95 8.283-1.86-.466-4.5-1.657-7.45-3.158-2.96-1.501-6.16-3.261-9.06-5.073 1.39.673 2.53 1.139 3.36 1.398.83.258 1.35.362 1.71.31.67-.103.47-.828-.26-1.863-.72-.984-1.91-2.33-3.16-3.624-1.29-1.294-2.64-2.589-3.67-3.572.41 1.087-1.61.828-1.61 1.708-5.33-5.435-6.47-4.711-8.23-4.141-.88.31-1.97.569-3.78.052-.93-.259-2.02-.725-3.41-1.502-.73-.362-1.45-.828-2.33-1.397-.88-.518-1.82-1.088-2.85-1.812l1.5-.673c-1.76-.673-3.52-1.243-5.23-1.812l-1.29-.414-1.3-.363c-.88-.259-1.76-.517-2.64-.776-1.76-.518-3.52-1.087-5.28-1.709-1.81-.569-3.57-1.294-5.38-2.07-2.07-3.779 7.82 1.708 9.16-.104-2.59-1.139-5.38-1.812-8.13-2.433-1.39-.31-2.74-.569-4.14-.828-1.39-.259-2.74-.466-4.09-.725-1.34-.259-2.69-.518-3.98-.828-1.3-.311-2.59-.57-3.89-.984-1.24-.362-2.48-.828-3.67-1.346-1.19-.517-2.33-1.139-3.469-1.863 4.759.724 11.339 2.899 16.049 3.882-1.19-.88-2.23-1.605-3.16-2.278s-1.81-1.242-2.64-1.708c-1.6-.932-2.95-1.605-4.19-2.174-1.3-.57-2.49-1.035-3.89-1.501-1.39-.466-2.946-.984-4.913-1.709l.777.311-4.504-1.76-4.556-1.657-4.555-1.656-4.556-1.553 4.556 2.07c-3.935.88-7.61.932-11.286.622-1.863-.156-3.675-.415-5.539-.725-.932-.155-1.863-.363-2.795-.57s-1.864-.362-2.847-.569c-1.916-.414-3.831-.828-5.85-1.242-1.967-.415-4.038-.725-6.161-1.036-4.193-.621-8.697-.828-13.563-.466 9.422-.621 10.302-1.139 9.06-1.863-1.243-.725-4.659-1.605-3.676-3.055-1.19-.414-2.485-.88-3.779-1.346s-2.536-.88-3.624-1.294c-2.122-.776-3.365-1.449-2.226-1.708-4.659.518-8.282-.466-12.424-1.398-4.141-.88-8.8-1.656-15.323-.621-.207-.518-2.588-.88-4.659-1.294s-3.779-.984-2.588-2.175c-11.752-.362 2.588 2.019 1.449 3.158-4.556.414-9.473.104-14.65-.569-5.177-.621-10.664-1.45-16.411-2.381-.724-.104-1.449-.208-2.174-.311-.725-.104-1.449-.207-2.174-.259-1.45-.155-2.951-.362-4.452-.518-3.003-.31-6.057-.569-9.163-.724-1.553-.104-3.106-.104-4.711-.104-1.553 0-3.158.052-4.762.104-3.21.155-6.42.466-9.681.932-5.591.414-10.043.983-13.874 1.553-1.915.31-3.675.569-5.383.931-1.709.363-3.314.725-4.867 1.036-3.209.724-6.315 1.397-9.939 2.019-1.812.31-3.727.673-5.85.983-2.122.363-4.4.673-6.988.984-3.521-.673-2.123-1.657.155-2.433 2.278-.829 5.436-1.45 5.436-1.45-2.796-.259-5.488-.414-8.024-.517-1.295-.052-2.537-.052-3.779-.052-1.243 0-2.434.103-3.676.155-4.814.311-9.577.984-14.806 1.864 2.071-1.036-.155-1.657-3.468-2.485-4.245.466-5.591 1.501-7.299 2.381-.828.414-1.76.777-3.21 1.036-1.449.258-3.365.31-6.16.258.88-.673 1.915-1.501 3.209-2.381 1.295-.828 2.899-1.708 4.867-2.433-1.243.207-2.485.466-3.728.725-1.242.259-2.484.517-3.727.828-2.485.569-4.918 1.191-7.403 1.812s-4.969 1.242-7.454 1.812c-2.485.621-5.022 1.242-7.558 1.812-1.502-.673 0-1.553 2.278-2.433 1.138-.466 2.484-.881 3.779-1.346 1.294-.415 2.484-.829 3.364-1.191-2.899.466-6.212 1.139-9.577 1.812-3.416.673-6.885 1.398-10.094 2.122-6.419 1.605-11.752 3.365-13.305 4.97l7.559-.155c-4.194.776-2.537-2.019.517-3.003 4.763-1.863 8.438-2.019 10.923-1.708 2.485.31 3.883 1.19 4.193 1.656l-7.247 1.605c2.071 1.243 4.918 1.553 8.283 1.294 1.656-.103 3.468-.362 5.384-.724 1.863-.363 3.882-.725 5.901-1.191 4.09-.88 8.386-2.019 12.58-2.951 4.193-.88 8.334-1.553 12.061-1.812l-5.798 4.815 7.403-2.433 3.727-1.191 3.728-1.139c3.313.932 5.642 3.21-1.605 4.297 5.384.725 7.662.207 9.784-.259 1.087-.259 2.071-.466 3.417-.518.673-.051 1.397 0 2.277.052.88.104 1.864.259 3.003.518 1.035.31.569.569-.362.776l10.301-1.656c-2.019.983 1.812 2.95-4.555 2.588 2.329.207 4.504.311 6.626.311 1.035 0 2.071 0 3.054-.052.984 0 1.967-.052 2.899-.104 3.779-.207 7.144-.621 10.147-1.035 1.501-.207 2.899-.414 4.245-.569 1.346-.156 2.588-.207 3.727-.207 2.33 0 4.348.258 6.109 1.087l-1.553.258c6.419-.31 9.784-.673 11.544-1.035s1.863-.828 1.812-1.346c-.156-1.087-1.139-2.485 8.645-4.038 2.122 1.398 4.245 2.692 6.367 4.142l6.316 4.245 2.692-3.003c2.64.259 7.868.777 6.833 1.967 9.991-1.397-1.605-1.501 4.297-3.106 3.158.984 6.937 1.553 10.871 1.916 3.934.362 8.024.724 11.803 1.087 3.779.362 7.247.673 9.888 1.397 2.64.673 4.503 1.605 5.073 2.951 4.866-1.812-11.907-3.313 1.812-3.313 1.604 2.951 5.539 3.158 10.508 3.21 2.485.051 5.229.051 8.024.259 2.796.258 5.695.776 8.49 1.863-3.986 2.226-14.598-.932-3.52 3.313 1.916-.88 4.245-1.087 6.833-.776 1.295.155 2.641.414 4.038.725 1.398.31 2.848.724 4.245 1.19 2.899.932 5.85 1.967 8.645 2.899 2.796.932 5.488 1.708 7.921 1.967.311-.88 1.76-1.139 4.09-.983 2.277.155 5.435.724 8.955 1.656 1.76.414 3.676.88 5.643 1.398s3.986 1.087 6.057 1.657c1.035.258 2.071.569 3.106.828 1.035.31 2.071.569 3.106.88 2.071.569 4.141 1.087 6.16 1.553-.362.207 1.299 1.087 4.089 2.278.73.31 1.5.621 2.33.983.41.156.88.363 1.29.57.47.207.94.414 1.4.621 1.92.828 4.04 1.76 6.27 2.692 1.14.466 2.22 1.035 3.41 1.553 1.14.518 2.33 1.087 3.47 1.605 2.38 1.035 4.66 2.226 6.94 3.416 1.14.57 2.22 1.139 3.36 1.709 1.09.569 2.13 1.19 3.16 1.708 2.02 1.139 3.88 2.174 5.49 3.158l-.67.362c1.08-.517 2.69-.414 4.76.104 1.03.259 2.12.621 3.31 1.087.57.207 1.19.466 1.81.725.62.258 1.25.569 1.92.88 1.29.621 2.64 1.294 3.98 1.967.68.362 1.35.725 2.08 1.087.67.362 1.34.776 2.01 1.139.68.362 1.35.776 2.02 1.139.68.414 1.35.776 2.02 1.139 1.35.776 2.64 1.501 3.88 2.226-1.6 1.656-3.77 1.242-9.52-1.036 3 1.812 5.95 3.728 8.9 5.643 2.75.414 5.85 1.708 11.65 5.487l-3.83.673c5.64 4.09 11.65 7.921 17.6 12.58 1.5 1.139 2.95 2.433 4.5 3.675.73.673 1.45 1.346 2.23 2.019.73.673 1.45 1.398 2.18 2.123 2.89 2.899 5.64 6.212 8.23 9.887 1.34-.466.36-4.4.77-6.574.21-1.087.73-1.76 2.18-1.243.72.259 1.6.777 2.84 1.657 1.19.932 2.64 2.226 4.4 3.986-.31.725-.82 1.657-1.76 1.915-.88.259-2.17-.103-4.03-1.915 1.24 1.139 4.76 3.831 6.31 6.937-1.08-.828-2.22-1.553-3.36-2.33-1.14-.776-2.23-1.501-3.37-2.226 4.4 7.144 4.35 2.123 8.23 7.61-1.7 1.087 1.71 4.866-.2 5.022-.57-.622-1.25-1.916-2.02-3.262-.83-1.346-1.76-2.692-2.85-3.468 1.04 1.553 2.12 3.158 3.11 4.866.46.828.98 1.657 1.39 2.537.42.828.83 1.656 1.25 2.485.77 1.604 1.39 3.157 1.81 4.452.46 1.294.72 2.433.77 3.261.32-.57.94-.932 1.82-.57.88.363 2.07 1.398 3.52 3.728 3.47 6.108 3.36 7.506 2.9 8.282-.26.363-.57.622-.73 1.243-.15.621 0 1.605.57 3.52.67.621 1.35 1.605 1.97 2.744s1.19 2.433 1.81 3.624c1.14 2.381 2.33 4.348 3.78 3.934 1.4 3.831.21 5.021-.1 6.781.2.415.46.88.67 1.398.26.518.46 1.139.72 1.76.47 1.294 1.04 2.796 1.5 4.4.26.777.47 1.605.73 2.434.21.828.41 1.708.67 2.536.21.828.42 1.709.67 2.537.21.828.37 1.656.57 2.433.78 3.158 1.35 5.85 1.92 7.247.57 1.398 1.14 1.45 1.66-.673l-.06-1.863c.11.362.16.724.31 1.139 0-.052 0 0 0-.052v.052c1.56 5.849 2.39 11.958 2.49 18.17.16 6.212-.36 12.476-1.19 18.688s-2.07 12.321-3.37 18.378c-1.29 6.056-2.64 12.01-3.88 17.859l-.98-.31c-1.24 7.04-3.42 14.754-5.59 21.898-2.18 7.143-4.35 13.821-5.33 18.998-.83 1.967-2.23 4.09-3.53 5.488-1.29 1.346-2.38 1.967-2.58.88-.94 2.588-1.61 4.607-2.28 6.419-.62 1.812-1.19 3.416-1.92 5.125-.72 1.708-1.55 3.468-2.79 5.694-.62 1.087-1.3 2.33-2.18 3.676-.82 1.346-1.76 2.847-2.9 4.504 1.76-5.333.94-4.66.63-4.349-.16.155-.21.259.2-.569.47-.777 1.35-2.485 3.11-5.798-3.52 6.212-6.16 9.784-8.39 13.666-1.14 1.916-2.17 3.986-3.31 6.419-.57 1.243-1.09 2.589-1.71 4.038-.62 1.502-1.19 3.106-1.86 4.97.15-2.899-1.92-.984-4.35 2.433-1.24 1.708-2.49 3.831-3.73 5.85-1.19 2.019-2.28 4.038-3 5.591l3.36-3.831 1.71-1.915 1.66-1.916c-.88 1.708-1.76 3.313-2.69 4.918-.93 1.553-1.81 3.106-2.75 4.556-1.81 2.95-3.62 5.798-5.54 8.645l-.98-4.918c-2.38 2.847-4.5 5.694-6.42 8.593-.98 1.45-1.86 2.899-2.74 4.349-.88 1.449-1.76 2.899-2.59 4.348-1.66 2.899-3.21 5.798-4.66 8.645-1.5 2.848-2.95 5.643-4.4 8.387-.72 1.397-1.45 2.743-2.17 4.089-.73 1.346-1.45 2.692-2.23 3.987-1.5 2.588-3.05 5.073-4.76 7.454-.83 1.191-1.71 2.33-2.59 3.468-.88 1.139-1.86 2.175-2.85 3.262-1.97 2.071-4.09 3.986-6.47 5.746-2.64 7.713 10.72-11.907 8.96-4.607-2.07 2.692-4.4 5.177-6.78 7.558-1.2 1.19-2.39 2.278-3.58 3.365-1.19 1.035-2.33 2.07-3.47 3.002-2.22 1.916-4.29 3.572-5.95 4.97s-2.95 2.537-3.57 3.365c-3.21 3.365-5.23 6.057-6.63 8.49-1.45 2.433-2.27 4.503-3.15 6.678-1.71 4.296-3.42 8.748-10.1 15.841 1.24-.57 2.9-.777 3.16.621.15.725-.05 1.812-.83 3.52s-2.02 3.986-4.19 6.937c-9.114 10.146-14.653 9.473-9.942 2.278 2.022-2.537 3.312-3.521 3.522-3.158 2.48-3.624 5.74-8.387 1.29-5.125l-.15 2.122c-2.64 2.174-6.888 6.885-10.409 10.406-3.52 3.52-6.16 5.901-5.539 3.623-5.746 8.542-1.294 4.659 4.09-.724-3.158 3.002-5.85 5.797-8.283 8.489-2.485 2.692-4.711 5.229-6.937 7.869-2.226 2.588-4.503 5.177-6.988 7.972-2.485 2.744-5.177 5.643-8.438 8.749 2.433-1.657 5.228-2.64 3.313-.569-9.37 9.214-10.871 11.751-11.493 13.666-.621 1.916-.362 3.21-6.16 9.991-8.283 6.161-.777-5.694-11.855 8.49-8.438 7.144-3.934-.517-1.708-4.4-2.33 3.417-4.918 6.419-7.506 9.111-2.641 2.692-5.281 5.125-7.869 7.351-5.229 4.4-10.043 7.869-13.408 11.078l5.229-6.885c-3.106 4.142-6.057 7.144-9.06 10.25l5.177-1.863c-3.831 3.365-6.782 6.419-7.454 5.642-2.434 4.866 5.694-.051.103 8.956-2.795 1.967-6.109 5.902-9.266 9.267-3.158 3.364-6.057 6.108-8.076 5.797 15.582-14.443-3.986-.621 8.179-13.821-2.122 2.743-5.073 5.798-8.956 9.111-.776.31 0-.984.829-2.123-16.255 12.476-3.883 9.267-18.688 24.279.569-3.209-5.902 1.036-8.024 3.779 5.953-6.057 5.021-.776.569 5.798-10.509 8.645-9.525 11.234-14.598 16.152l6.16-5.281c-.621 3.262-5.539 7.921-11.7 15.013-1.604-.414 5.281-6.782 2.485-4.866-5.021 9.732-18.947 14.546-27.592 26.557-5.591 3.986-2.951-1.916-7.661 1.76-4.867 6.729-8.387 9.473-12.01 12.269-3.624 2.795-7.403 5.642-12.632 12.579 5.229-1.915 5.384-2.951-1.242 7.506 6.108-7.247 12.165-14.495 18.325-21.69-3.364 5.177-6.678 10.405-9.991 15.582 5.902-6.16 11.389-14.081 15.22-17.498-4.556 7.662-4.4 6.575-.052 5.022-5.384 2.951-9.007 7.454-12.683 12.321-1.812 2.433-3.675 4.917-5.746 7.299-2.071 2.381-4.4 4.711-7.144 6.73l-4.193-4.504c-7.972 6.523-13.615 13.718-19.517 21.742-5.901 8.024-12.061 16.721-21.069 26.712l3.106-3.054 3.158-2.951c-.104 1.087-.777 2.433-1.864 3.935-1.035 1.553-2.433 3.261-3.934 5.125-.776.931-1.553 1.863-2.33 2.795-.776.984-1.553 1.97-2.329 2.95-1.501 1.97-3.003 3.94-4.09 5.8-1.139-1.86-4.969 2.07-8.231 4.35.725.26-2.122 4.29-4.918 8.85-2.692 4.61-5.332 9.68-4.193 11.85l-4.297 4.46c-.724.72-1.449 1.5-2.122 2.27l-2.071 2.28c-3.002 4.61-4.762 8.6-6.108 12.06-.156.47-.311.88-.466 1.3-.156.41-.259.88-.363 1.29-.258.83-.465 1.66-.673 2.49-.414 1.6-.724 3.15-1.087 4.71-.673 3.1-1.19 6.21-2.07 9.73s-2.019 7.51-3.779 12.53c-.104-3.37-1.191-2.9-1.968-3.32-.362-.2-.621-.67-.621-1.91 0-1.29.363-3.42 1.294-6.94-1.346 3.37-2.536 6.63-3.261 9.11-.725 2.49-.932 4.2-.259 4.4-1.19 1.87-1.915 6.99-2.278 12.43-.207 2.74-.31 5.49-.517 8.02-.104 1.3-.207 2.49-.363 3.57-.155 1.09-.362 2.07-.621 2.95.207.78.466 1.45.777 2.13.31.67.673 1.34.983 2.17.673 1.66 1.191 3.94 1.553 8.08-.31.93-.983.1-.983.1.517-.05 1.242 3.16 2.226 5.33.466 1.09.983 1.92 1.397 2.02.208.05.363-.1.518-.46.155-.37.259-.99.362-1.92-.207 2.85.001 6.01.673 9.27.725 3.26 1.968 6.67 3.728 9.99 1.76 3.31 3.934 6.52 6.522 9.47 2.589 2.95 5.488 5.64 8.594 8.03 6.212 4.76 13.045 8.17 19.257 10.97 6.264 2.8 11.907 5.02 16.255 7.45 7.714 1.56 16.255 2.54 24.486 3.11s16.307.78 23.037.88c-.88.57-.103 1.04-2.64.73 9.37 1.29 12.269-.06 15.53-1.4 3.262-1.35 6.782-2.75 17.394-1.5 10.871 3.46-11.337 1.6-4.555 2.95 1.449 3.36 7.92 3.31 15.789 2.64 3.934-.31 8.231-.73 12.476-.78 4.193-.15 8.334 0 11.958.88l-3.468.47c5.539.98 12.268.26 19.827-.99 3.779-.62 7.765-1.24 11.906-1.81s8.49-1.09 12.994-1.24c0 0-.829.67-.052 1.03 1.501-.51 3.21-1.03 5.021-1.5.932-.26 1.864-.46 2.848-.72.983-.26 1.967-.47 3.002-.73 4.09-.93 8.645-1.81 13.356-2.64 1.191-.2 2.33-.41 3.52-.62 1.191-.2 2.382-.41 3.572-.62 2.382-.41 4.763-.83 7.144-1.24 4.711-.83 9.37-1.45 13.615-2.28-2.485 1.66-4.4 2.23-5.228 2.64-.829.47-.622.78 1.19 1.92 7.662-1.3-2.743-3.99 12.476-6.63 1.294.21 2.951.36 4.763.47 1.812.15 3.727.31 5.591.46 3.675.31 6.937.88 7.868 2.23-4.814.72-9.628 1.55-14.443 2.12 1.967.67 4.142.88 6.368.73 2.226-.16 4.555-.63 6.885-1.14 4.659-1.09 9.266-2.54 13.097-2.8l-.725 1.76c22.049-4.14 21.639-8.13 45.249-12.48l-2.7-.72c6.01-3.31 8.8-3.26 11.65-3.16 1.4.05 2.85.16 4.66-.1 1.81-.31 4.04-.98 7.09-2.43l4.77 3.1c2.07-.72 4.86-1.76 8.18-2.9 3.31-1.24 7.09-2.69 11.02-4.14 7.97-2.85 16.67-6.26 24.07-8.59-3.83 2.59-10.04 5.43-16.61 8.18-6.58 2.64-13.57 5.23-18.85 7.4 4.2-.98 11.29-2.85 17.81-4.76.83-.26 1.61-.52 2.43-.73.78-.26 1.56-.52 2.33-.77 1.5-.52 2.9-1.04 4.14-1.56 2.54-.98 4.51-1.91 5.44-2.69-3.26 1.3-7.2 3.37-10.66 3.62 4.71-2.89 10.25-5.64 16.72-8.17 3.21-1.3 6.62-2.64 10.3-3.89 1.81-.62 3.73-1.24 5.64-1.86 1.97-.57 3.94-1.19 5.95-1.81-.15 2.12 2.49 2.48 6.68 1.86 2.13-.31 4.66-.88 7.41-1.55 1.39-.36 2.84-.73 4.34-1.14 1.51-.41 3.01-.93 4.61-1.4 3.11-.98 6.37-1.97 9.58-2.95 1.6-.47 3.21-.93 4.76-1.4 1.55-.46 3.11-.93 4.61-1.29 5.95-1.66 11.23-2.69 14.7-2.28 1.71-.78 3.47-1.6 5.18-2.38s3.47-1.55 5.23-2.28c3.46-1.5 7.04-2.9 10.56-4.24 3.52-1.4 7.09-2.8 10.71-4.14 3.63-1.35 7.3-2.59 10.98-3.99 3.67-1.35 7.4-2.74 11.18-4.14 1.86-.73 3.78-1.4 5.69-2.12 1.92-.78 3.78-1.51 5.7-2.28 3.83-1.56 7.71-3.16 11.65-4.82 3.88-1.7 7.81-3.57 11.85-5.48-13.98-.26 9.27-4.51 4.61-9.32 7.19-3.99 10.04-5.28 10.87-5.23 8.02-2.43 15.94-5.23 23.92-7.92 6.1-1.09-6.32 4.81-4.97 5.75 8.12-3.94 10.14-4.2 11.54-4.04 1.4.2 2.17.88 7.82-1.25-1.61-.41-.62-1.86 1.96-3.77 2.59-1.87 6.79-4.15 11.44-6.37-4.65 1.6-9.42 3-14.13 4.45 2.59-1.86 4.82-3.36 6.89-4.56 2.02-1.19 3.83-2.22 5.48-2.95 3.32-1.55 6.01-2.33 8.7-3.1 2.69-.78 5.49-1.5 8.75-3.16 3.31-1.6 7.2-4.04 12.22-8.02l-5.9 5.85c1.34-.99 3-2.07 4.86-3.32 1.87-1.24 3.99-2.53 6.21-4.03 4.46-2.96 9.53-6.22 14.5-9.63 4.92-3.47 9.78-7.1 13.87-10.46 1.04-.83 2.02-1.71 2.95-2.54s1.76-1.65 2.54-2.48c1.6-1.61 2.9-3.16 3.88-4.56 2.33-.67 5.8-.98 1.35 2.64 13.2-8.44 26.61-19.82 39.03-30.851 12.48-11.027 23.81-21.898 33.91-29.094-.21.932-.47 1.864-.73 2.744 2.02-2.174 3.37-4.504 5.08-6.73s3.62-4.452 6.78-6.471c.15.725-.62 2.796 1.4.932.46-.621 1.29-1.76 2.33-3.209 1.03-1.45 2.27-3.158 3.67-4.97.67-.88 1.4-1.812 2.18-2.744.72-.932 1.5-1.863 2.22-2.743 1.5-1.76 3.06-3.417 4.56-4.711l-3.26 6.108c2.79-2.692 5.38-5.28 7.66-7.92 2.33-2.64 4.45-5.177 6.31-7.713.94-1.295 1.87-2.537 2.75-3.779.41-.622.88-1.243 1.29-1.864.47-.673.93-1.398 1.35-2.123.46-.673.88-1.449 1.34-2.174.21-.362.42-.776.62-1.139.11-.207.21-.362.31-.569l.06-.155c0-.052.05-.104.1-.156l.26-.414c.31-.569.57-1.087.83-1.605.26-.517.46-1.035.72-1.605.26-.517.42-1.087.62-1.604l.31-.777c.11-.259.16-.518.26-.828 1.45-4.245 1.87-8.593 1.25-12.683l-.32-1.501c-.1-.518-.25-.984-.41-1.502l-.21-.724-.26-.725c-.2-.466-.36-.984-.56-1.45-.83-1.863-1.92-3.623-3.27-5.176-2.64-3.158-6.26-5.436-10.25-6.886-2.02-.724-4.14-1.242-6.31-1.553-1.09-.155-2.23-.258-3.32-.362-.56-.052-1.13-.052-1.65-.103-.47 0-.93 0-1.4-.052.1-1.139-1.66-2.226-4.55-2.899-1.45-.363-3.16-.57-5.08-.725-.93-.052-1.97-.104-3-.052-1.04 0-2.17.052-3.05.104-3.73.155-7.87.466-11.76.88-3.88.362-7.61.88-10.56 1.191l.31-.725c-17.39 2.951-31.88 6.781-45.91 10.923-14.08 4.141-27.7 8.541-43.39 12.786-20.75-.673-67.14 12.269-99.34 15.841 5.02-.155-.1 3.624-5.64 5.229-3.78.259-8.8 2.07-12.79 3.261-3.98 1.139-6.99 1.708-6.78-.466l2.64-.414c-6.37-2.951-21.43 1.035-33.34 3.003l-1.03 5.746c-16.31-1.139-36.6 2.899-55.24 6.367-2.33.414-4.6.88-6.88 1.294-2.28.363-4.51.777-6.68 1.139-2.17.363-4.3.673-6.37.984-2.07.31-4.04.518-5.95.725-3.83.414-7.35.621-10.51.569s-5.85-.414-8.08-1.087c-1.86.518-3.83.983-5.85 1.398-2.01.414-4.14.776-6.26 1.139-4.19.724-8.39 1.449-12.11 2.381l.15-2.951c-10.51.466-18.38.673-26.87 1.035-4.24.156-8.64.363-13.56.57-2.48.103-5.07.207-7.92.362-1.4.052-2.85.156-4.35.207-1.5.052-3.05.104-4.66.156 1.76-.725 3.52-1.398 5.23-2.175-3.62.052-6.62.518-9.21 1.346-2.64.829-4.87 1.916-7.15 3.003-2.22 1.035-4.45 2.122-6.93 2.951-1.25.414-2.59.724-3.99.983-1.45.259-3 .414-4.66.363l-3.93-4.504c-3.161-.104-6.37-.207-9.58-.466-3.158-.259-6.367-.57-9.525-.88-1.605-.156-3.158-.311-4.763-.518l-4.762-.621c-3.158-.362-6.316-.777-9.525-1.139-3.158-.414-6.316-.828-9.474-1.191-1.605-.155-3.158-.31-4.762-.466-1.554-.155-3.158-.362-4.711-.465-3.158-.311-6.316-.518-9.474-.622-3.158-.207-6.315-.258-9.525-.258.518-.57 1.449-1.709 5.539-1.295-1.449-.207-3.313-.569-5.332-.931-1.035-.208-2.071-.415-3.21-.622-.569-.103-1.138-.207-1.708-.31-.569-.104-1.139-.259-1.76-.363-2.381-.517-4.814-1.035-7.299-1.501-2.485-.518-4.918-.932-7.248-1.398-4.659-.931-8.852-1.553-11.699-1.501-2.847 0-4.349.621-3.572 2.33.155-.984-1.398-1.864-3.986-2.641-1.294-.362-2.847-.776-4.608-1.087-.88-.155-1.811-.362-2.743-.517-.932-.156-1.916-.363-2.951-.518-2.019-.362-4.193-.673-6.367-.984-1.088-.155-2.175-.31-3.314-.465-1.087-.156-2.226-.311-3.313-.466-4.348-.673-8.541-1.295-11.958-1.812l2.847-2.175c-1.501.052-2.847.104-4.089.156-1.191.052-2.278.052-3.313.052-2.019.051-3.728.051-5.591-.104-1.812-.155-3.779-.362-6.264-.828-2.485-.518-5.488-1.243-9.422-2.33-3.52-1.605-2.433-3.261 2.174-.932-1.449-.673-2.692-1.242-3.831-1.604-1.087-.415-2.07-.673-2.95-.932-1.709-.466-3.106-.621-4.556-.777-1.449-.155-3.002-.362-5.021-.983-1.036-.311-2.175-.673-3.52-1.243-1.346-.569-2.848-1.294-4.556-2.174 2.019.155 4.038.311 6.057.414-6.109-2.536-8.956-3.52-11.286-3.934-1.138-.207-2.174-.259-3.364-.311-1.191-.103-2.537-.207-4.453-.414-4.037-1.139-9.784-3.779-14.443-6.781-2.329-1.45-4.452-2.951-6.005-4.297-.362-.311-.724-.673-1.035-.932-.311-.311-.569-.621-.828-.88-.466-.569-.725-1.087-.777-1.45-1.139.311-3.572.104-6.523-.724-1.501-.414-3.106-.984-4.762-1.709-1.657-.724-3.313-1.708-4.918-2.795-.466-1.398 2.329-.518 3.727-.104-2.278-1.553-4.452-2.95-6.574-4.141-2.071-1.242-4.142-2.278-6.005-3.365-3.779-2.071-7.351-3.727-10.664-5.332-6.523-3.417-12.425-6.316-17.757-11.906.311-.984-.259-1.916-1.087-2.848 1.76 1.243 3.52 2.485 5.177 3.676.828.569 1.656 1.19 2.433 1.76.828.569 1.605 1.087 2.381 1.605 3.106 2.07 5.902 3.934 8.231 5.435.57.363 1.087.777 1.657 1.087.518.311.983.622 1.449.932.88.57 1.657 1.036 2.226 1.45 1.191.776 1.709 1.139 1.398.983.673-1.139-1.915-3.623-3.261-5.487-.673-.932-.984-1.76-.466-2.123.518-.362 1.915-.362 4.762.311-.673-.259-1.346-.518-2.07-.776-.725-.259-1.45-.57-2.226-.88-1.501-.622-3.158-1.295-4.815-1.968-1.656-.673-3.416-1.397-5.228-2.174-.88-.414-1.812-.776-2.692-1.191-.88-.414-1.76-.88-2.692-1.294-1.76-.88-3.572-1.812-5.332-2.795-.88-.466-1.76-.984-2.64-1.45-.414-.259-.88-.517-1.294-.724-.415-.259-.829-.518-1.243-.777-3.261-2.122-6.264-4.4-8.8-6.73-.363-.621-.725-1.19-.88-1.812.414.207.88.415 1.294.622-.57-.518-1.139-1.036-1.708-1.502-.57-.466-1.139-.931-1.709-1.346-1.139-.828-2.329-1.553-3.468-2.226-1.553-1.553-2.796-2.795-4.038-4.037-1.243-1.243-2.433-2.485-3.986-3.883.155-1.346-2.692-4.193-6.109-7.351-3.313-3.261-7.299-6.73-9.732-9.163-1.657 2.485-7.662-4.452-3.417 3.417-.31-.466-.052-.259.777.362.828.673 2.122 1.864 3.882 3.417.829.673 1.76 1.501 2.382 1.863-.156-.051-.311-.103-.518-.155.828.777 1.76 1.605 2.692 2.537.466.466.983.932 1.501 1.397.518.466 1.087.932 1.605 1.398 2.226 1.916 4.607 4.038 7.196 6.264-5.074-2.588-10.406-5.436-14.806-12.062-1.967-.569-3.986-1.19-5.798-1.812-.466-.155-.88-.31-1.346-.466-.414-.155-.828-.31-1.191-.465-.776-.311-1.449-.57-1.967-.829-.983-2.485-2.381-5.228-3.934-8.075-.414-.725-.828-1.398-1.191-2.123-.414-.725-.776-1.45-1.19-2.174-.777-1.45-1.553-2.899-2.33-4.245-.776-1.398-1.501-2.692-2.174-3.934-.673-1.243-1.294-2.382-1.708-3.469-.932-2.122-1.45-3.779-1.398-4.659-1.812-1.915-3.676-3.986-5.591-6.057-1.812-2.174-3.624-4.452-5.487-6.73-.932-1.138-1.864-2.277-2.796-3.468l-.673-.88-.673-.88-1.346-1.76c-1.76-2.382-3.52-4.711-5.332-6.989-.466-.569-.88-1.139-1.294-1.708-.414-.57-.828-1.139-1.294-1.708-.829-1.139-1.709-2.226-2.537-3.365-.828-1.088-1.656-2.175-2.485-3.21-.828-1.035-1.605-2.071-2.433-3.054-1.605-1.967-3.158-3.779-4.659-5.384s-3.002-3.003-4.452-4.193c-3.675-5.073-2.122-6.989-2.485-9.422 2.226 2.847 4.245 6.626 5.85 7.869-3.675-5.022-8.231-12.994-12.528-19.827-4.296-6.834-8.334-12.476-10.767-12.839-1.605-3.623-1.916-5.073-1.709-5.487s.984.207 1.657.673c1.242.984 1.915 1.501-3.934-7.765l2.536 1.967c-2.071-5.022-4.452-9.681-6.988-13.977-2.589-4.297-5.333-8.335-8.335-12.062-5.902-7.506-12.58-13.977-19.724-20.034-7.092-6.057-14.753-11.648-23.088-17.394-1.035-.725-2.122-1.398-3.158-2.123-.517-.362-1.087-.724-1.604-1.087-.518-.362-1.088-.724-1.657-1.087-1.087-.725-2.226-1.449-3.313-2.226-1.139-.725-2.278-1.449-3.469-2.174-4.607-3.054-9.628-6.005-14.96-9.266 2.95 1.76 4.452 2.691 4.814 3.52-1.553-.777-3.106-1.553-4.711-2.33-1.605-.725-3.209-1.398-4.866-2.07-.828-.311-1.605-.725-2.433-.984l-2.485-.88-2.485-.88-1.242-.414-1.243-.363c-1.708-.517-3.416-.983-5.073-1.501-1.708-.466-3.417-.828-5.177-1.242-.88-.207-1.708-.415-2.588-.57l-2.588-.518-2.589-.465c-.88-.156-1.76-.311-2.64-.415-1.76-.258-3.52-.517-5.28-.724s-3.52-.363-5.281-.57l-2.64-.259-2.64-.155c-1.76-.103-3.52-.259-5.28-.31-7.041-.311-14.081-.259-21.121-.104-6.989.207-13.978.725-20.914 1.242-1.76.104-3.469.311-5.177.466-1.708.156-3.469.311-5.177.466-3.468.363-6.885.725-10.302 1.087-13.718 1.502-27.281 3.313-40.741 4.918-1.915.311-3.572.57-5.073.88-1.501.311-2.795.673-3.986 1.036-2.381.673-4.193 1.397-5.746 2.226-1.605.776-3.003 1.656-4.504 2.536-.777.466-1.553.932-2.433 1.398-.88.518-1.812 1.035-2.847 1.605l-4.038-2.071c-2.382 1.294-4.711 2.744-7.092 4.09-1.191.673-2.33 1.397-3.521 2.07l-3.468 2.123c-1.294.621-2.537 1.191-3.779 1.708-1.242.518-2.485 1.036-3.779 1.45-1.242.466-2.485.88-3.727 1.242-1.243.363-2.485.725-3.728 1.087-2.484.725-4.969 1.294-7.506 1.916-2.537.621-5.073 1.242-7.662 1.915-5.124 1.346-10.457 2.899-15.892 5.28-5.488 2.382-11.078 5.539-16.825 9.992l4.245.155c-1.139.569-2.485 1.242-3.882 1.967-1.398.725-2.847 1.605-4.4 2.485-1.502.88-3.055 1.76-4.608 2.692-1.501.932-3.002 1.812-4.4 2.692-1.398.828-2.796 1.604-3.986 2.329-1.191.725-2.278 1.294-3.21 1.76-1.812.88-2.899 1.139-2.847.414-.362.466-.776 1.346-1.605 2.278-.828.984-2.07 1.967-4.038 2.589l-1.139-1.191-2.433 2.019c-.828.673-1.604 1.346-2.433 2.071l-4.814 4.089-4.711 4.193-2.329 2.123-2.33 2.174c-2.019 1.346-3.572 2.226-4.814 2.796-1.191.569-2.019.88-2.641.931-1.242.156-1.656-.569-2.277-1.035-.622-.466-1.398-.777-3.52.155-2.123.88-5.436 3.106-11.079 7.662-1.915 1.864-4.193 4.245-6.315 6.781-2.123 2.589-4.245 5.229-5.902 7.662-3.365 4.866-5.28 8.438-3.468 7.506 1.604-1.449 3.727-3.106 5.694-4.296 1.915-1.191 3.676-1.864 4.349-1.346l-1.657 1.76-1.605 1.812-3.209 3.572c1.035 2.329 1.087 5.642 3.261 6.678 1.087.517 2.744.466 5.28-.518 1.243-.518 2.744-1.243 4.504-2.226 1.812-.984 3.883-2.226 6.264-3.831l1.242-1.605 1.243-1.553 2.536-3.157c1.657-2.123 3.469-4.142 5.177-6.213 1.812-.466 3.624-.983 5.436-1.397-.88.673-1.76 1.397-2.589 2.122l-2.588 2.123-2.588 2.122c-.829.725-1.657 1.45-2.537 2.174.88-.414 1.708-.828 2.485-1.294.776-.414 1.449-.88 2.122-1.346 1.294-.932 2.382-1.915 3.365-2.951.466-.517.932-1.035 1.398-1.604.466-.518.88-1.036 1.294-1.605.828-1.087 1.657-2.174 2.485-3.262.88.104 1.915 0 3.054-.362 1.139-.31 2.433-.88 3.831-1.605 1.605-2.174 3.21-4.348 4.918-6.471l2.537-3.209 1.294-1.605 1.294-1.553c2.64.518-3.676 6.989 5.591 2.019 2.433-2.951.414-2.847-1.087-3.003-.725-.051-1.346-.207-1.191-.828.104-.311.362-.725.88-1.346.57-.621 1.346-1.398 2.537-2.381 7.661-2.33 6.626.362 13.304-5.902 1.708.414.518 2.071-2.226 4.401 1.501-1.346 3.313-2.744 5.332-4.142 1.967-1.346 4.09-2.744 6.109-4.038s3.934-2.536 5.435-3.779c1.553-1.19 2.744-2.329 3.365-3.365 2.071-.31 4.607-1.346 7.196-2.536 2.64-1.191 5.384-2.589 7.92-3.831 5.125-2.381 9.37-4.038 9.94-1.76.931-.984 3.727-3.262 7.195-5.591 1.76-1.139 3.624-2.33 5.488-3.417 1.863-1.087 3.779-2.019 5.435-2.743-2.64 2.484-2.277 3.157-.414 2.795 1.916-.311 5.332-1.708 9.163-3.002 7.558-2.744 16.462-5.384 15.686-2.071.983-.932 2.226-1.864 3.675-2.744.725-.466 1.501-.88 2.381-1.294.829-.414 1.761-.828 2.692-1.242 1.864-.777 3.935-1.605 6.109-2.33s4.452-1.449 6.833-2.174c9.474-2.744 19.983-5.073 28.369-8.024-.466.259-1.087.673-1.864 1.035-.725.362-1.553.673-2.329.673 2.433-.414 4.452-.569 6.212-.673 1.76-.103 3.261-.103 4.659-.103 2.795.103 5.125.362 8.283.31.31-2.122 4.245-3.882 9.111-5.591 2.433-.776 5.125-1.553 7.661-2.381 2.589-.777 5.022-1.501 7.093-2.278 3.106.673 4.244 1.45 4.193 2.123 0 .724-1.139 1.346-2.537 2.07-2.744 1.398-6.523 2.899-4.452 4.608-.207-.829.932-1.502 2.744-2.175.932-.31 1.967-.673 3.106-.931 1.139-.259 2.329-.57 3.52-.829 2.381-.517 4.607-1.035 6.057-1.553 1.398-.517 1.967-1.035.932-1.656 2.329.517 3.986.828 5.228 1.035 1.243.259 2.123.414 2.796.621 1.397.414 2.329.88 4.659 2.537.776-2.537 2.899-2.744 5.798-2.692 2.847.104 6.419.414 10.301-.88 3.262.777 5.022 1.605 6.161 2.226 1.087.621 1.501 1.139 1.967 1.501.466.363.984.621 2.278.829.621.103 1.449.155 2.588.207 1.139.051 2.537.051 4.297.155 3.209 1.242 1.605 1.864-.725 2.174-1.139.155-2.537.259-3.624.311-1.294-.259-2.07-.207-2.07-.207zm242.22 234.352s0 .051 0 0c-1.294-.88-2.485-1.761-3.52-2.485-1.035-.725-1.915-1.45-2.588-1.967.621.465 1.346 1.087 2.329 1.76 1.036.724 2.226 1.604 3.779 2.692zm25.107 17.704c-1.553-1.087-3.261-2.226-5.176-3.468-1.864-1.295-3.831-2.64-5.85-4.09-.311-1.449 1.242-1.605 3.727.207-.88-.207.104.828 1.657 2.381 1.708 1.502 3.986 3.365 5.642 4.97zm-37.686-54.615c3.727 2.744 4.503 4.193 4.555 5.073-.828-.724-1.76-1.449-2.795-2.277-.518-.414-1.087-.88-1.657-1.346-.569-.466-1.19-.932-1.812-1.501-.155 0-.466-.104-.621-.104.725-.104 1.45-.155 2.33.155z"/><path d="m669.073 820.595c-.518-.414-.88-.57-1.553-1.191.517.828.983 1.605 1.553 2.381.621.156 1.242.363 1.812.466-.57-.517-1.243-1.087-1.812-1.656z"/><path d="m1149.43 399.258v.622c.05-.518.1-.984.2-1.346-.05.465-.15.465-.2.724z"/><path d="m1122.09 960.781-.1-.724-2.59.88z"/><path d="m1062.87 263.576c-.16-.415-.57-.932-1.55-1.761 0 .207.72.88 1.55 1.761z"/><path d="m996.09 234.12c-1.605-.673-3.21-1.346-4.815-1.967l-4.814-1.864c2.071.88 3.883 1.605 5.487 2.226 1.553.621 2.899 1.191 4.142 1.605z"/><path d="m941.888 220.039c-.777.362-1.035.725-1.294 1.035.052 0 .052 0 .103.052z"/><path d="m856.42 886.34c-.518.517-.983 1.087-1.398 1.604-3.106 3.986-.88 1.398 1.398-1.604z"/><path d="m1028.45 689.312c-1.3 2.485-2.65 4.97-4.2 7.403 1.55-1.708 2.95-3.313 3.73-4.607.78-1.243 1.09-2.226.47-2.796z"/><path d="m694.648 1111.79c-.052-.05-.052 0 0 0-.104.52-.104.93-.156 1.45.052-.47.052-.99.156-1.45z"/><path d="m1016.49 706.137c3.41-3.262 5.74-6.368 7.76-9.422-2.59 2.847-5.64 6.16-7.76 9.422z"/><path d="m701.22 216.105-2.692.31c.052.207-.051.363-.258.518z"/><path d="m698.27 216.933-2.899.776c1.398-.207 2.537-.414 2.899-.776z"/><path d="m689.314 219.418 6.109-1.657c-2.174.259-4.866.621-6.109 1.657z"/><path d="m774.783 210.307.777-1.087c-.466.207-.725.569-.777 1.087z"/><path d="m797.147 209.22c-1.346-.052-2.847-.208-4.504-.363s-3.365-.31-5.177-.517c-3.624-.311-7.558-.518-11.285-.052l-.673.88c1.708-.828 5.901-.363 10.198.052 2.174.207 4.4.414 6.367.465 2.071.104 3.831 0 5.074-.465z"/><path d="m889.293 225.889c-3.055-.414-6.109-.932-9.163-1.346l-9.163-1.139c3.158 1.346 7.247 3.21-1.139 2.847 11.441 2.537 10.302 1.864 9.318.777-.517-.518-.983-1.139.207-1.502 1.139-.362 3.935-.362 9.94.363z"/><path d="m945.667 235.362c-9.784-1.242-.155 1.605-.828 2.174 6.316.104 7.869.156.828-2.174z"/><path d="m1123.18 521.948-2.02-1.968c-2.8 6.989.93.466 2.02 1.968z"/><path d="m1096.83 598.149 5.43-5.539-.2-4.348c-1.71 3.313-3.52 6.574-5.23 9.887z"/><path d="m1055.16 626.777 1.6-2.951c-2.17 3.624-4.3 7.299-6.52 10.923 1.65-2.588 3.26-5.28 4.92-7.972z"/><path d="m715.82 1184.21c-.414-1.35-.776-2.69-1.087-3.99-1.346-.41-2.537-.62-3.417-.57-.88.06-1.449.32-1.553.73-.103.41.259 1.03 1.191 1.71.932.72 2.536 1.45 4.866 2.12z"/><path d="m1020.94 1172.87c3.57.94 12.21.26 17.03-2.38-6.73 1.19-13.67 1.3-17.03 2.38z"/><path d="m1197.88 923.768 5.75-2.071-11.08 2.795c1.76-.207 3.57-.466 5.33-.724z"/><path d="m1674.55 153.104c-1.29-.57-2.79.88-1.08 3.468l4.04.414z"/><path d="m1678.02 174.483c3.06 2.537 7.46 5.074 9.32 1.605-2.22-.932-3.16-1.76-4.14-2.536-.98-.777-2.07-1.605-4.71-2.485-1.71-2.589-1.35-5.28 0-5.384-1.24-.621-1.45-4.607-4.14-5.125-.52 4.763 1.55 9.318 5.8 13.149-.11 1.346-1.4.725-2.13.776z"/><path d="m1710.9 462.57.98-1.656c-.41.414-.72.983-.98 1.656z"/><path d="m1598.3 600.375c1.09-.828 1.4-1.449 1.3-1.708-.94.828-1.71 1.605-1.3 1.708z"/><path d="m1569.83 612.748c.62-.207 1.14-.414 1.71-.621-.78.051-1.45.207-1.71.621z"/><path d="m1710.9 462.57c-.83 1.45-1.66 2.847-2.59 4.245.46.362.88-.155 1.29-1.035s.83-2.123 1.3-3.21z"/><path d="m1702.3 209.168c-.57-.932-1.19-1.605-1.86-2.174.46.724.88 1.449 1.29 2.226.21 0 .36-.052.57-.052z"/><path d="m1721.41 383.676v-1.449c-.37-.466-.83-.828-1.4-1.243z"/><path d="m1716.8 322.591c.05 1.397 3 1.449 4.35 1.811-1.3-.621-2.02-1.553-2.39-2.743-.57.103-1.19.362-1.96.932z"/><path d="m1696.4 226.613-.98-1.501c.26.363.67 1.036.98 1.501z"/><path d="m1716.38 426.954c-.46 0-.88.155-1.14.362.42.052.78-.051 1.14-.362z"/><path d="m140.061 325.593c.051-.207 0-.362.051-.518-.414.311-.517.518-.051.518z"/><path d="m68.207 310.218.9836-.155c.1036-.57.2071-1.087.1553-1.657z"/><path d="m1517.08 631.539c.1 0 .15 0 .26-.052 1.24-.827.46-.465-.26.052z"/><path d="m1004.32 586.605c4.92 4.297-10.303.207-2.59 5.695-.47-1.346 9.21-1.812 2.59-5.695z"/><path d="m1702.56 210.824c.36.777.73 1.553.98 2.433-.31-1.138-.62-1.863-.98-2.433z"/><path d="m1001.73 592.3.78.569c-.31-.259-.52-.362-.78-.569z"/><path d="m1390.25 655.146c.31.517.83.88 1.4 1.242-.11-.259-.42-.621-1.4-1.242z"/><path d="m1487 646.345-2.43.207c.98 0 1.76-.103 2.43-.207z"/><path d="m1339.52 658.976c-1.3-.31-1.76-.724-3.58-.414.16.155.31.259.52.363.67-.363 1.55-.466 3.06.051z"/><path d="m1286.56 654.731c.26.259.62.466.93.673.52 0 1.14.052 1.71.052z"/><path d="m299.192 348.371c-.931-1.036-1.449-2.123-1.811-3.106.31 2.226-7.455 1.19 1.811 3.106z"/><path d="m1700.8 209.789c.78 0 1.29.311 1.76 1.035-.26-.569-.57-1.087-.83-1.604-.46 0-.83.155-.93.569z"/><path d="m1336.25 681.806-8.64-.88c2.38.414 5.54.725 8.64.88z"/><path d="m659.599 476.858-1.915-.466c.621.362 1.294.569 1.915.466z"/><path d="m1301.83 679.373c-1.45-1.191-3-1.916-4.66-2.485-.36.207-.83.362-1.09.673z"/><path d="m241.628 340.813c7.868 1.501 4.348-3.003 6.419-4.866 9.629.673 3.831 3.572 6.678 6.056 3.054 0 5.85-.517 8.438-.983s4.97-.828 7.144-.311c.207.673.984 1.087-.155 1.657 3.416-.828 8.024.052 12.786.932 4.763.931 9.629 1.863 13.667.828.466.466.673.828.725 1.139-.725-2.123-.466-4.09.103-5.384 3.572.725 7.144-.828 7.869 1.915-2.174-.569-2.589.363-3.779.88l3.934-.207c2.485 4.245-5.332.052-5.953 2.64 1.863.104 3.831.156 5.798.208 1.967.051 3.986.103 5.901.155 3.883.207 7.455.569 10.095 1.76.259 3.675-13.149-2.071-6.574 2.795l-8.18-3.468c5.177 7.04-5.073-1.657-.517 5.591 5.435 1.915 8.645 2.226 11.906 2.588 1.605.156 3.21.363 5.125.725.932.207 1.967.414 3.054.725.57.155 1.139.31 1.76.517.622.207 1.243.415 1.916.673 3.002-1.19-.104-3.002 2.899-4.245 8.334.466 10.871 3.417 12.89 6.109 1.035 1.346 1.915 2.64 3.365 3.468 1.449.829 3.417 1.295 6.626 1.036 3.624-1.398 6.005-5.332 13.615-.673l-3.934 3.002c10.56 3.521 7.765-3.727 18.17 2.278-2.433.88-8.749-1.346-7.299-.362 6.316 5.228 5.798-.57 11.337 1.139l.104 3.727c2.899.725 5.849 1.398 8.904 2.019 3.054.621 6.212 1.242 9.369 1.863 3.158.622 6.368 1.243 9.577 1.968 3.21.724 6.42 1.449 9.629 2.381-1.035.776-3.52 1.087-.932 3.106 4.09.932 8.18 2.122 12.321 3.52 4.142 1.398 8.231 3.003 12.269 4.763s8.024 3.624 11.907 5.487c1.915.932 3.83 1.864 5.694 2.847 1.864.984 3.676 1.916 5.487 2.848l6.782-.725c1.346.518 2.019 2.226.362 2.226 5.436 3.261.984-1.708 4.194-1.76 3.416 1.035 3.779 3.261 1.345 3.365 5.643.673 13.46 2.226 21.122 4.452 7.661 2.174 15.116 5.228 19.93 8.852h-2.433c3.986 2.226 6.937 1.708 9.732 1.346 1.398-.155 2.744-.311 4.194-.052 1.449.259 2.95.932 4.659 2.381l-1.709-.103c8.904 4.297 18.688 7.765 27.696 11.544 4.504 1.864 8.852 3.779 12.838 5.85s7.558 4.348 10.613 6.833c2.174-1.449 6.471.88 10.716 2.899 4.193 2.071 8.334 3.831 10.094 1.294 9.215 7.196 5.798 6.885 19.62 14.961 3.779 1.916 7.299-1.035 12.373.414l-1.139 3.003 7.868-.311 1.968 5.022 4.866 1.19c-1.709-.932-3.262-2.95-2.64-3.675 7.609 1.708 16.358 9.422 15.892 10.975l17.756 4.659c-.88 1.035-3.83.207-6.367.051 10.198.829.311 3.779 9.629 4.556-.828-1.139 1.346-1.501 1.76-2.019 3.313 3.52 12.579 7.506 19.775 9.681l-2.174 1.449c12.217 5.798 26.608 10.198 40.534 16.152-4.607-3.055-1.967-6.109 2.278-4.711l.31 3.779c3.469-.829-3.779-3.003 2.64-3.055 5.074 2.589 2.019 5.022-1.397 4.763l6.781 1.605c0 1.087-1.708.932-2.588 1.967 3.417-.828 9.68 7.713 14.857 5.953l-.052 1.087c3.521 1.45 6.523 2.692 9.319 3.728 2.795 1.035 5.332 1.915 7.765 2.743 4.918 1.709 9.473 3.21 15.219 5.488 1.346-2.589 5.591-.207 9.888-.984 8.076 4.245 16.566 10.198 26.867 13.977 7.714 1.502 3.003-1.449 6.834-1.812-.466 2.692 9.836 6.471 3.831 6.161 3.106 1.139 5.642 2.019 7.972 2.795 2.329.777 4.452 1.45 6.678 2.123 4.452 1.346 9.37 2.64 17.549 4.607-1.294-1.656-3.054-2.795-1.708-3.261 2.95.673 6.056 3.416 5.176 4.503h-.828c4.711.725 9.422 2.434 14.081 4.66 2.329 1.087 4.659 2.329 6.937 3.623 2.329 1.243 4.607 2.537 6.885 3.831 4.555 2.589 9.007 5.073 13.304 6.885 1.087.466 2.123.88 3.21 1.243 1.087.362 2.122.673 3.158.931 2.07.518 4.141.777 6.108.725h-.88l15.53 2.382c6.575 2.743-4.659.465-.258 3.779 8.593.621 14.805 2.795 20.551 5.125 2.899 1.138 5.695 2.329 8.645 3.261 2.951.932 6.057 1.708 9.526 2.019 1.915 2.692 5.12 4.711 9.11 6.367 1.97.829 4.09 1.605 6.37 2.278s4.61 1.294 7.04 1.915c4.81 1.191 9.73 2.382 14.23 3.779 1.14.363 2.23.725 3.32 1.139 1.08.363 2.12.777 3.1 1.191 1.97.828 3.78 1.812 5.34 2.899l-.26-2.019c4.09-.673 4.03 2.278 6.52 3.417 0-1.502-3.42-2.692-.93-3.055 3.83.829 7.71 1.76 11.54 2.796 3.83 1.035 7.72 2.071 11.6 3.209 7.71 2.278 15.42 4.97 23.19 7.507 3.88 1.294 7.77 2.64 11.65 3.986l5.8 2.019c1.96.673 3.88 1.294 5.85 1.915 3.88 1.294 7.81 2.537 11.69 3.779 1.97.621 3.89 1.191 5.85 1.812.99.311 1.97.57 2.9.88.99.311 1.97.57 2.95.828 11.44 3.055 8.65-7.868 22.21-.31l-4.86 2.433c1.5.052 3 .155 4.5.311l4.5.465c3.01.311 6.01.725 9.01 1.243 3 .466 5.95 1.035 8.96 1.656l4.45.932 2.23.466 2.22.414c5.95 1.139 11.91 2.33 17.81 3.262 1.5.207 2.95.466 4.45.621 1.5.207 2.95.362 4.45.518 2.95.258 5.9.414 8.86.465-1.51.57-1.71 1.553-3.94 1.191 2.23 1.605 6.73 2.433 10.72 2.537 3.98.051 7.5-.518 7.66-1.502 3.57.777.57 1.916 2.64 3.314 1.19.569 2.54.724 3.99.776 1.44.052 2.95-.103 4.4-.259 2.89-.259 5.48-.466 6.62.932.42.466-1.5.621-2.43.673 1.71-.362 5.43.207 8.38.466 2.96.259 5.18.155 3.84-1.398 8.59 2.382 16.82.725 23.65 3.055 2.44-1.398 6.16-.622 9.48-.104 3.36.518 6.31.776 7.24-1.45-.51 2.33 3.27 3.521 7.92 3.987 1.14.103 2.39.155 3.58.155s2.43-.052 3.57-.155c2.28-.207 4.4-.57 5.8-1.036-1.92 1.294 4.76 1.709 2.48 3.572 1.61.052 3.16.104 4.61 0 1.45-.052 2.74-.259 3.83-.466 2.12-.466 3.36-1.242 2.85-2.485 5.79 2.951 11.75 2.071 17.03 1.036 5.28-.932 9.83-1.657 13.25 1.915 19-2.847 36.34-5.746 53.17-8.645 0 1.191-1.19 1.967-2.95 2.433-1.76.518-4.04.777-6.32 1.035-4.5.57-8.85 1.139-8.33 3.521 4.03-.829 7.61-1.812 10.92-2.744 1.65-.466 3.26-.932 4.86-1.398 1.56-.517 3.11-.983 4.66-1.449 6.22-1.916 12.38-3.262 20.4-4.142 4.19-.051-2.02 2.382-3.31 3.417 3.93-1.139 7.87-1.967 11.7-2.692 1.91-.311 3.83-.776 5.74-1.139 1.92-.362 3.78-.776 5.65-1.139 7.5-1.346 14.7-3.313 21.38-6.212.05.414-1.35 1.243-2.7 1.967 2.75-.828 6.63-.931 5.75-2.899l-2.54 1.243c-1.29-.466-1.34-1.294-.72-2.226.31-.466.83-.984 1.4-1.501.31-.259.62-.518.98-.829.36-.31.67-.569 1.09-.88 2.95-2.278 6.47-4.555 6.47-5.435-2.9 7.247 13.97-2.641 8.95 6.936 1.71-.931 3.63-2.64 2.8-3.83 2.74-.466 3.88.051 1.66 2.433 4.71-2.175 6-3.469 7.19-4.659 1.19-1.191 2.33-2.123 6.68-3.676.31.984-1.3 1.967-1.76 3.469 1.86-1.709 3.73-3.521 6.06-5.074 1.13-.776 2.43-1.501 3.88-2.226 1.45-.673 3.1-1.346 4.97-1.863-.21.724.93 1.139-1.19 2.019 1.55-.673 3-1.398 4.4-2.123 1.4-.776 2.69-1.605 3.98-2.381 1.3-.828 2.54-1.657 3.73-2.485 1.19-.88 2.43-1.708 3.62-2.588 1.2-.88 2.44-1.709 3.73-2.537 1.24-.828 2.54-1.657 3.88-2.433 1.35-.777 2.8-1.501 4.3-2.278 1.5-.725 3.11-1.449 4.82-2.071-.88 2.951.41 2.744 2.22 2.123s4.14-1.657 5.39-.155l3.2-2.433 1.61-1.243 1.55-1.242c-1.24 0-2.43 0-3.67-.052 3-1.708 5.48-3.986 7.87-6.005 2.38-2.123 4.71-4.038 7.55-5.073l-3.52 4.089 2.64-1.863c.88-.622 1.76-1.243 2.64-1.916l5.23-3.882-6.93 2.795c4.71-5.487-3.27-3.675 4.86-7.817-.62.673.78-.259 2.85-1.449 2.07-1.191 4.87-2.485 6.99-2.64.98-1.502 2.02-3.055 3.31-4.452.31-.363.67-.725 1.09-1.036.36-.362.77-.724 1.19-1.035.83-.673 1.81-1.294 2.95-1.915 1.81.155 1.81 4.037 3 4.141.16-1.139 1.04-2.381 2.18-3.676 1.13-1.346 2.64-2.743 4.19-4.141.78-.725 1.55-1.398 2.23-2.122.72-.725 1.39-1.45 1.96-2.175 1.19-1.449 2.07-2.899 2.28-4.193-.52 1.553.78 3.106 1.4 3.106.1-1.294.26-2.536.36-3.831 2.9-1.553 3.52-1.553 4.25 0 3.72-3.106 2.27-3.468 1.19-3.83-.57-.208-1.04-.363-.73-.932.16-.259.47-.621 1.04-1.087s1.45-1.139 2.64-1.916c-.47.777.1.777-.99 2.33 2.23-1.812 4.3-3.728 6.16-5.798 1.87-2.071 3.63-4.193 5.34-6.264 1.65-2.123 3.31-4.245 5.07-6.264 1.66-2.071 3.42-4.038 5.38-5.798 5.02.104-5.23 7.662-.46 7.04 1.19-1.501 2.33-3.106 3.47-4.71 1.13-1.605 2.17-3.314 3.2-4.97 2.13-3.313 3.99-6.833 5.96-10.25 3.78-6.937 7.45-13.77 11.59-19.879l-1.76 2.123c-1.81-2.33.16-4.245 2.8-6.678 1.29-1.243 2.69-2.589 3.93-4.09.62-.776 1.14-1.553 1.61-2.433.41-.88.72-1.812.83-2.796-.47 1.812 1.6 3.572 1.29 2.848 1.35-2.175 2.54-4.452 3.68-6.885 1.03-2.485 1.96-5.074 2.9-7.869.88-2.796 1.65-5.798 2.53-9.008.21-.828.47-1.604.67-2.433.21-.828.42-1.708.57-2.588.42-1.76.83-3.52 1.3-5.384l.67 2.278c.78-1.294 1.61-2.847 2.33-4.556.67-1.708 1.4-3.572 2.02-5.487.31-.932.67-1.915.98-2.847.16-.466.31-.932.47-1.398.15-.466.31-.932.41-1.398.57-1.812 1.14-3.572 1.71-5.073-.83-2.226.36-5.694-2.22-4.038 1.6-2.122 2.79-4.348 3.78-6.626.51-1.139.93-2.278 1.29-3.417s.62-2.329.88-3.468c.47-2.33.83-4.659 1.03-6.989.21-2.329.21-4.659.26-6.988.16-4.608-.1-9.163.37-13.564.05-.569.1-1.087.2-1.656.05-.57.11-1.087.21-1.657.16-1.087.36-2.174.57-3.261.47-2.174 1.24-4.297 2.17-6.471-.1 2.071.83 5.073.99 3.417 0-2.485-.16-5.022-.21-7.507l-.16-3.727-.1-1.863c-.05-.622-.1-1.243-.15-1.864-1.19.569-1.56 1.035-1.87 1.76s-.62 1.708-1.6 3.21c-.68-.984-1.19-2.485-1.66-4.245-.41-1.76-.67-3.676-.67-5.488 1.5 6.627 3.83 0 5.23-2.899-.73.466-1.56-.517-2.28-.259.57-.983.88-1.708 1.03-2.277.16-.57.16-1.036.06-1.346-.21-.673-.88-.88-1.56-1.191-1.39-.673-2.95-1.605-1.65-6.937l1.24.518c-.36-1.967-1.09-3.831-1.66-5.695-.57-1.915-.98-3.83-.93-5.953 1.29-.983 1.76.052 2.07 1.346s.62 2.847 1.76 2.899c-.1-1.501-.52-2.951-1.09-4.4-.57-1.45-1.24-2.847-1.86-4.245-.57-1.398-1.09-2.744-1.29-4.141-.11-.673-.11-1.398-.06-2.071.06-.673.21-1.398.47-2.071.26.621.47 1.294.67 2.019.21.725.37 1.501.52 2.226.31 1.501.62 3.054 1.14 4.297 1.4-3.055 1.86-4.763 1.97-6.264.1-1.501-.11-2.744-.11-4.97v.414c.11-3.416.26-6.885.21-10.301l-.52 2.691c-2.07-1.656-3.31-3.364-4.09-5.228-.82-1.812-1.14-3.779-1.5-5.798s-.62-4.141-1.24-6.316c-.31-1.087-.67-2.226-1.19-3.313s-1.19-2.226-2.02-3.313c1.55 2.174 2.54 3.365 3.16 3.883.62.517.88.414 1.03 0 .37-.777.31-2.692 1.92-2.589.36-2.692.57-6.781 1.66-5.849-.83-1.036-1.25-2.123-1.45-3.158-.21-1.087-.26-2.123-.31-3.262-.16-2.277-.47-4.762-3.01-7.661.93-.518-1.14-5.022 1.61-4.556-2.28-5.901-1.35 1.864-2.69 1.657-1.4-2.123-2.18-4.608-2.7-7.351-.57-2.692-.88-5.695-1.24-8.801-.1-.776-.21-1.553-.31-2.329-.1-.777-.26-1.553-.41-2.382-.31-1.604-.68-3.157-1.14-4.762-.93-3.158-2.33-6.316-4.51-9.215-1.34-2.692-2.64-4.762-3.88-6.471-1.24-1.76-2.43-3.158-3.57-4.555-2.28-2.796-4.66-5.436-7.3-10.25.16-2.019 1.24-1.605 2.33-.725s2.12 2.278 2.12 2.278c-.15-1.553-.36-2.951-.67-4.245-.31-1.346-.73-2.537-1.19-3.727-.93-2.382-2.18-4.608-3.73-7.041 1.24.725 1.5-.621 1.92-2.64-1.97-4.09-4.56-1.398-5.39-7.506 1.45.517 3.57 1.035 5.44 2.64-1.45-2.33-3.06-4.504-4.76-6.678-1.71-2.174-3.37-4.4-4.87-6.73 1.03-2.071 3.78 1.967 5.59 3.365-.78-1.346-1.66-2.899-2.59-4.504s-1.97-3.209-2.95-4.659c-2.02-2.899-4.04-5.228-5.69-5.487l.36 2.019.36 2.019c-1.03-2.019 1.71-2.071 2.85-.725 4.14 3.986 2.22 7.403 1.45 8.076l-2.18-3.314c-.93 1.502-.98 3.158-.41 4.867.52 1.708 1.6 3.52 2.9 5.332 1.29 1.863 2.79 3.727 4.09 5.642 1.29 1.916 2.48 3.831 3.16 5.695l-5.23-1.45 3.16 3.055c1.08 1.035 2.12 2.07 3.15 3.106-.41 2.019-2.27 3.986-4.24.569 0 6.005 3.21 4.09 2.69 9.422-.15.621-.41.466-.78.052l3.06 4.71c-1.19-.673-2.54 1.916-3.11-1.449.52 5.021 2.59 8.438 4.3 11.233 1.71 2.796 3.05 4.867 2.07 7.144l-.52-.673c2.75 6.213 3.63 6.316 4.61 5.902s2.12-1.346 5.43 3.002c-1.81 2.951-3.67 5.902-5.53 8.853l3.41.414c.16.673.36 1.708.36 2.536 0 .829-.2 1.502-.88 1.398 3.47 4.452 1.09-1.242 3.84 1.139-.52 3.676 1.08 8.024 2.07 11.958 1.03 3.883 1.65 7.196-.68 8.49 1.45.932 1.56-.776 1.66-1.863.1-1.088.31-1.553 1.92 1.811-2.44 1.605-1.76 3.572-.63 6.006 1.19 2.381 2.7 5.28 2.07 8.541-3.1-1.346-2.74-7.299-4.03-.776 1.34.673 2.07 1.76 2.48 3.106.42 1.346.47 2.899.36 4.504-.2 3.261-.82 6.729.06 9.214 1.86-.155 2.64 2.537 3.26 6.368.67 3.83.93 8.748 2.02 12.993-.37-.103-.47.88-.63 2.537-.15 1.656-.2 3.986-.25 6.574 0 2.589-.16 5.436-.31 8.128-.16 2.692-.26 5.28-.63 7.299l-.62-.207c1.92.725 2.75 3.158 3.21 6.16.11.777.21 1.553.31 2.382.05.828.11 1.656.16 2.484.1 1.657.15 3.314.36 4.815-2.28-.259-3.16-1.398-4.14-4.607l-.05 5.642c.62.673 1.08 1.45 1.4 2.537.31 1.087.51 2.433.67 4.297l-2.8-1.553c-.05 1.863.11 3.727.31 5.694.06.466.11.984.16 1.449.05.466.1.984.1 1.45.11.984.16 1.967.21 3.002.1 2.019.21 4.142.05 6.316-.21 2.174-.62 4.452-1.4 6.782 1.3.414 3.32-1.243 5.13-1.76 1.81-.518 3.36.155 3.62 5.487-1.45.207-3.93.259-4.19-2.537.05.466.26 1.294.36 2.226.05.932 0 1.967-.41 2.796-.57-1.501-1.14-2.951-1.81-4.4-.78 2.122-.42 2.743.15 3.313.52.569 1.19.983.78 2.743-2.02-.362-1.87 2.382-3.37 1.605-.05-.932 1.3-2.899.73-4.348-.47 1.915-1.19 4.037-2.02 5.849-.42.88-.83 1.709-1.3 2.382-.46.673-.93 1.19-1.39 1.501 1.19-.155 2.69.466 2.43 3.417-.62 3.727-1.35 4.193-2.18 4.296-.82.104-1.65-.207-2.64 1.76.99 2.071-1.55 6.368 1.4 7.196-.52 2.123-2.02 2.174-3.05 2.796.05 1.035-.16 2.588-.52 4.4-.15.88-.36 1.812-.57 2.743-.21.932-.36 1.864-.57 2.692-.72 3.417-.98 5.954 1.24 4.349l.52-.88c0 .207-.05.414-.05.673 0-.052 0 0 0-.052v.052c-.1 1.656-.36 3.261-.72 4.866-.11.414-.16.828-.26 1.191l-.37 1.19c-.25.777-.51 1.553-.82 2.33-1.14 3.106-2.49 6.16-4.15 9.059-.77 1.45-1.6 2.951-2.38 4.4-.41.725-.77 1.45-1.19 2.175-.41.724-.83 1.449-1.19 2.174-.77 1.449-1.55 2.899-2.22 4.348-.37.725-.68 1.45-1.04 2.175-.31.724-.62 1.449-.93 2.226l-.88-.466c-.31.88-.62 1.812-.98 2.743-.37.932-.73 1.864-1.2 2.796-.82 1.812-1.7 3.675-2.53 5.487-.42.932-.83 1.76-1.24 2.64-.42.88-.78 1.709-1.09 2.537-.67 1.656-1.14 3.261-1.4 4.659-1.24 1.915-4.45 3.468-4.97 1.967-.62 1.294-1.03 2.381-1.45 3.313-.41.932-.78 1.76-1.24 2.589-.47.828-1.09 1.708-1.92 2.743-.41.518-.93 1.087-1.5 1.657-.62.569-1.29 1.242-2.07 1.967 1.04-2.847.42-2.692.16-2.588-.26.103-.11.155 2.27-3.003-.62.725-1.19 1.346-1.76 1.864-.56.569-1.08 1.035-1.55 1.501-.98.932-1.81 1.76-2.59 2.64-.77.88-1.45 1.864-2.12 3.106-.67 1.243-1.35 2.744-2.07 4.763-.16-1.864-1.71-1.294-3.37.155-1.7 1.398-3.57 3.676-4.45 5.281l4.82-2.744c-1.14 1.656-2.33 3.106-3.52 4.452s-2.49 2.536-3.78 3.831l-1.3-3.728c-1.65 1.036-3.1 2.226-4.34 3.469-1.3 1.242-2.49 2.536-3.52 3.882-2.08 2.744-3.89 5.591-5.7 8.335-.88 1.398-1.81 2.692-2.79 3.934-.99 1.243-1.97 2.382-3.11 3.417-2.23 2.019-4.87 3.468-8.18 4.038-.78 2.226 1.09 1.242 3 .155 1.92-1.035 3.89-2.071 3.47.155-1.4 1.088-3 1.968-4.66 2.692-1.65.673-3.36 1.243-4.92 1.657-3.1.932-5.74 1.398-6.57 2.019-2.17 1.087-3.47 2.226-4.4 3.365s-1.45 2.329-1.97 3.52-1.03 2.485-2.02 3.727c-.98 1.243-2.38 2.433-4.66 3.624.88.155 2.02.673 2.28 1.864.11.621 0 1.346-.46 2.277-.47.932-1.35 2.071-2.8 3.365-6.26 3.572-10.09.466-6.94-2.795 1.35-1.036 2.23-1.139 2.44-.777 1.65-1.605 3.83-3.727.77-3.261l-.05 1.501c-.88.207-2.07.725-3.31 1.294-1.24.57-2.54 1.243-3.73 1.76-2.38 1.036-4.19 1.605-3.78.156-3.83 3.779-.88 2.899 2.8 1.346-2.18.828-3.94 1.708-5.65 2.588-1.65.88-3.2 1.76-4.71 2.692-.77.466-1.5.932-2.27 1.398-.78.466-1.61.88-2.44 1.346-1.71.88-3.52 1.812-5.69 2.64 1.6-.052 3.47.518 2.22 1.191-6.36 2.484-7.45 3.727-7.92 4.917-.46 1.191-.36 2.33-4.4 4.66-2.79.31-2.84-.881-3.15-1.502s-.94-.621-4.82 2.071c-5.69 1.242-2.43-2.485-.83-4.297-3.26 2.899-7.09 4.038-10.56 4.763-3.47.673-6.68.776-8.95 1.449l3.67-2.588c-2.22 1.553-4.19 2.381-6.26 3.106 1.09.466 2.17.932 3.26 1.398-2.59.517-4.61 1.294-4.97.31-1.91 2.485 3.37 3.106-.83 7.041-3.73 0-9.63 4.866-11.8 2.122 2.69-.569 3.88-1.087 4.3-1.501.41-.414.1-.777-.31-1.191-.83-.776-1.92-1.708 2.32-3.52-1.55.932-3.57 1.708-6.16 2.123-.46-.207.16-.777.73-1.139-10.77.466-3.31 5.073-13.77 8.127.41-1.087-.47-1.76-1.61-2.019-1.13-.31-2.58-.207-3.36.207 4.19-1.139 2.85 2.382-.62 4.815-3.52.259-5.33.932-6.68 1.708-1.35.777-2.23 1.605-4.04 1.915l4.25-.362c-.93 2.123-4.4 2.744-9.06 4.452-.73-1.294 4.09-2.019 2.28-2.226-2.28 2.174-5.44 2.226-8.96 1.864-3.47-.259-7.2-.673-10.72 1.19-3.67-.517-.98-3.313-4.14-3.572-3.93 1.864-6.31 1.605-8.75 1.295-1.19-.156-2.43-.311-3.88-.207-.72.051-1.5.155-2.38.362-.41.103-.88.207-1.35.362-.46.156-.98.311-1.5.466 2.9 2.123 3.26 1.45-2.64 4.659 4.82-1.087 9.53-2.588 14.24-3.882l-8.75 5.073c4.4-.673 9.01-3.054 11.7-3.054-4.09 2.692-3.78 2.019-1.29 3.727-3.32-1.346-6.22-.311-9.22.88-1.5.621-3.05 1.139-4.66 1.501-1.6.363-3.31.466-5.18.052l-.56-6.109c-2.7-.362-5.18-.207-7.56.259-.62.104-1.19.259-1.81.363-.63.103-1.2.258-1.82.414-1.19.31-2.43.621-3.67.983-2.49.673-5.08 1.45-7.87 1.968-.73.155-1.45.258-2.17.362-.73.103-1.51.155-2.28.207-1.56.103-3.16.103-4.92.052l4.45.776c-1.66 2.537-8.44.829-12.84 2.071.16-1.035-.46-1.708-1.34-2.226-.88-.57-2.07-1.035-3.06-1.657.26 1.502-9.99.156-11.18 4.245-1.03-.414-2.07-.828-3.11-1.242l-3.05-1.346c-5.54-.57-8.7.932-11.8 2.433-1.56.777-3.11 1.501-4.97 1.967-1.87.466-3.94.725-6.63.466 3.26-2.122-1.55-3.727 5.64-5.125-3.57-.103-6.73-.569-6.83.828-1.03-.673-3.52-.051-6.16.466-2.64.466-5.43.829-7.04-.207-1.55.829-2.17 2.951-6.16 2.537-.41-.414.05-.984.05-.984-.05.984-6.37 1.036-3 3.469-2.69-1.76-5.9-2.796-9.42-3.365-1.76-.311-3.57-.518-5.49-.673-1.86-.156-3.78-.207-5.64-.363-3.78-.258-7.51-.465-10.82-1.035-1.66-.259-3.26-.621-4.71-1.139-1.45-.517-2.75-1.19-3.83-1.967-3.94-.104-8.23-.259-12.48-.518-4.24-.31-8.33-.673-11.91-1.035.52-.569.16-.984 1.45-.621-9.42-3.158-6.78 5.021-17.55 1.242-5.12-4.141 6.16-.88 2.8-2.64-.26-3.417-3.62-3.727-7.77-3.779-4.14-.104-9.11 0-12.47-2.537l1.86-.103c-2.64-1.605-6.21-1.501-10.25-1.398-4.04.155-8.59.414-13.15-.673 0 0 .57-.518.26-.983-1.71.569-3.78.88-6.05 1.087-2.28.207-4.72.259-7.25.155-5.02-.155-10.36-.725-14.91-1.139 3.31-2.019 4.3-.569 3.16-3.52-4.04-.414.31 4.452-7.82 3.572-1.14-.984-3.11-2.019-4.76-3.261-1.66-1.243-3.06-2.589-3.16-4.09l3.73.725c1.24.258 2.48.466 3.72.673-.77-1.088-1.76-1.76-2.84-2.175-1.09-.414-2.33-.569-3.58-.621-2.48-.155-5.12.104-6.98-.621l.82-1.45c-5.74-.983-8.9-.517-12.11-.155-1.6.155-3.26.311-5.23.207-1.97-.103-4.35-.466-7.4-1.294l.98 1.501c-7.61 2.33-5.07-3.572-12.47-2.226l-1.04-4.452c-4.66-.051-16.36-.051-24.43-1.346 5.23-1.812 14.8-.88 20.96-1.19-4.35-1.087-14.85-3.521-17.6-2.123 1.87.052 4.3-.31 5.9.725-3.05.88-6.47 1.242-10.14 1.087-1.87-.052-3.78-.259-5.8-.569-2.02-.311-4.09-.829-6.26-1.45 1.81-3.624-3.68-5.643-10.25-7.713-3.27-1.036-6.79-2.071-9.79-3.365s-5.43-2.847-6.57-4.763c-3.99-.414-7.87-1.242-11.7-2.329-1.92-.518-3.83-1.139-5.7-1.812-1.91-.673-3.78-1.398-5.69-2.123-3.83-1.501-7.66-3.106-11.7-4.607-4.04-1.553-8.23-2.951-12.63-4.297 4.35 7.869-5.18-1.501-6.01 4.918-4.24-.932-5.74-1.553-6-2.019-3.73-2.536-7.509-5.021-11.236-7.61-2.329-2.743 4.297-.051 4.4-1.501-8.748-3.416-2.899-3.779-8.282-7.351.517 2.537-4.142 2.019-8.905-.466l6.213 5.177c-6.782-.466-9.06-2.64-11.286-4.814-1.139-1.087-2.278-2.175-3.986-3.055s-3.986-1.604-7.351-1.915l4.608-.518c-3.417-.569-9.319-2.64-15.375-4.245-3.003-.828-6.109-1.449-8.904-1.811-2.796-.363-5.333-.363-7.352.31-.88-1.087-1.811-3.261 1.191-2.692-3.779-1.553-7.869-2.795-12.113-3.882-2.123-.518-4.245-1.036-6.42-1.553-2.122-.518-4.296-1.036-6.367-1.502-8.438-2.019-16.359-4.141-21.691-7.868l1.709-.984c-3.003-.673-5.954.828-8.956-2.019.414-.518 1.708-.983.414-1.605-1.708-.051-8.49-.362-11.907-2.64l3.831-.414c-7.04-3.779-13.045-5.073-18.947-5.798-2.95-.362-5.849-.673-8.852-1.087-2.951-.414-6.005-.984-9.215-1.967 1.709-4.193-9.318-10.25-14.805-13.304l.466-.518c-16.876-7.506-30.491-8.438-46.953-13.408-7.921-8.645-32.407-15.944-47.057-25.211 2.071 1.812-1.812 3.106-4.763 2.33-3.313-2.433-11.44-1.45-9.214-5.073l1.294.621c-1.191-4.97-9.215-7.196-15.065-9.836l-3.106 4.607c-12.372-13.977-41.776-14.754-47.522-24.848-4.297-.311-8.904-2.33-13.201-2.64l1.346-2.64c-10.146-5.074-15.168-7.61-28.317-12.373l3.417-.828c-7.196-3.21-12.476 3.986-19.206 1.346l-.362-4.866c-6.368-2.641-12.425-6.109-18.637-9.111-6.212-3.055-12.631-5.591-19.671-6.264.465-.518 1.294-1.553 3.416-.88-3.002-1.243-8.541-4.297-13.356-6.213-4.814-1.863-8.904-2.64-8.904.622.621-1.864-2.64-3.262-6.988-4.297-4.401-1.087-9.836-1.812-13.615-2.33l2.122-2.277c-7.196 1.19-7.713 2.07-16.307-.104-1.812-1.087-.88-2.795 1.45-1.139-5.953-3.882-6.005.621-13.304-3.727l3.572-.621c-6.627-2.692-6.42-1.553-10.82-.932-2.278-.259-5.384-1.553-7.92-3.21-2.537-1.656-4.556-3.52-4.608-4.918-1.449 1.191-5.849 1.864-9.525-.258-.207-1.139 1.45-1.191 2.278-1.191-5.28-2.899-9.732-3.624-13.719-4.245-3.986-.621-7.506-1.139-10.922-3.831.155-.983-.208-1.605-.777-2.071 4.452 1.553 8.49 3.003 11.285 4.038 2.796 1.036 4.401 1.76 4.038 1.709.88-2.537-6.212-5.488.777-6.937-6.471-.156-17.86.621-24.486-3.003-.259-.362-.518-.724-.622-1.19l.829-.052c-1.553-.828-3.106-1.035-4.608-1.087-2.122-1.139-3.468-1.916-5.642-2.692-.156-2.381-7.972-3.883-11.596-5.177-.57 2.847-5.177.88-1.501 4.607-.518-.414.776-.103 3.261.57.569.103 1.242.259 1.656.207-.103.052-.207.103-.31.155 2.433.725 5.539 1.657 9.059 2.744-3.313.466-6.678.673-10.198-2.174-2.433 1.19-5.073 2.329-6.471 2.795-3.727-5.435-12.735-10.509-13.304-13.304-2.899-.466-6.005-1.191-9.215-1.864-3.209-.673-6.419-1.346-9.577-1.863-3.158-.518-6.212-.88-9.007-.932-2.796-.052-5.332.207-7.455 1.087-3.365-.207-3.261-2.485-4.193-3.676 2.019 0 4.193.673 5.384.156-6.782-.414-19.103-4.659-21.639-1.346-3.831-1.916-2.485-2.433-1.553-2.796.932-.362 1.346-.569-4.297-1.656l1.812-.777c-10.198-5.694-19.723-5.694-29.508-5.591-4.866 0-9.784-.051-14.909-.932-5.125-.776-10.508-2.381-16.255-5.539 1.605.829 2.433 1.191 2.641 1.916-3.417-1.139-6.886-2.123-10.406-3.003-3.52-.828-7.092-1.501-10.716-2.122-3.572-.621-7.195-1.191-10.819-1.709-1.812-.258-3.624-.466-5.436-.724l-5.487-.622c-3.624-.414-7.299-.88-10.871-1.397-1.812-.259-3.624-.57-5.436-.777-1.812-.259-3.624-.517-5.384-.776-3.572-.57-7.144-1.243-10.664-2.071s-6.988-1.812-10.405-2.795c-7.869-1.916-9.008.414-14.029 1.76l-1.45-3.313-4.348 1.345c-1.45.466-2.899.984-4.297 1.45-6.005.88-10.975-1.398-16.358-3.468-1.346-.518-2.744-.984-4.142-1.398-1.449-.414-2.899-.673-4.452-.88-3.106-.363-6.471-.207-10.302.828l1.864 2.174c-2.692-.31-6.937-.207-10.457-.31-1.76-.052-3.261-.104-4.348-.311-1.036-.207-1.605-.569-1.346-1.191-.57.363-1.812 2.175-3.883 1.036l-.155-1.657-13.2527 2.589c-1.2942-.156-2.2261-.415-2.899-.673-.673-.259-1.1389-.57-1.3978-.88-.5694-.673-.5176-1.45-.6212-2.226-.207-1.502-.9836-2.899-8.5416-2.951-5.6427.725-15.7891 5.021-13.6667 6.108 2.226.052 5.7462.932 5.9533 2.537l-5.0214.932c-.3624 2.433-1.5013 4.866-.9836 7.144.5176 2.226 2.7437 4.296 8.8522 5.849l8.4899-3.106 2.7955 2.278-7.1957.259c4.0896 2.122 6.6262.155 9.5252-1.242.673 1.242 1.8636 2.07 3.572 2.588l8.3866-4.504c.983 1.916-3.7793 3.676 1.812 4.815 3.934-2.071-3.728-4.297 2.847-5.591 4.038 2.226 2.795 4.038 7.661 2.226.622 1.242-.414 2.019-2.329 2.536 1.087-.362 2.329-.569 3.624-.724 1.294-.104 2.64-.156 3.934-.259 2.588-.156 4.918-.518 6.057-1.709 4.141 2.899 14.443-.051 13.77 4.504 1.398-.983 7.713-3.002 11.648-2.899-7.558 4.918 14.65 1.398 12.217 7.092 2.847-2.174 7.661-2.226 12.942-1.967 5.28.311 11.078.828 15.892.155-.569.311-1.708.984-2.485.622 5.177 1.087 6.523 2.743 9.785 4.141.621-1.967 2.95-2.899 5.798-3.624 2.847-.673 6.108-1.139 8.489-2.019 5.85 4.867-4.607 4.09-3.106 8.128.156-3.313 11.596-1.501 9.836-4.556 4.556 3.158 4.038 1.812 6.057 5.54.828-2.434 2.019-2.485 3.572-2.175 1.553.259 3.417.829 5.746-.362 6.626 3.779.984 5.021 9.008 4.918 3.416 2.174-3.779 2.692-3.779 2.692zm183.826 39.395v.052c-1.553-.466-2.899-.88-3.727-1.087.777.207 1.864.517 3.727 1.035zm15.065 5.073c-1.812-.725-4.09-1.553-6.471-2.329-.207-1.139.725-1.916 2.226-1.346-1.087.362 2.278 2.122 4.245 3.675zm-25.625-29.87c2.536.414 3.158 1.191 3.313 1.864-1.139-.311-2.537-.673-4.349-1.035-.103.103-.31.155-.414.258.466-.466.88-.88 1.45-1.087z"/><path d="m409.406 357.637c-.362-.052-.621 0-1.035-.103.414.414.828.776 1.243 1.087.362-.207.776-.414 1.138-.57-.466-.155-.931-.31-1.346-.414z"/><path d="m1712.03 460.603-.15.311c.21-.208.36-.415.62-.518-.26.103-.31.103-.47.207z"/><path d="m642.722 471.215.259-.673h-1.553z"/><path d="m1734.71 375.342c.26-.156.52-.518.78-1.191-.21.104-.47.57-.78 1.191z"/><path d="m1733.16 336.775.41-5.539c-.31 2.433-.36 4.193-.41 5.539z"/><path d="m1730.26 307.216c-.57-.259-.99-.311-1.35-.363v.052z"/><path d="m1493.63 664.723c-.37.103-.78.258-1.09.414-2.49 1.19-.73.569 1.09-.414z"/><path d="m1618.18 600.065c-.47.673-.88 1.294-1.35 1.915-.46.621-.98 1.243-1.5 1.812 2.18-1.191 3.78-2.329 2.85-3.727z"/><path d="m1337.19 681.909c-.31-.051-.63-.103-.94-.103z"/><path d="m1609.95 607.519c2.38-.931 4.04-2.277 5.38-3.675-1.81.983-3.93 2.122-5.38 3.675z"/><path d="m1692.21 184.785-.47-1.346c-.15.104-.36.104-.52.052z"/><path d="m1691.28 183.491-.94-1.294c.26.621.52 1.191.94 1.294z"/><path d="m1688.22 179.453 2.07 2.692c-.46-1.035-.98-2.329-2.07-2.692z"/><path d="m1705.93 221.488 1.13.052c-.25-.155-.67-.207-1.13-.052z"/><path d="m1710.32 232.567c-.72-2.744-.31-7.507-2.27-10.975l-.93-.052c1.08.57 1.24 2.899 1.44 5.229.16 2.381.47 4.814 1.76 5.798z"/><path d="m1711.98 283.351c-.26-1.605-.46-3.21-.77-4.815l-.88-4.814c-.63 1.967-1.51 4.452-2.96.311-.05 6.315.42 5.539 1.25 4.762.41-.414.88-.828 1.5-.362.62.414 1.24 1.812 1.86 4.918z"/><path d="m1716.69 313.117c-1.39-5.021-1.6.362-2.27.207 1.55 3.054 1.96 3.779 2.27-.207z"/><path d="m1680.87 520.084-1.92-1.915c-1.81 3.52.83.621 1.92 1.915z"/><path d="m1665.55 561.602 3.98-1.916-.51-3.054z"/><path d="m1634.8 565.691.98-1.449c-1.4 1.708-2.74 3.468-4.19 5.125l1.6-1.812z"/><path d="m1296.19 653.178.88 3.365c2.79-.31 3.72-3.882-.88-3.365z"/><path d="m1139.48 629.106c-1.29-1.967-5.43-4.037-8.49-3.157 3.47 1.035 6.63 3.106 8.49 3.157z"/><path d="m691.955 463.813 3.365.258-5.902-1.553z"/></g><g clip-path="url(#e)"><path d="m391.12 1108.43c-.078-1.5 5.316-1.48 12.743-9.01 2.827-4.99 1.751-7.05 1.229-12.88-6.572-17.04-17.941-5.81-21.953-12.69 1.492-4.04 10.496-5.27 14.098-8.37 4.185-3.43 9.63-8.39 13.628-12.2 10.916-10.43 18.35-16.11 19.808-32.42 1.006-11.56-4.57-25.005-15.307-30.028-14.5-6.758-20.848 3.756-30.804 12.488-4.736 4.18-9.893 6.53-14.659 10.3-4.654 3.56-8.961 8.37-13.801 11.56-19.886 13.01-16.152.35-30.227-6.69-11.322-5.62-25.657-13.6-38.425-14.11-4.512-.18-13.656 1.77-13.981-4.878-.185-3.401 4.213-13.964 5.332-18.737 4.883-20.968 15.939-39.101 26.113-57.074 3.9-6.89 8.181-11.191 11.786-17.325 3.986-6.577 6.031-11.353 10.7-18.203 13.411-19.964 16.736-63.569-5.234-83.917-8.299-7.467-25.068-19.069-35.415-22.685-20.051-6.736-47.987-3.037-67.656 3.759-12.137 4.205-18.737 8.643-31.983 9.451-20.617 1.25-22.106 20.184-23.981 24.66-1.988 4.676-8.966 10.483-12.431 15.905-4.13 6.364-7.612 11.117-12.384 16.985-16.413 20.375-28.355 51.718-36.028 75.986-9.0915 28.87-11.9365 75.123-2.5009 103.403 4.5379 13.64 8.4999 18.52 15.4489 30.24 10.06 17.16 10.91 12.63-6.457 25.61-2.725 2.02-12.8025 12.14-14.1534 12.43-5.5164 1.36-6.6821-8.93-8.9201-13.36-5.4782-10.35-22.5409-24.23-25.7334-4.15-.8461 5.45-.0514 11.97.0708 17.57.0677 2.68 10.9667 44.45 26.5834 38.52 8.3839-3.16 7.9016-2.78 15.3227-8.2 5.236-3.89 8.053-7.7 13.788-11.31 6.53-4.09 8.363-4.76 14.047-10.38 20.443-19.81 3.617-17.33 45.105 8.13 18.675 11.5 30.705 5.39 28.557 16.17-.95 4.47-6.906 13.36-11.909 7.76-1.801-1.94-2.794-4.61-4.482-6.76-3.289-3.97-16.012-14.33-22.088-7.09-3.116 3.64-1.792 10.85-1.361 15.44.996 10.59 3.053 19.53 8.897 28.77 4.182 6.59 11.946 22.45 18.519 25.51 15.655 7.29 22.78-22.3 34.064-36.88 2.365-3.01 9.068-13.46 11.341-14.67 3.3-.25 12.177 5.97 17.579 7.84 5.401 1.87 10.689 3.94 16.556 4.76 4.386.63 11.204.93 15.53.74 16.933-.56 28.584-5.31 42.863-11.2 5.144-2.1 8.706-4.43 13.407-6.91 7.455-4.09 3.59-9.84 12.25-11.39 3.638 2.19 4.177 1.7 6.547 3.57 5.036 2.98 7.636 5.38 12.751 6.82 10.635 1.01 18.531.34 23.111-10.78 5.167-17.51-5.747-17.1-5.901-20.08zm-197.383-283.671 16.01-10.582c.496-.642.978-1.028 1.647-1.045 4.725.038 11.685 21.514-8.443 20.271-5.993-.36-15.722.988-20.059-8.586 3.407-2.291 3.947 1.179 10.845-.058zm-61.352 265.351c-3.685 3.72-6.865 5.61-9.895 9.56-3.143 4.16-6.526 5.01-10.012 8.84-4.137 4.51-15.0179 13.25-20.5005 15.95-14.5015 7.22-12.5059-2.6-16.6088-10.72-2.1947-4.27-7.2657-19.54-6.0598-24 1.4849-5.88 6.2797-6.2 8.6249.14 11.3931 30.18 6.3909 35.52 38.9232 3.44 3.629-3.61 5.728-5.46 10.185-8.21 5.848-3.81 10.758-.37 5.343 5zm206.08 40.06c-3.799 3.92-24.955 12.64-29.107 13.45-18.955 3.91-37.431 6.5-55.318-3.36-3.395-1.92-9.485-5.37-12.129-7.92-13.745-13.45-13.862 6.79-23.816 19.48-11.227 14.47-7.863 15.98-14.291 24.08-4.234 5.38-9.487 15.59-17.017 1.18-6.64-12.73-3.869-6.68-8.959-19.58-2.415-5.98-6.978-15.15-1.35-20.67 6.195-2.56 9.596 22.18 19.449 23.4 6.024.78 8.492-8.24 11.431-13.43 13.131-22.5 14.678-23.6 1.496-28.03-5.658-1.89-11.302-4.03-17.003-6.07-7.924-2.77-10.091-3.6-16.858-8.88-3.112-2.42-4.015-3.86-6.571-6.1-6.927-6.16-2.186 1.54-20.465-17.65-3.802-3.99-9.31-7.77-13.112-11.77-4.474-4.91-16.347-19.8-18.832-25.43-2.211-4.94-2.769-9.08-5.037-13.92-1.535-3.11-3.771-10.58-4.568-14.06-3.217-14.35-2.426-47.652.519-61.938 1.159-5.541 2.392-10.513 3.251-16.223 5.024-31.7 18.297-40.008 29.966-65.046 2.018-4.263 3.721-12.396 8.153-14.634 3.267-1.579 5.84 1.328 8.636 2.911 3.495 1.978 5.215 1.501 8.826 4.205 7.679 5.534 26.278 15.535 34.94 17.934 3.847 1.123 4.224 2.786 7.775 4.665 2.952 1.539 5.501 1.927 8.61 3.423 3.308 1.61 6.347 3.462 9.499 5.114 3.052 1.596 4.958 1.489 7.681 2.502 3.178 1.14 5.691 3.222 9.282 4.332 2.679.857 5.228 1.246 8.007 2.16 8.393 2.641 15.595 6.455 17.163 6.947 7.181 2.219 9.885-1.392 7.753-7.873-5.322-3.409-15.645-4.506-21.376-6.959-4.932-2.001-5.235-3.096-11.062-4.68l-21.014-8.995c-10.94-6.062-22.325-9.474-32.423-14.927-3.751-1.991-7.901-4.209-11.539-6.4-3.139-1.909-6.012-4.986-9.347-6.082-6.313-2.124-17.982-2.006-10.549-11.642 14.313-18.53 10.954-15.158 26.643-6.54 10.441 5.779 5.189 2.014 10.121 4.015-4.217 6.051-9.839 9.461-4.225 18.177 3.853 6.004 11.415 10.813 18.158 13.575 1.155.522 15.16.935 16.232-4.919 1.06-5.597-2.868-16.127-10.231-13.834-4.91 3.549 1.456 4.648-1.783 9.67-5.028-1.132-15.808-6.312-14.197-12.651 1.92-7.352 15.21-8.003 23.841-9.973 2.132-.507 7.726-.373 8.465-.746 3.949-1.852 2.639-5.362-1.221-6.228-3.661-.754-6.106-.161-9.484-1.414 2.093-6.726 3.541-14.872.653-21.649s-12.304-12.503.602-16.668c13.7-4.637 26.883-7.195 41.401-6.756 12.212.321 11.803 1.276 22.905 5.188 9.535 3.42 14.017 10.176 22.174 14.399 14.818 7.597 17.839 22.755 19.323 37.835.875 8.934-.244 13.706-2.586 22.269-7.179 26.656-46.489 68.613-59.101 113.949-2.581 9.218-5.617 15.279-8.841 23.997-1.379 3.84-1.62 7.53-3.069 11.72-1.575 4.64-1.647 8.03 3.637 9.17 5.649-3.92-.14-10.23 15.674-13.01 3.84-.73 15.6.39 19.646 1.63 18.198 5.82 6.04 1.44 21.583 8.92 27.478 13.18 9.082 25.18-9.46 15.08-11.496-6.24-9.687-16.43-18.517-14.57-2.037 6.63 4.329 7.73.325 13.63-6.182 2.31-17.661-3.27-20.495 6.86 4.301 4.28 6.413 2.18 11.304.99 8.9-2.21 27.793 3.08 34.752 6.62 7.359 3.78 28.83 23.84 33.783 34.42 7.117 14.45 2.519 31.89-8.706 43.33zm41.77-6.94c-2.751 2.53-1.526 2.69-3.521 5.52-2.497-1.41-2.201-2.17-4.74-3.74-1.741-1.11-3.764-1.73-5.605-2.91-.799-.45-7.117-7.45-7.447-8.04-2.421-3.87.406-15.85-.864-20.13-11.551-41.08-43.151-39.06-18.885-49.32 6.095-2.62 13.019-4.37 18.098-8.22 2.568-1.97 5.835-3.55 8.703-5.35 5.409-3.27 3.805-2.07 8.499-6.4 1.942-1.8 6.047-3.7 8.559-5.57 7.904-5.81 19.63-20.003 25.823-19.53 13.41 1 17.833 24.86 7.269 34.44-6.254 5.69-8.164 11.86-15.616 16.87-7.933 5.4-6.272 8.05-17.591 10.35-1.763.32-18.396 5.01-18.934 5.49-6.939 5.04 4.984 14.96 10.039 15.58 8.472 1.1 13.542-1.57 19.695 6.66-3.117 3.64-6.263 6.87-7.782 11.42-9.165-3.61-4.651-13.44-14.606-11.7-6.376 7.07 7.019 18.35 12.558 22.54 3.511 2.65 8.265 6.13 6.989 10.94-2.369 9.08-8.717 1.66-10.641 1.1z"/><path d="m227.16 1041.71c-2.579-7.78-12.95-13.92-9.879-21.67.17-.3 6.904-10.34 8.021-12.08 4.709-7.61 17.31-30.806 20.541-37.679 2.427-5.219 6.512-8.708 5.764-14.141-.878-5.903-5.477-6.396-9.062-2.625-2.877 2.986-4.275 9.183-6.223 13.09-6.537 13.176-19.221 36.985-26.919 47.785-5.59 7.78-2.094 13.71 5.509 21.71 3.416 3.51 5.799 5.13 4.81 10.37-11.883 7.25-8.212-14.14-20.23-12.24-3.921 5.29 1.997 8.11-4.88 10.95-6.309-1.2-2.189-6.39-3.562-11.65-7.924-2.77-8.441 10.26-15.072 3.34-8.676-9.13 18.083-11.92 21.864-16.5 4.32-5.07 5.562-11.22 8.485-17.08 6.31-12.78 11.401-20.841 18.583-32.597 3.761-6.178 17.488-25.304 4.653-28.482-5.462 4.291-2.276 7.281-5.801 11.878-7.659 10.036-29.723 58.331-35.688 61.411-6.76 3.56-28.061 8.11-20.876 25.23 2.385 5.57 5.286 5.1 10.371 6.14 8.034 1.64 3.353 5.72 9.331 9.37 11.756 7.18 12.041-10.33 22.473-3.37 3.425 2.34 9.615 5.84 13.632 6.66 13.075 2.53 5.884-12.49 4.155-17.82z"/><path d="m297.874 885.82c9.97-12.023 4.248-33.59-10.589-38.824-5.8-2.097-17.059-5.966-22.975-4.832-5.603 1.048-15.112 4.103-19.452 7.579-9.221 7.437-4.959 30.419 10.298 37.473 12.603 5.685 30.991 12.797 42.718-1.396zm-3.048-7.659c-7.755 10.905-24.095 6.929-35.61 3.047-5.302-1.814-10.139-8.64-9.792-14.377 3.444-.028 8.766 3.38 12.104 5.402 5.392 3.052 5.058 1.545 10.358-.597 3.41-1.366 7.749-1.81 10.843-4.014 3.306-2.348 5.754-5.972 9.42-7.325 2.726 1.939 3.593 5.066 3.877 8.524.284 3.457.951 6.471-1.2 9.34z"/><path d="m259.258 1099.83c-1.375 4.76 3.608 8.77 8.056 7.2 1.875-4.47-3.411-9.58-8.056-7.2z"/><path d="m388.218 1052.07c-2.458-6.14-7.809-6.01-8.528-1.01-.441 3.58 5.284 8.14 8.528 1.01z"/><path d="m257.364 1124.61c1.113 4.32 6.888 6.93 9.661 2.96-1.469-4.39-6.518-7.12-9.661-2.96z"/><path d="m286.408 1077.5c2.756 2.35 5.631 2.39 8.599.64 1.138-7.13-7.474-7.52-8.599-.64z"/><path d="m271.576 1024.27c-2.76 3.71 2.718 7.08 6.006 7.09 3.685-3.71-2.562-7.12-6.006-7.09z"/><path d="m402.96 1041.16c-2.856-2.41-6.808-1.48-6.89 3.09 3.064 4.37 7.195 1.96 6.89-3.09z"/><path d="m275.843 1094.06c1.971 1.64 2.084 1.44 4.073.72 2.009-3.08-1.902-5.95-5.199-4.78-.066 1.28-1.244 2.19 1.126 4.06z"/></g></g></svg>