<svg height="616" viewBox="0 0 297 616" width="297" xmlns="http://www.w3.org/2000/svg" xmlns:xlink="http://www.w3.org/1999/xlink"><linearGradient id="a" x1="50%" x2="50%" y1="0%" y2="100%"><stop offset="0" stop-color="#1f31fb"/><stop offset="1" stop-color="#7e29ff"/></linearGradient><path d="m136.546875 5.84765625c2.571615 72.58203125 3.857422 114.97526075 3.857422 127.17968775 0 18.30664-75.2753908 272.820312-87.8496095 279.269531s52.0624995-68.300781 52.0624995-25.082031-29.148437-125.878906 7.367188-125.878906 49.328125-4.097657 68.609375-31.230469c19.28125-27.132813-106.3320312 17.373047-120.9296875 12.609375s77.7382815-65.648438 44.9531245-58.746094c-32.7851558 6.902344 146.121094 193.636719 137.554688 221.515625s-149.0859375-124.121094-133.75-119.007812c15.335937 5.113281 47.835938 7.851562 91.964844 19.074218 44.128906 11.222657-19.792969 72.279297 41.785156 51.169922s29.640625-140.169922-14.40625-166.27539c-44.046875-26.105469-106.537109 154.132812-137.5175781 154.132812-30.9804688 0 79.4941401-154.820312 96.2519531-101.863281s-231.0039063 90.957031-155.3359375 101.863281c75.6679685 10.90625 80.8203125 49.111328 80.8203125 12.142578s133.164063 77.798828 88.402344 77.798828-63.839844-11.216797-88.402344 17.625 36.515625 14.601563 36.515625 32.6875c0 18.085938-50.8085938 46.794922-38.855469 68.798828 7.96875 14.669271 10.802735 14.669271 8.501953 0 3.975271 6.648438 6.673839 9.972657 8.095703 9.972657 1.421865 0 2.572907-3.324219 3.453125-9.972657l6.851563 9.972657 7.257812 23.617187c.921875-19.376302-1.497395-31.871745-7.257812-37.486328-8.640625-8.421875 7.730469-1.455078 0-16.164063" fill="none" stroke="url(#a)" stroke-linecap="round" stroke-linejoin="round" stroke-width="3"/></svg>