<svg height="616" viewBox="0 0 297 616" width="297" xmlns="http://www.w3.org/2000/svg" xmlns:xlink="http://www.w3.org/1999/xlink"><linearGradient id="a" x1="50%" x2="50%" y1="0%" y2="100%"><stop offset="0" stop-color="#1f31fb"/><stop offset="1" stop-color="#7e29ff"/></linearGradient><path d="m136.546875 5.84765625v116.66992175c0 18.306641 12.574219 29.279297 0 35.728516s-83.9921875-3.007813-83.9921875 40.210937 22.9140625 62.878907 59.4296875 62.878907 49.328125-4.097657 68.609375-31.230469c19.28125-27.132813 3.414063-41.373047-11.183594-46.136719-14.597656-4.763672-32.007812-6.902344-64.792968 0-32.7851568 6.902344-70.6679693 21.609375-79.2343755 49.488281-8.5664062 27.878907 67.703125 47.90625 83.0390625 53.019532 15.335937 5.113281 47.835938 7.851562 91.964844 19.074218 44.128906 11.222657-19.792969 72.279297 41.785156 51.169922s-23.876953 60.744141-67.923828 34.638672-53.019531-46.78125-84.0000001-46.78125c-30.9804688 0-77.2851563 14.761719-60.5273438 67.71875s31.1582031 95.351563 106.8261719 106.257813c75.667969 10.90625 112.867187 3.996093 112.867187-32.972657.000001-36.96875-4.265625-51.0625-49.027343-51.0625-44.761719 0-63.839844-11.216797-88.402344 17.625s-30.6953125 59.019532-30.6953125 77.105469c0 18.085938 38.6601565 15.632813 50.6132815 37.636719 7.96875 14.669271 10.802734 14.669271 8.501953 0 3.975271 6.648437 6.673839 9.972656 8.095703 9.972656s2.572906-3.324219 3.453125-9.972656l6.851563 9.972656 7.257812 23.617187c.921875-19.376302-1.497396-31.871744-7.257812-37.486328-8.640625-8.421875 7.730468-1.455078 0-16.164062" fill="none" stroke="url(#a)" stroke-linecap="round" stroke-linejoin="round" stroke-width="3"/></svg>