<svg height="616" viewBox="0 0 297 616" width="297" xmlns="http://www.w3.org/2000/svg" xmlns:xlink="http://www.w3.org/1999/xlink"><linearGradient id="a" x1="50%" x2="50%" y1="0%" y2="100%"><stop offset="0" stop-color="#1f31fb"/><stop offset="1" stop-color="#7e29ff"/></linearGradient><linearGradient id="b" x1="50%" x2="50%" y1="0%" y2="100%"><stop offset="0" stop-color="#7e29ff"/><stop offset="1" stop-color="#1f31fb"/></linearGradient><g fill="none" fill-rule="evenodd" stroke-linecap="round" stroke-linejoin="round" stroke-width="3"><path d="m136.546875 5.84765625c-13.238589 50.13948375-19.372053 83.85823375-18.400391 101.15624975.432313 7.696241 40.527737.092783 39.939454 7.304688-.047259.579357 35.652707-3.493199 37.453125 7.25.285981 1.706466-175.5195317-81.355469 11.042968 62.421875 27.789779 21.416632-104.937524-36.067055-76.886718-13.050782 135.875 111.488282-101.5850773-26.170537-102.3906255-25.371093-3.7062407 3.678155 116.0282435-58.6179377 109.2421875-62.636719-8.029433-4.7551236-6.386985 60.46051-6.851562 62.636719-.690033 3.232302-55.9640522 247.608964-35.0273442 252.644531 3.7359574.898549 40.6386492-78.65038 57.1147882-123.617187 4.646605-12.681551-2.433314-28.806216 0-32.034359 22.432842-29.760414 50.50826-75.72671 54.799274-71.621892 4.434805 4.24237-121.7980814 4.606804-154.0273435 13.050782-9.1475651 2.396636 97.1178935 32.355979 83.9921875 30.273437-7.067215-1.121293-171.5266841 91.555797-21.59928-58.425226 149.927405-149.98102375-13.568007-39.545065-20.2796262-18.106024-67.3632813 215.179688-47.386807-72.9483234-35.0039063-69.7148435 49.6463505 12.9638831 202.7998025 94.7272125 180.5234375 46.3007815-33.605469-73.0546878-.059784 63.606357-11.34875 63.636719-2.660285.007154-22.369666-22.082462-29.922919-24.307273-46.863696-13.803707-171.5823599-63.6378887-171.6111435-63.5169463-.8043134 3.3795483 90.3250335 114.1368693 82.3398435 132.6445313-5.752979 13.333959 121.26967 26.119287 130.542969 44.042969 2.884535 5.575306-186.4099565 41.191406-113.945312 5.376032 11.790198-5.82726 11.25315 23.243395 10.304687 24.349554-11.769129 13.725925-31.123995-7.18925-32.933594 5.786132-.522015 3.743014 32.640626 35.187455 40.191407 40.074219 17.846818 11.550224 20.762378-2.694858 19.53125 0-7.870901 17.228874-49.515318-25.251321-59.722657-15.730469-6.7433672 6.289848 11.055185 19.091294 6.03125 26.238282-20.8192957 29.617276-51.8351336 56.699431-57.0898435 59.394531-1.1970024.613933 210.7812505 48.507813 1.222856-48.754936-21.7060873-10.074489 12.7122608-144.861213 24.3279253-167.463814 5.6570147-11.007829 30.7150082 119.038008 31.5390622 111.921875 5.680645-49.05527-40.8268208-62.298035-49.9804685-65.285156-5.452666-1.779376-12.6177849-50.511928-18.8632812-38.125-5.2474749 10.407514 102.1917607 18.73477 103.0039067 44.324219.450914 14.207634-51.8927892-9.273615-78.5273442 5.878906-21.1519073 12.033417-18.8292253 64.333725-12.7226563 65.886718 7.9136776 2.01257 39.9020616-114.631851 42.1132813-106.425781 5.4328602 20.161921-30.3367138 178.664012-35.0039063 218.75-4.0258521 34.577589 9.6311502 93.632624-7.109375 83.710938-2.5203102-1.493724 51.5825235-40.296088 37.046875-32.460938-128.7070313 69.376953.3210853-54.953762 0-63.492187-2.5297291-67.271536-27.8483119-152.87258 0-224.683594 12.1533215-31.339148 25.8940445 38.273879 40.0937505 18.175781 23.564758-33.353285 28.314197 41.505184 45.84375 60.332032 7.021518 7.541153 37.343053-43.622761 39.121093-38.003907.118562.374673 50.378907 6.132813 50.378907-80.753351 0-3.549975-12.488266 67.730712-66.123232-29.262274-5.145294-9.304702 46.174783 84.255263 47.029482 87.6875 12.806334 51.426762-101.088005-101.616094-34.541217 57.93072 9.311684 22.324887-8.984173 68.104686-4.822065 41.346624 2.624989-16.875965 38.563409 50.735194 39.363282 39.371094 4.377942-62.199142-58.220416-72.817269-87.859375-50.582032-2.551952 1.914482 82.101562 102.565788 106.953125 76.160157 3.920735-4.165915-20.664088 26.405631-36.200313 33.816406-125.225469 59.732513-40.992103-44.194972-42.33875-43.699219-26.433375 9.73115-63.163978-45.986798-68.353516-47.917969-17.486043-6.507039 17.212464-25.05455 18.400391-18.359375 2.703497 15.236954 16.920051 59.242445 11.953125 76.160157-5.192664 17.686591-29.422316 8.197233-18.804687 19.722656 18.655253 20.250255 92.722001 22.558594 76.886718 22.558594-3.225437 0-262.2343748-171.847656-11.042968-22.558594 24.928644 14.81569-72.024515 42.833715-55.280565 53.183636 74.62004 46.124809-24.81509 89.28054-3.280552 20.642627 24.31493-77.499972 30.264633-128.400346 35.885418-129.943324 123.516274-33.906811-162.6143315-347.12537134 26.523047 8.04658 2.326106 4.368081 4.724097 8.837259 7.19562 13.409295 2.022166 3.740777-11.042968 108.487449 13.103808 9.388944 24.146777-99.098505 7.533023 4.476791 9.152911 7.421016 11.995644 21.802662-.128341 47.662044 0 71.034862.037571 6.842249-175.0612065-71.034862 36.200313-18.382855 8.040836 2.003991-89.5 18.382855 0 56.71875 8.476279 3.630679-29.768487-15.011743-36.200313-5.46875-23.576863 34.981331-35.744285 64.506237-22.256719-12.224518 31.042969-176.603425-96.74607-11.078292-96.9375-11.2247-2.350284-1.79753-16.5015315 15.632559-20.0429685 5.527343-1.8841036-5.376143 15.9857205-19.201318 14.0117185-26.628906-1.291015-4.85771-17.8234285 11.317255-19.2929685 5.820313-21.5901129-80.759706-45.7457149-244.502894-57.015625-231.269532-3.51711 4.129864-14.2841042-5.050511-16.4726563 8.511719-2.48539093 15.40171 4.0141156 54.766059 7.3125 79.554687 3.0427651 22.867551 3.4340612-28.786919 9.1601563-5.786132 8.845195 35.529699 23.3602109 142.460502 25.25 148.989258 1.6825035 5.812635 77.4979375-62.341329 95.9453125-33.226563 66.160156 104.417969-22.257812 70.036994-22.257812 71.957031 0 18.085938-28.5507817 47.373047-16.597657 69.376953 7.96875 14.669271 10.802735 14.669271 8.501953 0 3.975271 6.648438 6.673839 9.972657 8.095704 9.972657 1.421864 0 2.572906-3.324219 3.453125-9.972657l6.851562 9.972657 7.257813 23.617187c.921875-19.376302-1.497396-31.871745-7.257813-37.486328-8.640625-8.421875 7.730469-1.455078 0-16.164063" stroke="url(#a)"/><path d="m154.727205 29.8476562c-13.238589 50.1394838-19.372052 83.8582338-18.40039 101.1562498.432312 7.696241 40.527736.092783 39.939453 7.304688-.047259.579357 35.652708-3.493199 37.453125 7.25.285981 1.706466-175.5195314-81.355469 11.042969 62.421875 27.789778 21.416632-104.937525-36.067055-76.886719-13.050782 135.875 111.488282-101.585077-26.170537-102.3906252-25.371093-3.7062407 3.678155 116.0282432-58.617938 109.2421872-62.636719-8.029433-4.755124-6.386985 60.46051-6.851562 62.636719-.690033 3.232302-55.9640519 247.608964-35.027344 252.644531 3.735957.898549 40.638649-78.65038 57.114788-123.617188 4.646605-12.68155-2.433314-28.806215 0-32.034358 22.432842-29.760414 50.50826-75.72671 54.799275-71.621892 4.434804 4.24237-121.798082 4.606804-154.0273442 13.050782-9.1475651 2.396636 97.1178942 32.355979 83.9921872 30.273437-7.067214-1.121293-171.5266838 91.555797-21.599279-58.425226 149.927404-149.9810238-13.568008-39.545065-20.279627-18.106024-67.3632812 215.179688-47.3868069-72.9483234-35.0039062-69.7148435 49.6463502 12.9638835 202.7998032 94.7272125 180.5234372 46.3007815-33.605468-73.0546878-.059784 63.606357-11.34875 63.636718-2.660285.007155-22.369665-22.082461-29.922919-24.307272-46.863695-13.803707-171.5823596-63.637889-171.6111432-63.516946-.8043134 3.379548 90.3250332 114.136869 82.3398442 132.644531-5.75298 13.333959 121.26967 26.119287 130.542968 44.042969 2.884535 5.575306-186.4099561 41.191406-113.945312 5.376032 11.790198-5.82726 11.25315 23.243395 10.304687 24.349554-11.769129 13.725925-31.123995-7.18925-32.933593 5.786132-.522016 3.743014 32.640626 35.187455 40.191406 40.074219 17.846818 11.550224 20.762379-2.694858 19.53125 0-7.870901 17.228874-49.515318-25.251321-59.722656-15.730469-6.743368 6.289848 11.055184 19.091294 6.03125 26.238282-20.819296 29.617276-51.8351343 56.699431-57.0898442 59.394531-1.1970023.613933 210.7812502 48.507813 1.2228561-48.754936-21.7060874-10.074489 12.7122607-144.861213 24.3279252-167.463814 5.6570149-11.007829 30.7150079 119.038008 31.5390629 111.921875 5.680645-49.05527-40.8268215-62.298035-49.9804692-65.285156-5.4526659-1.779376-12.6177849-50.511928-18.8632812-38.125-5.2474748 10.407514 102.1917614 18.73477 103.0039064 44.324218.450915 14.207635-51.892789-9.273614-78.5273439 5.878907-21.1519073 12.033417-18.8292253 64.333725-12.7226563 65.886718 7.9136777 2.01257 39.9020612-114.631851 42.1132812-106.425781 5.432861 20.161921-30.3367136 178.664012-35.0039062 218.75-4.0258521 34.577589 9.6311502 93.632624-7.109375 83.710938-2.5203102-1.493724 51.5825232-40.296088 37.0468752-32.460938-128.7070314 69.376953.321085-54.953762 0-63.492187-2.529729-67.271536-27.8483121-152.87258 0-224.683594 12.153322-31.339148 25.894045 38.273879 40.09375 18.175781 23.564758-33.353285 28.314197 41.505184 45.84375 60.332031 7.021518 7.541154 37.343054-43.62276 39.121094-38.003906.118562.374673 50.378906 6.132813 50.378906-80.753351 0-3.549975-12.488265 67.730712-66.123232-29.262274-5.145293-9.304702 46.174783 84.255263 47.029482 87.6875 12.806334 51.426762-101.088005-101.616094-34.541217 57.93072 9.311684 22.324887-8.984173 68.104686-4.822064 41.346624 2.624988-16.875965 38.563408 50.735194 39.363281 39.371094 4.377942-62.199142-58.220416-72.817269-87.859375-50.582032-2.551951 1.914482 82.101562 102.565788 106.953125 76.160157 3.920735-4.165915-20.664088 26.405631-36.200313 33.816406-125.225468 59.732513-40.992103-44.194972-42.33875-43.699219-26.433375 9.73115-63.163978-45.986798-68.353515-47.917969-17.486043-6.507039 17.212464-25.05455 18.40039-18.359375 2.703497 15.236954 16.920051 59.242445 11.953125 76.160157-5.192663 17.686591-29.422316 8.197233-18.804687 19.722656 18.655254 20.250255 92.722001 22.558594 76.886719 22.558594-3.225438 0-262.2343754-171.847657-11.042969-22.558594 24.928645 14.81569-72.024515 42.833715-55.280565 53.183636 74.620041 46.124809-24.81509 89.28054-3.280552 20.642627 24.314931-77.499972 30.264634-128.400346 35.885419-129.943324 123.516273-33.906811-162.6143322-347.1253713 26.523047 8.04658 2.326105 4.368081 4.724096 8.837259 7.19562 13.409295 2.022166 3.740777-11.042969 108.487449 13.103808 9.388944 24.146776-99.098505 7.533022 4.476791 9.15291 7.421016 11.995644 21.802662-.12834 47.662044 0 71.034862.037571 6.842249-175.0612061-71.034862 36.200313-18.382855 8.040836 2.003991-89.5 18.382855 0 56.71875 8.476279 3.630679-29.768487-15.011743-36.200313-5.46875-23.576863 34.981331-35.744285 64.506237-22.256718-12.224518 31.042968-176.603425-96.746071-11.078292-96.9375-11.2247-2.350285-1.79753-16.501532 15.632559-20.042969 5.527343-1.884104-5.376143 15.98572-19.201318 14.011719-26.628906-1.291015-4.85771-17.823429 11.317255-19.292969 5.820313-21.590113-80.759706-58.1937569-283.271483-73.4882814-222.757813-15.2945246 60.51367 38.4242717 19.25434 41.7226562 44.042969 3.0427651 22.86755-1.8897891 172.186088 0 178.714844 1.6825035 5.812635 77.4979372-62.341329 95.9453122-33.226563 66.160157 104.417969-22.257812 70.036994-22.257812 71.957031" stroke="url(#b)" transform="matrix(-1 0 0 -1 310.718 574.126)"/></g></svg>