<svg height="616" viewBox="0 0 297 616" width="297" xmlns="http://www.w3.org/2000/svg" xmlns:xlink="http://www.w3.org/1999/xlink"><linearGradient id="a" x1="50%" x2="50%" y1="0%" y2="100%"><stop offset="0" stop-color="#1f31fb"/><stop offset="1" stop-color="#7e29ff"/></linearGradient><path d="m136.546875 5.84765625c16.93099 40.78124995 24.110677 76.93489585 21.539062 108.46093775-3.857421 47.289062-92.9570308 291.539062-105.5312495 297.988281s21.7070313-164.818359 7.109375-169.582031-51.23828125 66.742187-7.109375 77.964843c44.1289063 11.222657 44.046875 222.140625 0 196.035157-44.046875-26.105469 145.3476565-333.089844 162.1054685-280.132813 16.757813 52.957032 36.683594 184.179688-8.078125 184.179688s-55.777343-51.400391-80.339844-22.558594c-24.5625 28.841797 0 67.964844 0 86.050781.000001 18.085938-28.5507808 47.373047-16.597656 69.376953 7.96875 14.669271 10.802735 14.669271 8.501953 0 3.975271 6.648438 6.673839 9.972657 8.095703 9.972657 1.421865 0 2.572907-3.324219 3.453125-9.972657l6.851563 9.972657 7.257812 23.617187c.921875-19.376302-1.497395-31.871745-7.257812-37.486328-8.640625-8.421875 7.730469-1.455078 0-16.164063" fill="none" stroke="url(#a)" stroke-linecap="round" stroke-linejoin="round" stroke-width="3"/></svg>