<svg height="616" viewBox="0 0 297 616" width="297" xmlns="http://www.w3.org/2000/svg" xmlns:xlink="http://www.w3.org/1999/xlink"><linearGradient id="a" x1="50%" x2="50%" y1="0%" y2="100%"><stop offset="0" stop-color="#1f31fb"/><stop offset="1" stop-color="#7e29ff"/></linearGradient><path d="m136.546875 5.84765625c-13.238589 50.13948375-19.372053 83.85823375-18.400391 101.15624975.432313 7.696241 40.527737.092783 39.939454 7.304688-.047259.579357 35.652707-3.493199 37.453125 7.25.285981 1.706466-93.894556 26.35482-65.84375 49.371093 135.875 111.488282 13.637618-83.9890307 6.851562-88.007812-8.029433-4.7551236-6.386985 60.46051-6.851562 62.636719-.690033 3.232302 7.149229 216.593339 28.085937 221.628906 3.735957.898549-22.474632-47.634755-5.998493-92.601562 4.646605-12.681551-2.433314-28.806216 0-32.034359 22.432842-29.760414-2.110176-26.215131-15.235882-28.297673-7.067215-1.121293-171.5266841 91.555797-21.59928-58.425226 149.927405-149.98102375-13.568007-39.545065-20.2796262-18.106024-67.3632813 215.179688 111.8011152 18.140195 104.2478622 15.915384-46.863696-13.803707-81.28611 50.619923-89.2713 69.127585-5.752979 13.333959-55.8669875 85.234375 16.597657 49.419001 11.790198-5.82726 11.25315 23.243395 10.304687 24.349554-11.769129 13.725925-31.123995-7.18925-32.933594 5.786132-.522015 3.743014 95.753908 4.17183 103.304688 9.058594 17.846818 11.550224 20.762379-2.694858 19.53125 0-7.870901 17.228874-49.515318-25.251321-59.722657-15.730469-6.743367 6.289848 11.055185 19.091294 6.03125 26.238282-20.819295 29.617276-63.937335-6.770586-63.113281-13.886719 5.680645-49.05527 33.348011-84.675386 34.160157-59.085937.450914 14.207634-51.3479389-42.866227-49.1367192-34.660157 3.9217371 14.553981 31.5778092 128.542203 41.1917662 193.773884 3.704449 25.135069 4.730159 43.031182.68714 45.210491-128.70703125 69.376953 16.489054-54.953762 16.167969-63.492187-2.529729-67.271536-37.219237-155.39409-23.019531-175.492188 23.564758-33.353285 28.314197 41.505184 45.84375 60.332032 7.021518 7.541153-99.164063 151.530695-99.164063 64.644531 0-3.549975 176.175797-115.671077 122.540831-212.664063-5.145294-9.304702-11.190934 153.518669-40.829893 175.753906-2.551952 1.914482-34.749916 20.290546-39.939454 18.359375-17.486043-6.507039 17.212464-25.05455 18.400391-18.359375 2.703497 15.236954 80.033332 28.22682 75.066406 45.144532-5.192663 17.686591-29.422316 8.197233-18.804687 19.722656 18.655254 20.250255-6.180765 42.833715 10.563185 53.183636 74.620041 46.124809-24.81509 89.28054-3.280552 20.642627 24.31493-77.499972 30.264634-128.400346 35.885419-129.943324 123.516273-33.906811-204.1367788 92.728313-204.3282085 92.581905-.7382781-.564645 69.8968195-22.337585 86.4980465-13.90625 36.248237 18.409543 36.065263 75.501248 33.636273 68.570312-1.884104-5.376143 48.459431 1.144616 34.717243-37.94527s-37.596866-.366381-39.066406-5.863323c-21.590113-80.759706 45.732312-62.341329 64.179687-33.226563 66.160157 104.417969-22.257812 70.036994-22.257812 71.957031 0 18.085938-91.6640627 78.388672-79.710938 100.392578 7.96875 14.669271 10.802735 14.669271 8.501953 0 3.975271 6.648438 6.673839 9.972657 8.095704 9.972657 1.421864 0 2.572906-3.324219 3.453125-9.972657l6.851562 9.972657 7.257813 23.617187c.921875-19.376302-1.497396-31.871745-7.257813-37.486328-8.640625-8.421875 7.730469-1.455078 0-16.164063" fill="none" stroke="url(#a)" stroke-linecap="round" stroke-linejoin="round" stroke-width="3"/></svg>