<svg fill="none" height="1648" viewBox="0 0 3447 1648" width="3447" xmlns="http://www.w3.org/2000/svg"><g fill="#000"><path d="m1020.76 1524.72c-21.474-.54-35.97 17.17-44.561 34.35-9.128 17.71-19.866 42.4-8.591 61.19s34.902 17.71 52.622 10.2c8.59-3.76 20.4-9.66 22.55-20.4 2.14-10.73-6.98-20.4-16.11-24.69-18.26-8.05-43.491-1.07-51.545 17.71-1.611 3.76-1.074 8.59 2.684 11.27 3.222 2.15 9.128 1.08 11.276-2.68 4.295-10.2 15.575-15.03 25.775-13.42 2.68.54 4.83 1.08 6.98 2.69 1.61 1.07 4.83 3.22 5.37 5.9.53 3.76-10.74 8.59-13.96 9.66-10.21 4.3-26.313 6.98-32.219-5.37-3.221-6.44-2.148-14.49 0-20.93 2.148-7.51 5.369-14.49 8.591-21.47 6.443-12.34 15.568-27.91 31.138-27.91 10.74 0 10.74-16.1 0-16.1z"/><path d="m1124.93 1538.67c-6.45-13.42-21.48-21.47-36.51-19.32-14.5 2.15-27.39 14.49-29.54 29.52-1.07 7.52 1.08 15.03 8.06 19.32 6.44 3.76 15.03 3.22 22.01 2.15 14.5-2.68 27.39-12.34 34.37-25.23-4.84-1.61-10.21-2.68-15.04-4.29-1.61 32.2-6.44 64.41-13.42 96.08-2.15 10.2 12.88 14.49 15.57 4.29 8.05-32.74 12.35-66.56 14.5-100.37.53-8.05-11.28-10.74-15.04-4.29-3.76 6.97-10.2 12.88-17.72 15.56-3.75 1.61-8.05 2.15-11.81 2.15-4.29 0-5.9-1.08-4.83-5.37 1.61-7.51 9.13-13.96 16.64-14.49 8.59-1.08 15.57 4.29 19.33 11.81 4.3 10.2 18.26 1.61 13.43-7.52z"/><path d="m2482.35 249.244c-3.76 12.882-6.98 25.764-10.74 39.183-1.07 4.294 1.61 9.125 5.37 9.662 4.3 1.073 8.59-1.074 9.66-5.368 3.76-12.882 6.98-25.764 10.74-39.183 1.08-4.294-1.61-9.125-5.37-9.662-4.29-1.073-8.59 1.074-9.66 5.368z"/><path d="m2098.85 196.146c-169.75-54.564-340.01-108.5699-515.81-139.2523-86.53-14.8575-173.92-24.3077-261.5-24.6161-73.6-.3218-151.22 6.5002-216.95 42.407-66.25 36.4644-105.567 101.9584-126.416 172.6344-19.43 65.785-19.708 140.486-54.925 200.982-18.596 32.436-48.364 54.029-83.981 63.493-40.918 11.286-84.036 7.613-125.609 2.266-77.205-9.852-156.914-28.74-232.101-1.057-29.118 10.82-56.91 28.036-76.36 52.446-21.49 27.177-28.781 60.242-29.593 94.127-1.222 37.124 5.191 77.172-9.545 112.143-9.817 23.492-27.912 41.401-50.552 53.04-46.288 24.931-100.931 28.698-151.481 40.9-46.818 11.518-96.5144 31.748-117.2002 79.312-29.515 68.869 12.8956 149.949 53.7332 204.759 42.016 57.45 99.163 103.56 164.236 132.69 31.721 14.34 73.675 29.34 103.81 3.43 11.418-10.12 18.377-24.36 15.618-39.84-2.843-17.62-15.814-33.23-27.09-46.75-41.205-50.5-113.602-101.92-178.049-60.69-26.719 17.18-43.833 46.33-50.157 76.67-7.207 35.21.668 71.44 15.903 103.62 32.207 67.51 92.889 121.53 154.609 161.01 139.438 89.61 307.404 112.55 469.329 118.52 43.034 1.53 86.562 1.96 130.09 2.39 10.212.14 9.577-15.96-.635-16.09-162.271-1.13-329.947-3.11-483.282-63.7-66.576-26.39-129.263-63.14-181.688-112.12-49.681-47.48-105.056-116.76-88.624-190.49 6.881-29.82 25.047-59.56 54.123-71.45 33.303-13.67 68.651-2.71 96.83 17.14 14.904 10.16 28.305 23.06 40.118 36.57 11.256 12.99 27.508 30.08 31.403 47.12 3.916 17.58-11.624 32.16-27.051 35.99-20.212 5.1-41.489-3.2-60.042-10.52-63.358-26.52-119.862-69.97-162.309-124.72-20.9447-27.11-39.3345-57.55-51.8881-89.83-13.1745-34.41-20.7031-75.49-3.8003-110.009 21.9278-43.315 71.8144-58.715 115.4774-68.497 47.911-11.024 98.736-16.252 142.943-39.489 20-10.461 37.149-25.107 49.302-43.856 17.693-28.102 20.136-61.514 19.939-93.746-.323-35.452-3.413-72.944 12.502-105.275 13.402-27.932 37.848-48.241 65.252-61.68 68.518-33.33 144.798-19.68 217.196-9.101 71.326 10.621 157.133 20.671 216.908-30.047 48.335-41.131 61.287-107.735 72.369-167.279 12.867-68.75 29.938-139.815 77.228-193.801 48.86-55.1235 121.04-77.3138 192.23-83.882 79.72-7.9796 161.61-2.0735 240.93 7.1574 167.33 20.2695 330.26 65.4296 490.16 115.5456 39.17 12.426 78.34 24.853 117.5 37.279 13.02 3.248 16.7-12.48 6.9-15.854z"/><path d="m860.591 1556.62c5.038 5.17 9.54 10.37 14.043 15.56 4.502 5.2 9.562 10.91 13.013 16.69.578 1.05 1.178 2.64 1.093.49-.021-.54.021.54.021.54-.021-.54-.515.55-1.051.58-1.567 1.13-4.7 3.4-7.318 5.12-6.267 4.55-13.092 8.58-19.358 13.12-8.37 5.71.225 19.34 8.595 13.63 7.318-5.12 15.173-10.27 22.512-14.85 7.34-4.59 14.059-11.31 11.532-20.88-1.242-4.25-4.05-7.36-6.323-10.5-2.272-3.13-5.102-6.78-7.91-9.89-5.66-7.3-11.835-14.04-18.009-20.79-2.809-3.11-8.688-2.34-11.264.45-3.112 2.81-2.385 7.61.424 10.73z"/><path d="m2170.99 161.484c-5.91 30.595-10.74 61.727-13.43 92.859-.53 8.052 11.28 10.735 15.04 4.294 9.66-17.176 22.01-33.279 37.58-46.161.54-.537 1.08-1.073 2.15-1.61s0 0-.54-.537c0 0 .54 1.61.54 2.147 1.61 3.758 1.61 8.588 1.61 12.346.54 11.272.54 23.08 0 34.352-.54 10.198 15.57 10.198 16.11 0 .54-14.492.54-28.448-.54-42.94-1.07-10.199-6.44-23.081-18.79-22.008-6.44.537-11.81 5.905-16.64 10.199-4.84 4.294-9.13 8.588-13.43 13.419-8.59 9.661-16.11 20.397-22.55 31.668 5.37 2.147 10.74 3.758 15.57 4.831 2.69-29.521 6.98-59.043 12.89-88.565 2.15-10.198-13.42-14.492-15.57-4.294z"/><path d="m2296.09 204.425c-9.13-11.272-26.31-9.125-37.58-1.61-5.37 3.757-10.21 9.124-14.5 13.955-4.83 5.368-8.59 11.809-10.74 18.787s-1.07 14.492 3.22 20.397c4.3 5.367 9.67 8.588 16.65 9.124 12.35 1.611 24.16-5.367 32.21-13.419 10.74-10.735 17.18-25.227 18.26-40.793.53-4.294-3.76-8.051-8.06-8.051-4.83 0-7.51 3.757-8.05 8.051-2.15 16.639-1.07 33.816 3.22 50.455 1.08 4.294 5.91 6.978 9.67 5.368 4.29-1.074 6.44-5.905 5.37-9.662-3.76-15.029-4.3-30.595-2.69-46.161-5.37 0-10.74 0-16.11 0 0 1.61-.53 3.22-1.07 5.904s-1.61 4.831-2.15 7.515c-1.07 2.684-4.29 8.588-6.44 11.272-1.08 1.61-3.22 3.757-4.3 4.831-1.07 1.073-1.61 1.61-2.68 2.147-.54.536-1.08.536-1.08 1.073 1.08-1.073-.53.537-.53.537-1.61 1.073-3.22 2.147-5.37 2.684 1.07-.537-1.08.536-1.61.536-1.08.537-2.15.537-3.76 1.074s-.54 0 0 0c-.54 0-1.07 0-1.61 0-1.08 0-1.61 0-2.69 0-2.14 0 1.08.537 0 0-.53 0-1.07 0-1.07-.537-.54 0-1.07 0-1.07-.537-1.08 0 1.07.537 0 0 0 0-1.61-1.073-1.08-.536 1.08.536 0 0-.53-.537 0 0-1.08-1.074-.54-.537s-.54-.537-.54-.537-1.07-1.61-.54-1.073c.54 1.073-.53-1.61-.53-1.61 0-.537 0-1.611 0 0 0-.537 0-1.611 0-2.147 0-1.611 0 1.073 0-.537 0-.537 0-1.074.53-1.61 0-.537.54-1.611.54-2.147 0 0 .54-1.611 0-.537 1.08-2.684 2.69-4.831 4.3-6.978 2.14-3.221 5.9-7.515 9.66-10.735 2.15-2.147 3.76-3.221 5.91-4.831.53-.537 1.07-.537 1.61-1.074.54 0 1.07-.536 1.07-.536-.53 0-.53 0 0 0 1.08-.537 2.15-.537 3.22-1.074-1.61 0 0 0 0 0h2.15c1.61 0 .54 0 0 0 .54 0 1.61.537 2.15.537s1.07.537 1.61.537c-1.07-.537.54.536.54.536.53 0 1.07 1.074 0 0 .53.537 1.07 1.074 1.61 1.611 2.68 3.22 8.59 2.684 11.27 0 5.37-1.074 4.84-5.905 2.15-9.125z"/><path d="m2321.86 175.44c-4.83 24.691-6.44 49.918-3.76 75.146 1.08 9.125 12.35 10.735 15.58 2.147 8.59-21.47 24.16-40.257 43.49-53.676-3.76-1.073-7.52-2.147-11.28-2.683 9.67 16.639 10.74 37.036 2.69 54.749-1.62 3.757-1.08 8.588 2.68 11.272 3.76 2.147 9.13 1.073 11.28-2.684 10.73-22.544 9.66-49.382-2.69-70.852-2.15-3.757-7.52-5.368-11.27-2.684-23.09 15.566-40.27 37.573-51.01 63.338 5.37.536 10.74 1.61 15.57 2.147-2.69-23.618-1.61-47.772 3.22-70.852 1.07-4.294-1.07-8.588-5.37-9.662-3.22-2.147-8.05 0-9.13 4.294z"/><path d="m2430.86 193.153c-9.13-1.61-18.26.537-26.31 5.904-7.52 5.368-13.42 12.882-16.11 22.007-2.68 8.588-2.15 20.397 4.3 26.838 10.2 10.199 22.55-1.61 29.53-9.125 8.05-8.588 15.57-18.249 21.47-28.985-4.83-1.61-10.2-2.683-15.03-4.294 2.15 19.324 4.3 38.11 5.91 57.433.53 4.294 3.22 8.052 8.05 8.052 3.76 0 8.59-3.758 8.05-8.052-2.14-19.323-4.29-38.109-5.9-57.433-.54-3.757-2.15-6.977-5.91-7.514-3.22-1.074-7.51.537-9.13 3.757-4.83 8.588-10.73 16.103-17.18 23.617-3.22 3.221-6.44 7.515-9.66 9.662-1.08.537-1.08.537-.54.537-1.07 0-1.07.537 0 0 .54 0 1.61 0 2.15.537.54.536 0 .536 0-.537.54 1.073-.54-1.074-.54-1.61 0-.537-.53-2.684-.53-1.611-.54-6.978 2.14-12.882 6.98-17.713.53-.536 1.07-1.073 1.61-1.61.53-.537 1.07-.537.53-.537.54-.537 1.08-.537 1.61-1.073.54-.537 1.61-1.074 2.15-1.074s2.69-1.073 1.61-1.073c.54-.537 1.61-.537 2.15-.537s2.68-.537 2.15-.537h2.15c.53 0 3.22 0 2.14 0 4.3.537 8.59-1.073 9.67-5.367 1.07-3.758-1.08-9.125-5.37-9.662z"/><path d="m2579.59 213.55c.53 12.882.53 25.227 1.07 38.109 0 9.125 12.89 10.735 15.57 2.147 5.91-17.713 15.03-33.815 26.85-48.308-4.3-.537-8.59-1.073-12.89-1.61 6.44 14.492 12.89 28.985 19.33 43.477 2.15 5.368 11.28 5.368 13.96 0 9.13-19.86 23.09-37.036 41.88-48.845-4.3-2.147-8.05-4.83-12.35-6.977 2.15 19.86 0 39.183-7.52 57.433-1.61 4.294 1.61 8.588 5.37 9.661 4.3 1.074 8.59-1.61 9.67-5.367 7.51-19.86 10.2-40.794 8.05-61.727-.54-5.368-6.44-10.736-12.35-6.978-20.4 13.419-37.05 32.205-47.25 54.749h13.96c-6.44-14.493-12.88-28.985-19.33-43.477-2.14-4.294-9.66-5.368-12.88-1.611-13.96 16.64-24.16 34.89-31.14 55.286 5.37.537 10.73 1.611 15.57 2.147-.54-12.882-.54-25.227-1.08-38.109 1.61-10.199-14.49-10.199-14.49 0z"/><path d="m2732.61 193.153c-20.4-4.294-41.88 10.735-46.71 31.132-2.69 10.735-.54 28.985 13.42 29.521 6.44 0 11.81-3.757 16.64-7.514 4.84-3.221 9.13-6.978 12.89-11.272 8.59-9.125 15.57-20.397 19.87-32.205 1.61-4.294-1.61-8.589-5.37-9.662-4.83-1.074-8.06 1.61-9.67 5.368-8.05 20.396-4.83 45.624 8.59 63.337 2.69 3.22 6.98 5.367 11.28 2.684 3.22-2.147 5.37-7.515 2.68-11.272-11.27-15.029-13.96-33.279-6.98-50.992-5.37-1.61-10.2-2.684-15.57-4.294-5.37 14.492-16.1 27.911-28.99 36.499-1.07.537-3.76 1.611-4.3 2.684-.53.537-.53 0 .54.537l1.07.537c.54 0 0 1.073 0-.537 0 .537 0 0 0-.537 0-1.073-.53-1.61-.53-2.684 0-1.073 0 0 0 .537 0-.537 0-1.074 0-1.61 0-1.074 0-1.611 0-2.684 0-.537 0-.537 0-1.074 0 1.074 0 .537 0 0 .53-1.61 1.07-3.22 1.61-4.83 0 0 .54-1.611 0 0 0-.537.54-.537.54-1.074.53-1.073 1.07-1.61 1.61-2.684.53-.536 1.07-1.61 1.61-2.147 0 0 .53-1.073.53-.536-.53.536.54-.537.54-.537 1.07-1.611 2.69-2.684 3.76-3.758 0 0 1.61-1.073.54-.536-.54.536.53-.537.53-.537 1.08-.537 1.61-1.074 2.69-1.61.53 0 1.07-.537 1.07-.537s1.61-.537.54-.537c-1.08.537.54 0 .54-.537.53 0 1.07-.536 1.61-.536 1.07-.537 2.14-.537 2.68-.537h1.07c-1.61 0 0 0 .54 0h3.22 1.08 1.07c4.3 1.073 8.59-1.074 9.67-5.368.53-4.294-1.62-9.125-5.91-10.198z"/><path d="m2805.09 185.638c-12.88-6.978-28.99-.536-36.51 11.272-7.51 11.809-8.59 31.132-5.37 45.088 1.61 6.441 5.37 12.882 11.82 15.029 8.05 2.684 15.03-1.61 19.86-7.515 10.74-13.419 18.26-29.521 24.16-45.624 6.98-18.25 10.21-37.036 11.28-56.359-5.37 0-10.74 0-16.11 0v112.718c0 10.199 16.11 10.199 16.11 0 0-37.572 0-75.145 0-112.718 0-10.199-15.57-10.199-16.11 0-1.61 30.595-11.27 60.116-27.92 85.881-1.07 1.61-3.76 7.514-6.44 8.051-1.08.537 0 .537 0 0-.54 0-.54-1.074-.54-1.61-1.07-5.905-1.61-11.809-1.07-18.25.53-6.441 1.07-13.956 5.9-18.786 3.23-3.221 8.59-5.905 12.89-3.758 9.13 5.368 17.18-8.588 8.05-13.419z"/><path d="m2851.27 231.263c15.57-8.588 28.99-21.471 37.05-37.573 4.29-9.125 7.51-20.934-3.22-26.838-8.06-4.294-18.8-1.61-25.78 2.147-14.49 8.051-23.62 24.691-26.31 40.257-1.61 9.661-2.14 19.86 3.23 28.448 4.29 6.978 11.81 11.808 19.86 12.882 22.02 3.221 37.59-12.345 49.94-27.911 2.68-3.221 3.22-8.052 0-11.272-2.69-2.684-8.6-3.221-11.28 0-4.3 5.904-9.13 11.272-14.5 16.102-4.83 4.294-9.12 6.441-15.03 7.515h-.54c-1.07 0-1.61 0-2.68 0-.54 0-3.22 0-2.15 0-3.22-.537-4.3-1.074-6.98-2.684-.54-.537-1.07-1.073-2.15-2.147.54.537-.53-.537-.53-.537-.54-.536-.54-1.073-1.08-2.147-1.07-3.22-1.07-6.441-1.07-9.661.53-11.272 5.9-23.081 13.96-30.595 2.15-2.147 3.22-2.684 5.9-4.294 1.08-.537 1.08-.537 2.15-1.074 1.08-.537 1.61-.537 2.69-.537 0 0 2.68-.536 1.61-.536h3.76s1.07.536.53.536l-1.07-1.073c-.54 0 .54-1.074 0 0-.54.537-.54 2.147-.54 2.684-.54 1.073-1.07 2.683-1.61 3.757-6.98 13.419-17.72 23.617-30.6 30.595-11.28 5.368-2.69 19.323 6.44 13.956z"/><path d="m2948.45 182.955c-2.68 12.345-5.37 25.764 0 38.109 4.3 9.125 13.43 17.177 24.16 17.177 11.82 0 20.94-9.125 27.39-17.177 7.51-9.661 13.42-20.933 16.1-33.279-5.36-.536-10.73-1.61-15.57-2.147 1.61 17.177 2.69 34.89 2.69 52.066 0 14.492.54 29.521-2.15 44.014-2.15 12.882-6.44 26.301-15.57 36.499-4.3 4.831-10.74 9.662-17.72 10.199-5.37.536-12.35-2.684-12.88-9.125-.54-10.199-16.65-10.199-16.11 0 1.61 18.25 19.33 28.448 36.51 24.154 17.72-4.831 29.53-21.47 35.97-37.573 6.45-16.64 8.06-35.426 8.59-53.676.54-22.007-1.07-44.551-2.68-66.558-.54-8.588-13.42-11.808-15.57-2.147-1.61 7.515-4.3 14.493-8.59 21.471-3.76 5.904-9.13 13.955-15.57 16.639-5.91 2.684-11.28-2.684-13.43-8.051-3.22-8.588-.53-18.25 1.61-26.838.54-9.125-15.03-13.419-17.18-3.757z"/><path d="m3035.43 174.903c-7.51 10.199-15.03 21.471-16.64 34.353-1.61 12.345 3.22 24.691 13.96 32.205 10.2 7.515 24.16 6.441 32.21-3.22 8.06-9.125 11.28-22.544 10.74-34.353-.53-13.956-5.9-26.838-15.57-37.036-2.68-3.221-8.59-3.221-11.27 0-3.22 3.22-2.69 8.051 0 11.272 10.74 11.808 14.49 30.595 6.98 44.551-1.08 1.61-2.15 3.22-3.22 4.83-1.08 1.074-2.69 2.147-3.23 2.147 0 0-1.61.537-1.07.537h-.54c-.53 0-.53 0-1.07 0-1.07 0 1.07 0 0 0-.54 0-1.61-.537-2.15-.537-1.07-.536 1.08.537-.54 0-.53 0-1.07-.536-1.61-1.073-2.68-1.61-4.83-4.294-6.44-7.515-.54-1.073-1.07-2.147-1.61-4.294v-.536c0-.537 0-1.074 0-1.611 0-1.073 0-2.683 0-3.757 1.07-10.735 8.59-19.86 14.5-28.448 2.68-3.757.53-9.125-2.69-11.272-3.76-1.61-8.59 0-10.74 3.757z"/><path d="m3083.22 179.734c-4.3 11.272-7.52 24.154-4.3 36.5 2.69 10.198 10.21 19.323 20.94 23.08 22.56 7.515 39.74-16.103 41.35-35.963 1.07-14.492-3.76-28.448-5.37-42.403-.54-4.294-3.22-8.052-8.06-8.052-4.29 0-8.59 3.758-8.05 8.052 1.07 13.419 5.37 26.301 5.37 39.72 0 8.051-3.76 17.713-10.74 22.007-3.22 2.147-6.44 2.683-10.2 1.073-3.22-1.073-5.91-3.757-7.52-6.978-5.37-9.661-1.61-22.543 2.15-32.205 1.61-4.294-1.61-8.588-5.37-9.662-4.83-2.147-8.59.537-10.2 4.831z"/><path d="m3231.95 121.228c-1.61 35.425-3.22 70.851-4.3 106.277-.53 10.199 15.57 10.199 16.11 0 1.61-35.426 3.22-70.852 4.3-106.277.53-10.199-15.58-10.199-16.11 0z"/><path d="m3272.75 160.947c-10.2 11.272-21.47 25.765-19.86 42.404 1.61 14.493 12.88 29.522 28.99 28.448 16.11-1.073 24.16-16.102 28.46-29.521 2.15-6.978 3.76-14.493 2.68-21.471-1.07-7.514-4.29-15.565-11.27-19.323-13.43-6.978-32.75 1.074-30.07 18.25.54 4.294 5.91 6.441 9.66 5.368 4.3-1.074 6.45-5.368 5.37-9.662.54 2.147 0 .537 0 0 0-1.074-.53 2.147 0 .537 0-.537.54-1.074 0 .536.54-1.073-.53 0-.53.537 0 0 .53-.537 1.07-1.073.54-.537-1.07.536-.54.536.54 0 1.08-.536 1.08-.536 1.07-1.074-1.61.536 0 0 .53 0 1.61-.537 2.15-.537-2.15.537.53 0 1.61 0 .53 0 1.07.537-.54 0h1.07s2.15.537.54 0c-1.07-.537.54.537 1.07.537.54 0-1.07-1.074 0 0 0 .536.54.536.54 1.073-.54-.537.54 1.61 1.07 1.61-.53-1.073 0 .537 0 .537 0 .537.54 1.074.54 2.147 0 0 .54 1.611 0 .537v2.684c0 4.831-1.07 9.125-2.68 14.492-.54 1.074-.54 2.147-1.08 3.221 0 .537-.53 1.073-.53 1.61 0 0-1.08 2.147-.54 1.074-.54 1.073-2.15 4.294-3.22 5.904-1.08 2.147.53-.537-.54.537-.54.536-.54.536-1.07 1.073-.54.537-1.08 1.074-1.08 1.074s-1.07 1.073 0 0c-.53.536-1.07.536-1.07 1.073 0 0-2.15 1.074-1.07.537 1.07-.537-1.08.537-1.08.537-.54 0-2.68.536-1.07 0-.54 0-3.22 0-1.61 0-.54 0-1.08-.537-1.61-.537-.54 0-1.61-.537-.54 0-1.07-.537-1.61-1.074-2.69-1.61-1.07-.537-.53-.537 0 0-.53-.537-1.07-1.074-1.61-1.611-.53-.536-1.07-1.073-1.07-1.61-1.07-1.073 1.07 1.61-.54-.537-.53-1.073-1.07-1.61-1.61-2.683-1.07-2.147 0 .536-.53-.537 0-.537-.54-1.074-.54-1.61 0-.537-.54-1.074-.54-1.611 0 0-.54-2.684 0-1.073-.54-5.905 1.08-10.735 3.76-15.566 3.22-5.905 6.98-10.199 11.28-15.029 2.68-3.221 3.22-8.052 0-11.272-1.62-2.147-6.98-2.684-10.21.536z"/><path d="m3344.7 163.095c-15.57-4.294-32.21 2.683-41.88 15.566-9.66 13.419-6.98 31.668 3.76 44.014 11.28 12.882 30.07 15.566 44.56 5.904 13.96-9.662 20.94-27.911 12.35-44.014-4.29-7.515-11.27-12.882-19.33-16.103-8.59-3.22-17.18-2.684-25.23 1.074-3.76 1.61-4.83 7.514-2.69 11.272 2.15 4.294 6.98 4.83 11.28 2.683-1.61.537.54 0 .54 0 .53 0 1.07-.536 2.14-.536 0 0 2.15-.537 1.08 0-1.08 0 1.07 0 1.07 0h2.15c.54 0 2.68.536.54 0 1.61 0 2.68.536 4.29 1.073.54 0 1.08.537 2.15.537-.54 0-1.07-.537 0 0s2.68 1.61 3.76 2.147c1.07.537.54 0 0 0 .54.537 1.07 1.073 1.61 1.61 1.07 1.074 2.15 2.147 2.68 3.221-1.07-1.611 0 .537.54.537.54.536.54 1.073 1.07 1.61 0 .537.54 1.073.54 1.073-.54-1.61 0 .537 0 .537 0 .537.54 1.61.54 2.147.54 2.147 0-1.073 0 .537v2.147c0 .537-.54 3.22 0 1.61 0 1.074-.54 2.684-1.08 3.757 0 0-1.07 2.147-.53 1.074-.54.537-.54 1.61-1.08 2.147 0 .537-.53 1.073-.53 1.073s-1.61 2.148-.54 1.074c-1.07 1.074-2.15 2.147-3.22 3.221-3.22 3.22-8.59 4.83-12.35 4.83-.54 0-1.07 0-2.15 0-1.61 0 1.61.537-.54 0-.53 0-1.61-.536-2.14-.536 0 0-2.15-.537-1.08-.537 1.08.537-1.07-.537-1.07-.537-.54-.537-1.07-.537-2.15-1.073-.54-.537-1.07-.537-1.61-1.074 1.07 1.074-.54-.537-.54-.537-3.75-3.757-5.9-6.978-7.51-12.345 0-.537 0-1.074-.54-1.61-.54-2.147 0 1.61 0-.537 0-1.61 0-2.684 0-4.294s-.54 1.61 0-.537c0-.537.54-1.61.54-2.147s.53-1.61.53-2.147c-.53 1.073 0-.537.54-.537.54-.537.54-1.073 1.07-2.147 0 0 1.62-2.147 1.08-1.61-.54 1.073 1.07-1.074.54-1.074.53-.536 1.61-1.61 2.14-2.147.54-.536.54-.536 1.08-1.073-1.08 1.073 1.07-.537 1.07-1.074 1.07-.536 2.69-1.61 3.76-2.147 2.15-1.073-1.61.537.54-.536 1.07-.537 1.61-.537 2.68-1.074.54 0 1.07 0 1.61-.537h1.61c-1.07 0-1.07 0 0 0h4.3c2.15 0-1.61-.536.53 0 1.08 0 2.15.537 2.69.537 4.29 1.074 8.59-1.61 9.66-5.368 2.15-3.757-.53-8.051-4.83-9.124z"/><path d="m3371.01 131.963c-3.22 32.742-1.07 66.021 6.44 98.226 2.15 10.199 17.72 5.904 15.57-4.294-6.98-30.595-9.12-62.264-5.9-93.932.53-4.294-3.76-8.052-8.06-8.052-4.29 0-7.51 3.758-8.05 8.052z"/><path d="m3424.7 140.014c-10.2 7.515-20.4 15.566-30.6 23.081-5.37 4.294-10.74 8.051-16.11 12.345-4.83 3.757-8.59 9.662-6.98 16.103 1.61 5.904 6.44 9.125 11.81 10.735s11.28 2.684 17.18 3.757c12.35 2.147 24.17 4.294 36.52 5.904 4.29.537 8.59-1.073 9.66-5.367 1.07-3.757-1.07-9.125-5.37-9.662-10.2-1.61-20.94-3.22-31.14-4.831-5.37-1.073-10.74-2.147-16.11-3.22-2.15-.537-4.29-1.074-6.98-1.61-1.61-.537 1.08 0-1.07-.537-.54-.537-1.08-.537 0 0 0 .537.53.537.53 1.073v1.074c-.53 2.147-.53 2.147 0 1.073-.53.537 1.08-1.073 1.08-1.073 1.61-1.61 3.76-2.684 5.37-4.294 4.29-3.221 8.59-6.441 12.88-9.662 8.59-6.441 17.19-13.419 26.31-19.86 3.22-2.684 5.37-6.978 2.69-11.272-.54-4.294-5.91-6.441-9.67-3.757z"/></g></svg>