<svg fill="none" height="784" viewBox="0 0 507 784" width="507" xmlns="http://www.w3.org/2000/svg" xmlns:xlink="http://www.w3.org/1999/xlink"><clipPath id="a"><path d="m0 0h507v784h-507z"/></clipPath><g clip-path="url(#a)" fill="#000"><path d="m318.105 305.606c60.299-98.384 123.058-196.153 187.049-292.078 6.768-9.83844-9.23-19.06196-15.998-9.22353-63.99 95.92453-126.75 193.69453-187.048 292.07853-6.153 10.453 9.844 19.677 15.997 9.223z"/><path d="m432.55 53.4967c22.765-9.8384 45.531-19.6768 68.297-29.5153-4.922-2.4596-9.23-5.5341-14.152-7.9937 0 20.2918.615 40.5835.615 61.4902 0 11.6831 18.459 11.6831 18.459 0 0-20.2918-.615-40.5835-.615-61.4902 0-7.37881-7.384-10.45332-14.152-7.99371-22.766 9.83841-45.531 19.67681-68.297 29.51531-4.307 1.8447-5.538 8.6086-3.077 12.9129 3.077 4.3043 7.999 4.9192 12.922 3.0745z"/><path d="m8.61395 485.158c35.68685-2.46 70.75845-9.224 103.98405-20.292 11.075-3.689 6.153-21.522-4.922-17.832-31.9953 11.068-65.221 17.832-99.67734 19.677-11.07524.615-11.07524 19.677.61529 18.447z"/><path d="m33.8407 479.624c0 29.515.6153 59.645.6153 89.16 0 11.684 18.4588 11.684 18.4588 0 0-29.515-.6153-59.645-.6153-89.16-.6153-11.683-19.0741-12.298-18.4588 0z"/><path d="m81.8338 487.617c-.6152 29.516-1.2305 59.031-2.4611 88.546 0 4.919 4.307 9.224 9.2293 9.224 5.5377 0 8.6141-4.305 9.2294-9.224.6153-6.764 3.0766-14.143 6.1526-20.292 1.846-3.689 3.692-6.764 6.153-9.838 1.231-1.23 2.461-3.075 3.692-4.304.615-.615 1.231-.615 1.846-1.23-.615 0-.615 0-1.231 0-1.23-1.23 0 1.23.616 1.845.615 1.844 1.23 3.689 1.845 5.534 1.231 4.304 2.462 7.993 3.077 12.298 1.23 8.608 1.846 17.217 1.23 25.826-.615 4.919 4.308 9.223 9.23 9.223 5.537 0 8.614-4.304 9.229-9.223.616-12.298 0-24.596-3.076-36.895-2.461-11.068-6.768-26.44-20.305-26.44-12.306 0-20.3045 11.068-25.2268 20.291-6.1529 10.454-9.2293 21.522-10.4599 33.205h18.4587c.6153-29.515 1.231-59.03 2.461-88.546-1.23-11.683-19.6892-11.683-19.6892 0z"/><path d="m156.284 520.207c-1.231 23.367-2.461 46.118-4.307 69.484 0 4.919 4.307 9.224 9.229 9.224 5.538 0 9.229-4.305 9.229-9.224 1.231-23.366 2.462-46.117 4.307-69.484 0-4.919-4.307-9.223-9.229-9.223-5.538 0-9.229 4.304-9.229 9.223z"/><path d="m221.505 499.915c-12.306 1.845-23.996 4.92-31.38 15.373-6.768 9.223-7.383 23.366 1.846 31.36 6.768 6.149 15.997 7.379 24.612 9.223.615 0 1.845.615 2.461.615.615 0 2.461 1.23.615 0 .615.615 1.846.615 2.461 1.23-1.846-1.23 0 0 .615.615-1.23-1.845.616.615 0 0-.615-.615 0 1.23 0 0s0 .615 0 .615c0 1.23 0 0 0-.615 0 .615 0 1.23-.615 1.845 0-.615.615-1.23 0 0 0 .615-.615 1.23-.615 1.23.615-1.23 0 0 0 0-.615.615-1.231 1.229-1.846 1.844-1.231 1.23 1.231-.615 0 0-.615.615-1.231.615-1.846 1.23 1.231-.615-1.23.615-1.846.615h-.615c-1.231 0-1.846 0-3.076 0-6.153-.615-12.306-3.689-17.844-6.764-4.307-2.459-9.845-1.23-12.921 3.075-2.461 4.304-1.231 10.453 3.076 12.913 11.691 6.149 25.843 12.912 38.764 7.378 11.075-4.304 20.304-16.602 16.613-28.9-3.077-10.453-12.921-14.758-22.151-17.217-3.692-.615-7.999-1.845-11.69-3.075 1.845.615-.616-.615-1.231-.615s-1.231-1.23 0 0c-.615 0-.615-.615-1.231-1.229 0 0-1.23-1.23 0 0 .616 1.229 0-.615-.615-.615-.615-1.23.615 1.229 0 0 0-.615 0-1.845 0-.615 0-.615 0-1.23 0-1.845 0 1.23 0 0 0-.615 0 0 .615-1.845.615-1.23s.616-1.23.616-1.23c.615-.614.615-1.229 1.23-1.844-.615.615 0 0 .616 0 1.23-1.23 1.23-1.23 3.076-2.46 2.461-1.23 4.307-1.845 7.384-2.459 3.076-.615 6.768-1.23 10.46-1.845 4.922-.615 7.383-6.764 6.152-11.068-1.845-3.69-6.768-5.535-11.69-4.92z"/><path d="m163.052 476.549h4.307c1.231 0 2.461 0 3.692-.615s1.846-1.23 3.076-1.845c.616-.614 1.231-1.844 1.846-3.074.616-1.23.616-2.46.616-3.689 0-.615 0-1.845-.616-2.46-.615-1.845-1.23-3.075-2.461-4.304-.615-.615-1.23-1.23-1.846-1.23-1.23-.615-3.076-1.23-4.922-1.23-1.231 0-2.461 0-4.307 0-1.231 0-2.461 0-3.692.615-1.23.615-1.846 1.23-3.076 1.845-.616.615-1.231 1.844-1.846 3.074.615 1.23 0 2.46 0 3.69 0 .614 0 1.844.615 2.459.615 1.845 1.231 3.075 2.461 4.304.616.615 1.231 1.23 1.846 1.23 1.231.615 3.077 1.23 4.307 1.23z"/><path d="m291.648 524.512c1.846 20.906 1.231 41.813-1.846 62.72-.615 4.919 1.231 9.838 6.153 11.068 4.307 1.23 10.46-1.23 11.075-6.149 3.692-22.137 4.923-44.888 2.461-67.639-.615-4.92-3.691-9.224-9.229-9.224-3.692 0-8.614 3.689-8.614 9.224z"/><path d="m379.019 508.524c-10.46-.615-21.535 2.46-30.149 8.609-4.307 3.074-8.614 6.764-11.69 10.453-1.846 2.46-3.692 4.919-4.923 7.379-2.461 4.304-1.846 8.608.615 12.913 2.462 5.534 7.384 9.223 12.922 11.683 2.461 1.23 5.537 1.845 8.614 1.845 1.23 0 3.076 0 4.307-.615 1.846 0 4.307-.615 4.922-.615s3.077 0 2.461 0c1.231 0 0 .615-.615 0 0 0 .615.615 1.231.615-1.231-.615-1.231-.615-.616 0 1.231 1.229 0 0-.615-.615 0 0 .615.615.615 1.23 0-.615-.615-1.845 0 0v1.229c.616 1.23 0-1.844 0-.615v2.46c0 1.845 0 0 0-.615v1.23c0 .615 0 .615-.615 1.23-.615 1.844.615-.615 0 0 0 .615-.615.615-.615 1.23-.616 1.229-.616.614 0 0 0 0-.616.614-.616 1.229-1.23 1.23 1.231-.615 0 0-.615 0-1.23.615-1.846 1.23-.615 0-1.845.615-.615.615-1.23.615-3.076.615-4.307 1.23-1.846 0 1.231 0-.615 0-.615 0-1.846 0-2.461 0-1.231 0-3.077 0-4.307 0-3.077 0-6.153-.615-7.999-.615-4.922-.615-10.46 1.23-11.075 6.149-1.231 4.304 1.23 10.453 6.153 11.068 11.075 1.845 22.765 3.075 33.225-1.844 8.614-4.305 14.152-12.913 14.152-22.752 0-9.838-6.153-19.062-15.998-20.907-3.691-.614-6.768 0-10.46.615-1.23 0-1.845 0-3.076.615-.615 0-1.231 0-1.846 0 .615 0 1.231 0 .615 0-.615 0-.615 0-1.23-.615-.615 0-1.231-.615-1.231-.615.616.615.616.615 0 0-.615-.614-.615-.614-1.23-1.229-.616-1.23-.616-1.23 0 0 0-.615-.616-1.23-.616-1.845-.615 2.46-.615 4.919-1.23 7.379.615-1.845 1.846-3.075 3.076-4.919 1.231-1.845-.615.614.616-1.23l1.845-1.845c1.231-1.23 2.462-2.46 4.307-3.689-1.23 1.229.616-.615 1.231-.615.615-.615 1.846-1.23 2.461-1.845 3.692-1.845 4.307-2.46 8.614-3.689.616 0 1.846-.615 2.461-.615h1.231c-.615 0-.615 0 0 0h6.153c4.922 0 9.229-4.305 9.229-9.224-1.23-7.379-5.537-11.068-10.46-11.068z"/><path d="m291.032 485.773c1.231 1.229 2.462 2.459 4.307 4.304.616.615 1.846 1.23 3.077 1.845 1.23.615 2.461.615 3.692.615 1.23 0 2.461 0 3.691-.615 1.231-.615 1.846-1.23 3.077-1.845.615-.615 1.23-1.23 1.23-1.845.616-1.23 1.231-3.074 1.231-4.919 0-.615 0-1.845-.615-2.46-.616-1.844-1.231-3.074-2.461-4.304-1.231-1.23-2.462-2.459-4.307-4.304-.616-.615-1.846-1.23-3.077-1.845-1.23-.615-2.461-.615-3.692-.615-1.23 0-2.461 0-3.691.615-1.231.615-1.846 1.23-3.077 1.845-.615.615-1.23 1.23-1.23 1.845-.616 1.229-1.231 3.074-1.231 4.919 0 .615 0 1.844.615 2.459.616 1.845 1.231 3.69 2.461 4.305z"/><path d="m479.311 517.133c-4.922-3.69-10.46-6.149-16.612-6.149-5.538 0-11.076 1.844-15.383 4.919-11.075 7.379-15.382 19.062-16.613 31.36-.615 5.534-.615 11.683 0 17.832 1.231 7.379 7.999 12.913 15.383 12.298 11.075-1.23 22.15-9.223 28.918-16.602 8.614-9.224 14.152-20.292 16.613-32.59-6.153-.615-12.306-1.845-17.843-2.46.615 20.292 1.23 39.969 1.846 60.261 0 4.919 4.307 9.223 9.229 9.223s9.229-4.304 9.229-9.223c-.615-20.292-1.23-39.969-1.845-60.261 0-4.304-3.692-8.608-7.999-9.223s-9.23 1.845-9.845 6.764c-.615 3.689-1.846 7.379-3.076 11.068-.616 1.23 0-.615-.616 1.23-.615.615-.615 1.845-1.23 2.459-.616 1.845-1.846 3.69-3.077 4.92 0 .615-1.23 1.844-1.23 1.844 0-.615-1.231 1.23-1.231 1.23-1.23 1.23-2.461 3.075-4.307 4.304-.615.615-1.846 1.23-2.461 1.845-.615 0-.615.615-1.231.615 0 0 1.231-.615 0 0-1.846 1.23-3.076 2.46-4.922 3.075-1.846.614-3.076 1.844-4.922 2.459 1.23-.615-.616 0-1.231.615 0 0 0 0-.615 0s-.615 0 0 0c0-.615 2.461 1.23 1.846.615.615.615 1.23 1.23 1.846 1.23.615.615-.616 0 0-.615 0 0 0 1.845 0 .615 0-.615 0-.615 0-1.23 0-2.46 0-4.304 0-6.764 0-1.845 0-4.304.615-6.149 0-1.23 0 0 0 0 0-.615 0-1.23 0-1.23 0-1.23.615-2.459.615-3.689s.615-2.46 1.231-3.075c.615-1.229 0 0 0 0 0-.615.615-.615.615-1.229.615-.615 1.231-1.845 1.231-2.46.615-1.23 0 0 0 0l1.23-1.23.615-.615s1.231-1.23.616-.615c-.616.615 0 0 .615 0s.615-.615 1.231-.615c.615 0 .615-.614 1.23-.614 0 0 1.846-.615.616-.615-.616 0 1.23-.615 1.845-.615.616 0 1.231 0 1.846-.615-.615 0-1.23 0 0 0 .616 0 3.077 0 1.846 0-1.23 0 1.231.615 1.846.615-2.461-.615 1.846 1.23 0 0 3.692 3.074 9.229 3.689 12.921 0 3.692-3.075 4.307-9.839.615-12.913z"/><path d="m43.6856 666.554c1.8459 35.049 3.0764 70.099 4.9223 105.763.6153 11.683 19.074 11.683 18.4588 0-1.8459-35.049-3.0765-70.099-4.9224-105.763-.6153-12.298-19.074-12.298-18.4587 0z"/><path d="m52.9149 744.646c3.0765-2.459 6.1529-4.304 9.8447-6.149.6153-.615 1.8458-.614 2.4611-1.229-1.2305.615.6153 0 1.2306-.615 1.8459-.615 4.3071-1.23 6.1529-1.845 1.2306 0 0 0-.6153 0h1.2306 3.0765 2.4611s-1.8458-.615-.6153 0c.6153 0 1.2306 0 1.8459.615.6153 0 1.2306.615 1.8459.615s1.8459.615 0 0c.6153 0 .6153 0 1.2306.615s1.2306.615 1.8459 1.23c.6152 0 .6152.614 1.2305.614 0 0 1.2306 1.23.6153.615s1.2306 1.23 1.2306 1.23c.6153.615 1.2306 1.23 1.2306 1.845-1.2306-1.23 0 0 .6153.615l.6153.615c.6153 1.229 0 0 0-.615.6153.615.6153 1.844.6153 2.459v1.23-.615 2.46s.6153-1.845 0-.615c0 .615 0 1.23-.6153 1.845 0 .615-.6153 1.844 0 .615-.6153.614-.6153 1.229-1.2306 2.459 0 0-1.2306 1.845-.6153 1.23s0 0 0 0c-.6153.615-.6153.615-1.2306 1.23s-1.2306 1.23-1.8459 1.23c-1.2305.614 1.2306-.615 0 0-.6152 0-.6152.614-1.2305.614-.6153.615-1.2306.615-1.8459 1.23-.6153 0-.6153.615-1.2306.615-.6153.615-.6153 0 0 0-2.4612.615-4.307 1.23-6.7682 1.845-.6153 0-.6153 0-1.2306 0h-.6153c-1.2306 0-1.8458 0-3.0764 0-4.9224 0-9.8447 0-14.767-.615-4.9223 0-9.2294 4.304-9.2294 9.224 0 5.534 4.3071 8.608 9.2294 9.223 10.4599.615 21.5352 1.23 31.9951-2.46 9.8447-3.689 17.8431-10.453 21.5351-20.291 7.999-20.292-11.6904-38.739-31.3797-38.739-11.6906 0-22.7658 5.534-31.9952 12.298-3.6917 3.074-6.1529 7.994-3.0764 12.913.6153 3.074 6.7682 5.534 11.0752 2.459z"/><path d="m121.828 726.199c-4.307 11.069-7.999 22.752-5.538 34.435 1.846 9.838 9.229 18.447 19.074 22.136 23.997 9.224 35.687-21.521 39.379-39.353 2.461-12.913 3.076-25.826.615-38.739-.615-4.919-6.768-7.379-11.075-6.149-5.538 1.23-7.384 6.149-6.153 11.068 1.231 9.224 1.231 20.292-1.231 29.515-1.23 4.92-2.461 9.839-4.307 14.143-1.23 2.46-2.461 4.919-3.691 7.379-1.231 1.845-1.846 3.074-2.462 3.689-.615.615-2.461 1.23-1.23.615-.615 0-1.231.615-1.846.615 1.231 0 1.231 0 0 0s-1.231 0 0 0h-.615c-.616 0-3.077-1.23-1.846-.615-3.692-1.844-4.923-3.074-6.153-6.764.615 1.845 0-1.23 0-1.23-.615-1.229-.615-2.459-.615-3.074 0-2.46 0-4.919.615-6.764 1.23-5.534 3.076-11.068 4.922-15.987 1.846-4.92-1.846-9.839-6.153-11.069-5.537-1.844-9.844 1.23-11.69 6.149z"/><path d="m214.121 769.242c-9.229-35.049-11.075-71.328-6.152-106.992.615-4.92-4.923-9.224-9.23-9.224-5.537 0-8.614 4.304-9.229 9.224-4.922 37.509-2.461 75.632 6.768 111.912 3.076 11.068 20.92 6.764 17.843-4.92z"/><path d="m185.203 704.678c12.305 2.459 24.611 4.304 36.917 6.764 2.461.615 4.922.615 7.384-1.23 1.845-1.23 3.691-3.075 4.307-5.534 1.23-4.305-1.231-10.454-6.153-11.069-12.306-2.459-24.612-4.304-36.918-6.763-2.461-.615-4.922-.615-7.383 1.229-1.846 1.23-3.692 3.075-4.307 5.534-1.231 4.305.615 10.454 6.153 11.069z"/><path d="m258.422 759.404c-3.692-31.975-1.231-63.95 6.153-95.31 3.076-11.683-14.767-16.602-17.843-4.919-7.999 32.59-10.46 66.41-6.769 100.229.616 4.919 3.692 9.224 9.23 9.224 4.307 0 9.844-3.69 9.229-9.224z"/><path d="m236.272 700.373c15.998-1.844 32.61-3.689 48.608-4.919 4.922-.615 9.229-3.689 9.229-9.223 0-4.305-4.307-9.839-9.229-9.224-15.998 1.845-32.61 3.689-48.608 4.919-4.922.615-9.229 3.69-9.229 9.224.615 4.304 4.307 9.838 9.229 9.223z"/><path d="m291.032 694.839c-9.229 7.994-19.074 19.062-20.304 31.975-1.231 6.764 0 14.143 3.692 19.677 3.076 4.919 7.998 7.994 12.921 10.453 9.229 3.69 20.304 1.845 28.918-2.459 10.46-6.149 15.998-17.218 15.383-28.901 0-13.527-6.769-26.44-17.229-35.049-3.691-3.075-9.229-3.689-12.921 0-3.076 3.074-4.307 9.838 0 12.913 1.846 1.23 3.077 3.074 4.923 4.304l1.23 1.23s-1.23-1.845-.615-.615 1.231 1.845 1.846 3.075c.615 1.229 1.23 1.844 1.846 3.074 0 .615 0 .615.615 1.23-1.231-1.845 0-.615 0 0 .615 1.845 1.231 4.304 1.846 6.149s0-2.46 0 0v1.845 3.074 1.23c0 1.23.615-2.46 0-.615 0 1.23-.615 2.46-.615 3.689l-.616 1.845c0-.615.616-.615.616-1.23 0 .615-.616.615-.616 1.23-.615.615-.615 1.23-1.23 2.46-.616 1.23 1.23-1.23.615-.615l-.615.615c-.616.615-1.231 1.23-1.846 1.844-1.231 1.23 1.846-1.229.615-.614-.615 0-.615.614-1.23.614-.616.615-1.231.615-1.846 1.23-2.461 1.23 1.846-.615-.616 0-.615.615-1.845.615-2.461.615-.615 0-1.23 0-1.23 0-1.846.615 2.461 0 .615 0-.615 0-1.846 0-2.461 0s-1.846 0-2.461 0c-.616 0-1.846-.615.615 0-.615 0-.615 0-1.231 0-.615 0-1.846-.615-2.461-.615-2.461-.615 1.846 1.23 0 0-.615-.615-1.23-.615-1.846-1.23-1.23-.614 1.846 1.845.616.615-.616 0-.616-.615-1.231-.615 0 0-.615-.614-.615-1.229 1.846 1.229 1.23 1.23.615.615s-.615-1.845-1.231-2.46c1.231 1.23.616 1.23 0 0 0-.615-.615-1.23-.615-1.845v-.615c0-1.229 0-.615 0 .615 0-.615 0-1.23 0-1.844v-1.845c0 1.23 0 1.845 0 .615v-.615c0-1.23.615-3.69 1.231-4.304 0 0-1.231 1.844 0 .614.615-.614.615-1.844 1.23-2.459.616-1.23 1.231-2.46 2.461-3.69.616-.614.616-1.229 1.231-1.229l.615-.615c-.615 1.23-.615 1.23 0 0 1.231-1.23 1.846-2.46 3.077-3.075 1.846-2.459 4.307-4.304 6.768-6.149 3.692-3.074 3.692-9.838 0-12.913-6.768-3.074-12.306-3.074-15.998 0z"/><path d="m336.564 698.529c0 15.372.615 31.36.615 46.732 0 7.379 10.46 12.913 15.998 6.764 6.768-7.379 9.845-16.602 12.306-26.441 1.23-4.304 1.846-8.608 3.691-12.913 0-.614.616-1.229.616-1.229-.616 1.229 0 0 0-.615.615-.615.615-1.845 1.23-2.46 1.231-2.46 1.846-3.074 3.077-4.304.615-.615 1.23-1.845 2.461-2.46.615 0 .615-.615 1.231-.615 0 0-.616.615 0 0 .615-.615 1.845-1.23 2.461-1.844 0 0 1.23-.615.615 0-.615.614.615 0 .615 0 .616 0 3.077-.615 1.231-.615.615 0 2.461 0 .615 0 .615 0 2.461.615 1.846.615-.615-.615 1.846 1.229 1.231.614 2.461 2.46 3.691 5.535 4.922 9.839 1.23 4.919 1.846 7.994 2.461 12.913.615 10.453-1.846 20.292-6.768 28.9-2.461 4.305-1.231 9.839 3.076 12.913 4.307 2.46 10.46 1.23 12.921-3.074 6.153-10.454 9.23-22.137 9.23-34.435 0-11.068-1.846-24.596-8.614-34.434-7.384-11.069-20.305-14.143-31.995-8.609-10.46 4.919-17.229 14.758-20.92 25.826-1.846 5.534-3.077 11.683-4.307 17.217-.616 1.23-.616 3.075-1.231 4.304 0 .615-.615 1.23-.615 1.23-1.231 2.46.615-1.23-.616 1.23-.615 1.23-1.23 2.46-1.845 3.689-.616.615-.616 1.23-1.231 1.845-.615 1.23 0 0-1.231 1.23 5.538 2.46 10.46 4.304 15.998 6.764 0-15.373-.615-31.36-.615-46.733 0-4.919-4.307-9.223-9.23-9.223-4.922-1.845-9.229 2.459-9.229 7.379z"/><path d="m433.165 753.87c1.231 1.23 2.461 2.459 4.307 4.304.615.615 1.846 1.23 3.077 1.845 1.23.615 2.461.615 3.691.615 1.231 0 2.462 0 3.692-.615 1.231-.615 1.846-1.23 3.077-1.845.615-.615 1.23-1.23 1.23-1.845.615-1.229 1.231-3.074 1.231-4.919 0-.615 0-1.844-.616-2.459-.615-1.845-1.23-3.075-2.461-4.305-1.23-1.23-2.461-2.459-4.307-4.304-.615-.615-1.846-1.23-3.076-1.845-1.231-.615-2.461-.615-3.692-.615s-2.461 0-3.692.615c-1.23.615-1.846 1.23-3.076 1.845-.615.615-1.231 1.23-1.231 1.845-.615 1.229-1.23 3.074-1.23 4.919 0 .615 0 1.845.615 2.46.615 1.844 1.23 3.074 2.461 4.304z"/></g></svg>